SplineFontDB: 1.0
FontName: Norasi-BoldItalic
FullName: Norasi Bold Italic
FamilyName: Norasi
Weight: Bold
Copyright: Copyright © 1999, The National Font Project (v.beta). Yannis Haralambous, Virach Sornlertlamvanich and Anutara Tantraporn. All rights reserved.\n\nModified under GNU General Public License, with creators' permission, by Thai Linux Working Group (TLWG).
Version: 004.004: 2007-04-03
ItalicAngle: -15.5
UnderlinePosition: -100
UnderlineWidth: 50
Ascent: 800
Descent: 200
NeedsXUIDChange: 1
FSType: 0
OS2Version: 0
OS2_WeightWidthSlopeOnly: 0
OS2_UseTypoMetrics: 0
CreationTime: 1153665670
ModificationTime: 1175584759
PfmFamily: 17
TTFWeight: 700
TTFWidth: 5
LineGap: 7
VLineGap: 0
Panose: 2 7 8 6 6 0 0 2 0 4
OS2TypoAscent: 0
OS2TypoAOffset: 1
OS2TypoDescent: 0
OS2TypoDOffset: 1
OS2TypoLinegap: 0
OS2WinAscent: 0
OS2WinAOffset: 1
OS2WinDescent: 0
OS2WinDOffset: 1
HheadAscent: 0
HheadAOffset: 1
HheadDescent: 0
HheadDOffset: 1
OS2Vendor: 'PfEd'
ScriptLang: 5
 1 DFLT 1 dflt 
 1 thai 4 KUY  PAL  THA  dflt 
 1 latn 1 dflt 
 1 thai 1 dflt 
 1 thai 1 PAL  
ContextSub: glyph 0 4 ' RQD' 0 0 0 1
 String: 15 uni0E0D uni0E10
 BString: 0 
 FString: 0 
 1
  SeqLookup: 0 'nds0'
EndFPST
ChainSub: class 0 1 'ccmp' 8 8 1 10
  Class: 414 uni0E01 uni0E02 uni0E03 uni0E04 uni0E05 uni0E06 uni0E07 uni0E08 uni0E09 uni0E0A uni0E0B uni0E0C uni0E0D uni0E0E uni0E0F uni0E10 uni0E11 uni0E12 uni0E13 uni0E14 uni0E15 uni0E16 uni0E17 uni0E18 uni0E19 uni0E1A uni0E1B uni0E1C uni0E1D uni0E1E uni0E1F uni0E20 uni0E21 uni0E22 uni0E23 uni0E24 uni0E25 uni0E26 uni0E27 uni0E28 uni0E29 uni0E2A uni0E2B uni0E2C uni0E2D uni0E2E uni0E10.descless uni0E0D.descless dottedcircle
  Class: 7 uni0E33
  Class: 7 uni0E48
  Class: 7 uni0E49
  Class: 7 uni0E4A
  Class: 7 uni0E4B
  Class: 7 uni0E4C

StartChar: .notdef
Encoding: 0 0 0
Width: 366
Flags: W
HStem: 0 22<22 366> 542 22<0 344>
VStem: 0 22<0 542> 344 22<22 564>
Fore
22 542 m 1
 22 22 l 1
 344 22 l 1
 344 542 l 1
 22 542 l 1
366 0 m 1
 0 0 l 1
 0 564 l 1
 366 564 l 1
 366 0 l 1
EndSplineSet
EndChar
StartChar: exclam
Encoding: 33 33 2
Width: 388
Flags: W
HStem: -13 146<130 148>
Back
146.624 52.9277 m 0
 146.624 36.4766 140.901 22.1719 129.457 10.7285 c 0
 118.729 0 105.14 -5.72168 90.835 -5.72168 c 0
 55.7881 -5.72168 37.9072 13.5898 37.9072 52.9277 c 0
 37.9072 90.1191 55.0732 111.576 89.4043 117.299 c 1
 125.166 117.299 144.478 95.8418 146.624 52.9277 c 0
143.762 585.776 m 1
 142.332 549.3 l 1
 105.14 170.226 l 1
 74.3848 170.226 l 1
 67.9473 248.901 62.2256 316.133 57.2188 371.207 c 0
 52.2119 426.28 47.9209 474.916 43.6289 515.685 c 0
 42.1992 527.127 40.7686 538.572 40.0527 549.3 c 0
 40.0527 560.028 39.3379 570.757 37.9072 581.486 c 0
 37.9072 643.711 55.0732 675.182 89.4043 675.182 c 0
 125.166 675.182 143.762 647.288 143.762 590.068 c 2
 143.762 585.776 l 1
EndSplineSet
Fore
196 204 m 1
 167 212 l 1
 196 368 215 486 220 565 c 0
 223 609 224 620 231 639 c 0
 246 666 270 684 300 684 c 0
 341 684 371 655 371 611 c 0
 371 584 365 568 338 521 c 1
 283 412 237 312 196 204 c 1
141 133 m 0
 179 133 212 97 212 59 c 0
 212 19 180 -13 139 -13 c 0
 98 -13 67 18 67 59 c 0
 67 100 100 133 141 133 c 0
EndSplineSet
EndChar
StartChar: quotedbl
Encoding: 34 34 3
Width: 553
Flags: W
Back
298.969 570.042 m 1
 268.212 384.081 l 1
 225.3 384.081 l 1
 218.861 424.85 213.14 457.75 208.849 482.783 c 0
 204.557 507.816 200.98 527.127 198.835 540.718 c 0
 195.975 554.307 194.543 563.605 193.828 570.042 c 0
 193.828 575.763 193.113 580.77 193.113 584.347 c 0
 193.113 617.963 210.994 634.412 246.041 634.412 c 0
 280.371 634.412 297.537 617.963 298.969 584.347 c 1
 298.969 570.042 l 1
143.762 570.042 m 1
 111.576 384.081 l 1
 70.0928 384.081 l 1
 63.6562 424.85 57.9336 457.75 53.6426 482.783 c 0
 49.3516 507.816 45.7754 527.127 42.9141 540.718 c 0
 40.7686 554.307 39.3379 563.605 38.623 570.042 c 0
 38.623 575.763 37.9072 580.77 37.9072 584.347 c 0
 37.9072 617.963 55.7881 634.412 90.835 634.412 c 0
 125.166 634.412 142.332 617.963 143.762 584.347 c 1
 143.762 570.042 l 1
EndSplineSet
Fore
177 398 m 1
 136 398 l 1
 152 612 l 1
 155 650 192 686 230 686 c 0
 256 686 275 664 275 636 c 0
 275 623 275 620 261 589 c 2
 259 584 l 1
 177 398 l 1
437 398 m 1
 395 398 l 1
 412 612 l 1
 415 650 453 686 491 686 c 0
 516 686 536 664 536 636 c 0
 536 623 535 620 521 589 c 2
 519 584 l 1
 437 398 l 1
EndSplineSet
EndChar
StartChar: numbersign
Encoding: 35 35 4
Width: 499
Flags: W
HStem: 0 21G<-22 56 168 248> 209 74<-14 63 171 253 362 429> 417 74<69 146 253 338 445 513>
Back
215.286 286.81 m 1
 314.703 286.81 l 1
 329.724 389.803 l 1
 231.735 389.803 l 1
 215.286 286.81 l 1
512.823 389.803 m 1
 414.836 389.803 l 1
 396.955 286.81 l 1
 489.22 286.81 l 1
 489.22 208.134 l 1
 385.512 208.134 l 1
 357.618 0 l 1
 273.936 0 l 1
 301.829 208.134 l 1
 203.842 208.134 l 1
 173.087 0 l 1
 90.835 0 l 1
 118.729 208.134 l 1
 20.7422 208.134 l 1
 20.7422 286.81 l 1
 133.033 286.81 l 1
 148.053 389.803 l 1
 47.2051 389.803 l 1
 47.2051 468.479 l 1
 160.928 468.479 l 1
 190.253 662.307 l 1
 271.074 662.307 l 1
 243.181 468.479 l 1
 341.167 468.479 l 1
 369.061 662.307 l 1
 451.312 662.307 l 1
 423.418 468.479 l 1
 512.823 468.479 l 1
 512.823 389.803 l 1
EndSplineSet
Fore
450 283 m 1
 429 209 l 1
 333 209 l 1
 248 0 l 1
 168 0 l 1
 253 209 l 1
 141 209 l 1
 56 0 l 1
 -22 0 l 1
 63 209 l 1
 -34 209 l 1
 -13 283 l 1
 92 283 l 1
 146 417 l 1
 51 417 l 1
 70 491 l 1
 176 491 l 1
 264 700 l 1
 340 700 l 1
 253 491 l 1
 368 491 l 1
 454 700 l 1
 532 700 l 1
 445 491 l 1
 533 491 l 1
 513 417 l 1
 416 417 l 1
 362 283 l 1
 450 283 l 1
338 417 m 1
 226 417 l 1
 171 283 l 1
 284 283 l 1
 338 417 l 1
EndSplineSet
EndChar
StartChar: dollar
Encoding: 36 36 5
Width: 499
Flags: W
HStem: 0 32<186 213> 637 32<273 303>
VStem: 79 100<488 542> 324 108<157 201>
Back
212.426 444.161 m 1
 212.426 628.69 l 1
 164.504 616.531 140.901 587.208 140.901 540.718 c 0
 140.901 529.988 142.332 519.26 146.624 508.531 c 0
 150.199 497.804 155.921 489.936 162.358 484.93 c 2
 212.426 444.161 l 1
356.187 162.358 m 0
 356.187 190.968 346.888 216.001 328.292 237.457 c 0
 323.286 241.034 316.85 246.041 308.266 252.478 c 0
 299.684 258.915 288.239 267.497 273.936 278.226 c 1
 273.936 57.2188 l 1
 328.292 70.0928 356.187 105.14 356.187 162.358 c 0
458.465 185.961 m 0
 458.465 84.3975 396.955 23.6025 273.936 2.86133 c 1
 273.936 -83.6826 l 1
 213.854 -83.6826 l 1
 213.854 0 l 1
 152.345 2.86133 92.9805 22.1719 35.0469 57.2188 c 1
 35.0469 206.702 l 1
 74.3848 206.702 l 1
 95.126 110.861 141.616 60.0801 213.854 54.3574 c 1
 213.854 311.843 l 1
 188.821 328.292 165.934 343.312 147.338 356.901 c 0
 128.027 369.775 112.292 382.649 99.418 394.094 c 0
 61.5098 432.002 42.1992 474.916 42.1992 521.406 c 0
 42.1992 572.188 62.2256 612.956 100.848 642.996 c 0
 118.014 655.87 135.18 665.169 153.06 672.319 c 0
 170.94 679.473 191.683 683.765 213.854 685.194 c 1
 213.854 748.85 l 1
 273.936 748.85 l 1
 273.936 682.333 l 1
 341.167 670.891 l 2
 356.901 668.029 374.067 660.877 391.948 649.433 c 0
 409.829 638.704 421.988 627.976 427.71 617.963 c 1
 427.71 496.372 l 1
 388.373 496.372 l 1
 373.353 574.333 335.445 619.394 273.936 630.122 c 1
 273.936 408.399 l 1
 354.757 357.618 l 1
 406.969 314.703 l 1
 441.3 279.656 458.465 236.742 458.465 185.961 c 0
EndSplineSet
Fore
497 598 m 1
 456 464 l 1
 434 470 l 1
 435 480 435 494 435 499 c 0
 435 568 412 605 352 625 c 1
 291 410 l 1
 353 357 372 338 395 308 c 0
 419 277 432 237 432 201 c 0
 432 86 331 0 201 0 c 2
 179 0 l 1
 149 -100 l 1
 98 -100 l 1
 127 7 l 1
 64 22 34 40 -21 86 c 1
 22 229 l 1
 44 223 l 1
 47 114 67 75 138 42 c 1
 211 303 l 1
 105 384 79 420 79 488 c 0
 79 590 164 669 275 669 c 0
 283 669 291 669 313 668 c 1
 331 732 l 1
 381 732 l 1
 360 661 l 1
 394 655 441 636 479 612 c 1
 497 598 l 1
248 437 m 1
 303 636 l 1
 297 637 294 637 289 637 c 0
 223 637 179 599 179 542 c 0
 179 502 195 476 248 437 c 1
253 274 m 1
 186 32 l 1
 221 32 230 34 248 40 c 0
 294 57 324 101 324 157 c 0
 324 204 308 230 253 274 c 1
EndSplineSet
EndChar
StartChar: percent
Encoding: 37 37 6
Width: 832
Flags: W
HStem: -10 47<583 617> 294 46<168 202> 584 39<421 441>
VStem: 347 34<565 590> 759 33<245 263>
Back
318.994 559.313 m 0
 318.994 565.75 316.85 577.194 311.843 594.36 c 1
 303.976 597.936 296.822 600.797 288.955 604.373 c 0
 281.803 607.949 274.65 611.524 266.782 616.531 c 2
 253.193 623.684 l 1
 225.3 620.823 197.405 592.929 170.226 539.287 c 0
 142.332 484.213 128.742 439.869 128.742 405.537 c 0
 128.742 364.769 144.478 344.027 175.947 344.027 c 0
 214.569 344.027 248.901 369.775 278.226 421.988 c 0
 305.405 470.624 318.994 516.399 318.994 559.313 c 0
700.214 263.922 m 0
 700.214 283.232 695.207 299.684 685.91 313.272 c 0
 677.326 326.863 663.737 334.014 645.856 334.014 c 0
 611.524 334.014 579.34 303.976 547.869 243.181 c 0
 522.121 190.253 509.963 148.768 509.963 117.299 c 0
 509.963 75.8145 526.412 55.7881 559.313 55.7881 c 0
 595.79 55.7881 628.69 80.8213 659.445 131.604 c 0
 673.751 154.491 684.479 175.947 690.917 197.405 c 0
 697.354 219.576 700.214 241.034 700.214 263.922 c 0
754.572 271.074 m 0
 754.572 208.134 735.976 150.199 698.784 95.126 c 0
 658.73 31.4707 607.234 0 543.578 0 c 0
 498.519 0 464.902 13.5898 441.3 40.7686 c 0
 418.413 68.6621 406.969 103.709 406.969 148.053 c 0
 406.969 204.557 429.855 259.63 476.346 313.272 c 0
 522.837 366.2 575.048 392.663 632.982 392.663 c 0
 713.805 392.663 754.572 351.895 754.572 271.074 c 0
627.261 693.062 m 1
 233.167 -10.0137 l 1
 155.206 -10.0137 l 1
 490.65 587.208 l 1
 464.188 579.34 439.154 575.763 416.267 575.763 c 0
 406.969 575.763 399.101 575.763 391.233 575.763 c 0
 383.366 575.763 375.498 576.479 367.631 578.625 c 1
 371.922 556.453 l 1
 371.922 534.28 369.775 512.107 364.769 489.936 c 0
 359.762 467.764 351.895 445.591 341.167 423.418 c 0
 336.16 412.689 327.577 398.386 314.703 380.505 c 0
 271.789 317.564 218.861 285.378 155.206 285.378 c 0
 114.438 285.378 82.252 299.684 60.0801 328.292 c 0
 37.9072 356.187 26.4639 391.233 26.4639 432.002 c 0
 26.4639 490.65 48.6357 547.154 93.6953 600.797 c 0
 138.04 653.01 190.253 679.473 251.763 679.473 c 0
 276.081 679.473 303.259 670.176 332.584 650.148 c 1
 366.915 634.412 393.379 627.261 411.26 627.261 c 0
 461.325 627.261 509.963 648.718 557.882 693.062 c 1
 627.261 693.062 l 1
EndSplineSet
Fore
677 376 m 0
 746 376 792 330 792 261 c 0
 792 185 760 101 706 44 c 0
 674 10 628 -10 583 -10 c 0
 502 -10 450 45 450 127 c 0
 450 192 485 265 539 316 c 0
 582 356 627 376 677 376 c 0
707 325 m 0
 684 327 658 308 636 272 c 0
 605 230 570 138 567 92 c 0
 565 62 587 37 617 37 c 0
 653 37 688 64 718 119 c 0
 746 168 759 214 759 256 c 0
 759 294 738 324 707 325 c 0
193 -7 m 1
 543 612 l 1
 499 595 461 584 423 584 c 0
 415 584 401 587 381 590 c 1
 379 501 363 444 319 382 c 0
 281 325 229 294 168 294 c 0
 92 294 40 352 40 431 c 0
 40 555 151 680 264 680 c 0
 291 680 311 672 340 650 c 0
 368 631 394 623 437 623 c 0
 499 623 549 643 605 691 c 1
 645 691 l 1
 250 -7 l 1
 193 -7 l 1
287 631 m 0
 270 633 246 612 224 582 c 0
 190 532 157 441 154 394 c 0
 152 363 173 340 202 340 c 0
 272 340 347 463 347 577 c 0
 347 599 346 601 318 612 c 0
 311 615 311 615 302 623 c 0
 294 628 291 630 287 631 c 0
EndSplineSet
EndChar
StartChar: ampersand
Encoding: 38 38 7
Width: 777
Flags: W
HStem: -19 72<198 265> -18 80<529 596> 335 25<479 487.4> 649 34<413 427>
VStem: 4 134<148 190> 234 120<476 530> 478 79<566 582>
Back
406.969 552.161 m 0
 406.969 571.473 401.247 587.922 390.519 601.513 c 0
 379.074 614.387 364.054 620.823 345.458 620.823 c 0
 305.405 620.823 285.378 597.221 285.378 549.3 c 0
 285.378 512.823 295.392 474.199 314.703 432.002 c 1
 376.213 466.332 406.969 506.386 406.969 552.161 c 0
253.193 61.5098 m 0
 285.378 61.5098 324.001 79.3906 369.061 114.438 c 1
 348.319 139.471 327.577 170.226 305.405 205.272 c 0
 283.232 240.318 260.345 279.656 236.027 324.001 c 1
 180.239 276.796 l 1
 166.65 262.49 156.637 246.756 151.63 231.735 c 0
 145.908 216.001 143.762 200.98 143.762 185.961 c 0
 143.762 170.226 145.908 155.206 151.63 140.186 c 0
 156.637 124.451 164.504 111.576 174.518 99.418 c 0
 183.814 87.9736 195.975 78.6758 209.563 71.5234 c 0
 223.153 65.0859 237.457 61.5098 253.193 61.5098 c 0
736.691 113.007 m 1
 730.254 89.4043 719.525 69.3779 705.937 52.9277 c 1
 665.884 10.7285 622.254 -10.0137 574.333 -10.0137 c 0
 523.552 -10.0137 468.479 16.4502 409.829 68.6621 c 1
 353.326 26.4639 l 2
 344.027 20.7422 334.014 15.0195 321.856 10.0137 c 0
 308.982 5.72168 296.106 1.43066 281.803 -1.43066 c 0
 267.497 -4.29102 253.908 -6.4375 239.604 -7.86719 c 0
 225.3 -9.29785 211.709 -10.0137 199.55 -10.0137 c 0
 145.192 -10.0137 102.994 2.86133 72.2383 30.04 c 0
 41.4834 57.2188 26.4639 97.2715 26.4639 150.914 c 0
 26.4639 231.735 78.6758 303.259 183.1 364.769 c 2
 210.994 380.505 l 1
 197.405 420.558 188.821 449.883 185.246 467.049 c 0
 181.669 484.93 180.239 499.233 180.239 509.963 c 0
 180.239 532.134 184.531 553.592 192.398 573.618 c 0
 200.98 593.644 212.426 610.81 226.015 626.545 c 0
 240.318 641.564 257.484 653.01 276.796 662.307 c 0
 296.106 670.891 317.564 675.182 341.167 675.182 c 0
 381.22 675.182 415.551 664.452 444.161 642.281 c 0
 472.056 620.108 486.359 588.637 486.359 547.869 c 0
 486.359 502.811 467.764 464.188 430.57 430.57 c 0
 424.135 424.135 412.689 416.267 397.67 406.969 c 0
 382.649 398.386 364.054 388.373 341.167 376.213 c 1
 356.901 345.458 374.067 315.418 392.663 287.524 c 0
 411.26 260.345 430.57 233.167 451.312 208.134 c 1
 499.233 271.789 522.837 321.856 522.837 359.048 c 0
 522.837 379.074 502.094 389.803 461.325 389.803 c 1
 461.325 436.294 l 1
 698.784 436.294 l 1
 698.784 391.233 l 1
 668.744 386.227 649.433 381.935 641.564 377.643 c 0
 636.559 376.213 630.837 371.922 624.4 365.485 c 0
 618.678 359.048 611.524 349.75 605.088 338.306 c 2
 581.486 296.106 l 2
 567.181 270.358 552.161 246.041 537.141 222.438 c 0
 521.406 199.55 505.671 176.662 489.22 155.206 c 1
 499.233 141.616 510.678 129.457 524.981 118.014 c 0
 539.287 106.57 556.453 97.2715 575.763 89.4043 c 0
 585.776 84.3975 597.936 82.252 613.671 82.252 c 0
 632.982 82.252 648.718 85.1133 659.445 92.2656 c 0
 665.169 94.4111 670.891 99.418 677.326 107.285 c 0
 683.765 114.438 692.347 125.166 703.075 138.04 c 1
 736.691 113.007 l 1
EndSplineSet
Fore
672 101 m 1x7e
 699 81 l 1
 639 7 595 -18 529 -18 c 0x7e
 476 -18 435 0 390 44 c 1
 324 -1 268 -19 198 -19 c 0xbe
 83 -19 4 48 4 148 c 0
 4 193 26 242 63 280 c 0
 97 316 129 334 245 384 c 1
 237 429 234 453 234 476 c 0
 234 598 309 683 419 683 c 0
 499 683 557 634 557 568 c 0
 557 501 499 445 375 395 c 1
 387 322 420 234 461 168 c 1
 519 242 535 270 535 297 c 0
 535 319 521 330 479 335 c 1
 479 360 l 1
 691 360 l 1
 691 335 l 1
 628 324 624 319 486 133 c 1
 524 82 557 62 596 62 c 0
 623 62 645 72 672 101 c 1x7e
253 343 m 1
 168 302 138 261 138 190 c 0
 138 111 193 53 265 53 c 0xbe
 296 53 322 60 362 81 c 1
 306 167 278 231 253 343 c 1
366 434 m 1
 403 456 403 456 415 464 c 0
 453 495 478 538 478 582 c 0
 478 624 458 649 425 649 c 0
 379 649 354 606 354 530 c 0
 354 505 357 488 366 434 c 1
EndSplineSet
EndChar
StartChar: quotesingle
Encoding: 39 39 8
Width: 276
Flags: W
Back
117.299 642.996 m 0
 111.576 645.856 102.994 647.288 92.2656 647.288 c 0
 75.8145 647.288 61.5098 641.564 49.3516 630.122 c 0
 37.1924 617.963 30.7549 603.657 30.7549 585.776 c 0
 30.7549 569.327 37.1924 555.738 49.3516 544.293 c 0
 61.5098 532.851 75.8145 527.127 92.2656 527.127 c 0
 97.2715 527.127 101.563 527.844 104.424 527.844 c 0
 108 528.559 111.576 529.273 115.868 529.988 c 1
 115.868 522.837 l 2
 115.868 508.531 110.861 494.227 100.133 480.638 c 0
 90.1191 467.049 78.6758 455.604 65.8018 447.021 c 0
 60.0801 442.015 55.0732 438.438 52.2119 437.009 c 0
 48.6357 435.577 47.2051 434.862 47.2051 434.862 c 1
 60.0801 398.386 l 1
 60.0801 398.386 65.8018 401.247 77.9609 406.969 c 0
 89.4043 413.406 102.278 421.988 116.583 434.147 c 0
 130.888 446.307 143.762 462.042 155.206 480.638 c 0
 166.65 499.233 173.087 521.406 173.087 547.869 c 0
 173.087 572.188 167.365 592.214 155.921 608.664 c 0
 144.478 624.4 131.604 636.559 117.299 642.996 c 0
EndSplineSet
Fore
168 398 m 1
 127 398 l 1
 144 612 l 1
 146 650 185 686 223 686 c 0
 252 686 268 658 268 637 c 0
 268 620 259 602 250 584 c 2
 168 398 l 1
EndSplineSet
EndChar
StartChar: parenleft
Encoding: 40 40 9
Width: 332
Flags: W
VStem: 28 94<110 207>
Back
256.055 -177.379 m 1
 175.947 -126.597 115.868 -62.2256 75.0996 14.3047 c 0
 35.0469 91.5498 14.3047 177.379 14.3047 272.504 c 0
 14.3047 453.458 95.8418 596.506 258.915 703.074 c 1
 279.656 666.599 l 1
 230.306 624.4 193.828 583.632 171.657 543.578 c 0
 162.358 527.844 154.491 509.246 148.053 487.075 c 0
 140.901 464.902 135.895 442.015 131.604 417.696 c 0
 128.027 393.379 125.166 368.346 123.021 342.598 c 0
 120.875 317.564 120.159 293.246 120.159 271.074 c 0
 120.159 212.426 121.59 169.511 124.451 141.616 c 0
 127.312 113.723 132.318 90.835 139.471 72.9541 c 0
 155.921 25.0332 174.518 -16.4502 195.26 -51.4971 c 0
 216.716 -86.543 245.324 -116.583 282.518 -142.332 c 1
 256.055 -177.379 l 1
EndSplineSet
Fore
327 686 m 1
 344 665 l 1
 264 590 226 543 190 461 c 0
 146 366 122 237 122 110 c 0
 122 -6 138 -67 193 -164 c 1
 170 -179 l 1
 69 -41 28 70 28 207 c 0
 28 278 41 344 67 404 c 0
 114 508 174 573 327 686 c 1
EndSplineSet
EndChar
StartChar: parenright
Encoding: 41 41 10
Width: 332
Flags: W
VStem: 177 94<299 398>
Back
50.0664 -178.809 m 1
 130.173 -128.027 190.253 -63.6562 231.021 12.874 c 0
 271.074 90.1191 291.816 175.947 291.816 271.074 c 0
 291.816 451.312 210.279 595.075 47.2051 701.646 c 1
 26.4639 665.169 l 1
 75.8145 622.969 112.292 582.201 134.464 542.147 c 0
 143.762 526.412 151.63 507.816 158.066 485.645 c 0
 165.219 463.472 170.226 440.584 174.518 416.267 c 0
 178.094 391.233 180.954 366.915 183.1 341.167 c 0
 185.246 316.133 185.961 291.816 185.961 269.644 c 0
 185.961 210.994 184.531 167.365 181.669 140.186 c 0
 178.809 112.292 173.802 89.4043 166.65 71.5234 c 0
 150.199 23.6025 131.604 -17.8809 110.861 -52.9277 c 0
 89.4043 -87.9736 60.7949 -118.014 23.6025 -143.762 c 1
 50.0664 -178.809 l 1
EndSplineSet
Fore
-26 -179 m 1
 -44 -160 l 1
 32 -89 63 -51 95 15 c 0
 145 114 177 267 177 398 c 0
 177 513 160 580 105 669 c 1
 127 686 l 1
 180 614 201 580 224 524 c 0
 255 450 271 372 271 299 c 0
 271 202 245 114 192 34 c 0
 141 -47 89 -95 -26 -179 c 1
EndSplineSet
EndChar
StartChar: asterisk
Encoding: 42 42 11
Width: 499
Flags: W
HStem: 334 105<116 144 376 406> 497 106<114 144 376 407>
VStem: 253 15<442 454 482 510>
Back
379.074 426.28 m 0
 371.922 431.287 362.624 434.862 352.611 437.724 c 0
 341.882 440.584 331.153 444.161 319.71 447.021 c 0
 308.982 449.883 298.252 452.743 287.524 456.319 c 0
 277.511 459.896 268.929 463.472 262.49 467.049 c 1
 268.929 471.339 277.511 474.199 287.524 477.062 c 0
 298.252 479.206 308.982 482.068 319.71 484.93 c 0
 331.153 487.79 341.882 490.65 352.611 494.227 c 0
 362.624 497.804 371.922 501.379 379.074 505.671 c 0
 407.684 522.121 414.836 543.578 399.815 571.473 c 0
 383.366 598.65 360.479 603.657 332.584 585.776 c 0
 324.717 582.201 316.85 576.479 308.982 569.327 c 0
 285.378 545.725 l 0
 277.511 537.141 270.358 529.273 262.49 522.121 c 0
 254.623 514.968 246.756 509.246 240.318 505.671 c 1
 240.318 522.121 243.896 541.433 251.763 565.035 c 0
 259.63 587.922 263.922 607.949 263.922 625.115 c 0
 263.922 642.281 260.345 654.439 253.193 663.737 c 0
 246.756 672.319 234.597 676.611 216.716 676.611 c 0
 185.246 676.611 170.226 659.445 170.226 625.115 c 0
 170.226 607.949 173.802 587.922 181.669 565.035 c 0
 189.538 541.433 193.828 522.121 194.543 505.671 c 1
 188.106 509.246 180.954 514.968 173.087 522.121 c 0
 165.219 529.273 157.352 537.141 149.484 545.725 c 0
 125.881 569.327 l 0
 118.014 576.479 110.146 582.201 102.278 585.776 c 0
 72.9541 603.657 50.0664 598.65 33.6162 571.473 c 0
 17.8809 543.578 25.0332 522.121 55.7881 505.671 c 0
 63.6562 501.379 72.9541 497.804 83.6826 494.227 c 0
 94.4111 490.65 105.14 487.79 115.868 484.93 c 0
 126.597 482.068 136.609 479.206 147.338 477.062 c 0
 157.352 474.199 165.934 471.339 173.087 467.049 c 1
 165.934 463.472 157.352 459.896 147.338 456.319 c 0
 136.609 452.743 126.597 449.883 115.868 447.021 c 0
 105.14 444.161 94.4111 440.584 83.6826 437.724 c 0
 72.9541 434.862 63.6562 431.287 55.7881 426.28 c 0
 25.0332 409.829 17.8809 387.656 33.6162 360.479 c 0
 50.0664 333.299 72.9541 328.292 102.278 345.458 c 0
 110.146 350.465 118.014 356.901 125.881 364.054 c 0
 133.749 371.207 141.616 379.074 149.484 386.941 c 0
 157.352 394.809 165.219 401.962 173.087 409.114 c 0
 180.954 416.981 188.106 422.703 194.543 426.28 c 1
 193.828 410.544 189.538 391.233 181.669 367.631 c 0
 173.802 344.027 170.226 324.001 170.226 307.551 c 0
 170.226 272.504 185.246 254.623 216.716 254.623 c 0
 234.597 254.623 246.756 258.915 253.193 268.212 c 0
 260.345 276.796 263.922 290.385 263.922 307.551 c 0
 263.922 316.133 262.49 326.146 260.345 336.16 c 0
 257.484 346.173 254.623 356.901 251.763 367.631 c 0
 248.901 378.359 246.041 389.088 243.896 399.101 c 0
 241.749 409.114 240.318 418.413 240.318 426.28 c 1
 246.756 422.703 253.908 416.981 261.775 409.114 c 0
 268.929 401.962 276.796 394.094 284.663 386.227 c 0
 293.246 377.643 301.113 369.775 308.982 362.624 c 0
 316.85 355.472 324.717 349.75 332.584 345.458 c 0
 360.479 328.292 383.366 333.299 399.815 360.479 c 0
 414.836 387.656 407.684 409.829 379.074 426.28 c 0
EndSplineSet
Fore
253 482 m 1
 253 494 l 2
 253 527 246 552 227 584 c 0
 214 606 209 618 209 633 c 0
 209 664 230 686 261 686 c 0
 291 686 311 664 311 633 c 0
 311 618 308 606 294 584 c 0
 275 552 268 527 268 494 c 2
 268 482 l 1
 278 488 l 2
 308 505 319 517 344 555 c 0
 365 590 382 603 407 603 c 0
 432 603 456 577 456 548 c 0
 456 533 447 519 431 508 c 0
 416 499 406 497 376 497 c 0
 333 497 319 494 287 475 c 2
 275 469 l 1
 287 461 l 2
 319 442 331 441 376 439 c 0
 406 439 417 437 431 429 c 0
 445 420 456 403 456 388 c 0
 456 359 434 334 406 334 c 0
 381 334 365 346 344 382 c 0
 322 417 312 428 278 448 c 2
 268 454 l 1
 268 442 l 2
 268 410 275 387 294 353 c 0
 306 331 311 318 311 303 c 0
 311 272 291 252 261 252 c 0
 230 252 209 272 209 305 c 0
 209 318 215 331 227 353 c 0
 246 387 253 410 253 442 c 2
 253 454 l 1
 242 448 l 2
 209 428 199 417 177 382 c 0
 157 346 141 334 116 334 c 0
 88 334 64 359 64 388 c 0
 64 403 75 420 91 429 c 0
 103 437 116 439 144 439 c 0
 190 441 201 442 234 461 c 2
 245 469 l 1
 234 475 l 2
 201 494 187 497 144 497 c 0
 116 497 105 499 91 508 c 0
 75 519 64 532 64 549 c 0
 64 577 89 603 114 603 c 0
 138 603 155 590 177 555 c 0
 201 517 212 505 242 488 c 2
 253 482 l 1
EndSplineSet
EndChar
StartChar: plus
Encoding: 43 43 12
Width: 569
Flags: W
HStem: 0 21G<242 330> 209 88<34 242 330 538>
VStem: 242 88<0 209 297 505>
Back
542.147 222.438 m 1
 322.571 222.438 l 1
 322.571 0 l 1
 246.041 0 l 1
 246.041 222.438 l 1
 25.0332 222.438 l 1
 25.0332 297.537 l 1
 246.041 297.537 l 1
 246.041 518.545 l 1
 322.571 518.545 l 1
 322.571 297.537 l 1
 542.147 297.537 l 1
 542.147 222.438 l 1
EndSplineSet
Fore
242 297 m 1
 242 505 l 1
 330 505 l 1
 330 297 l 1
 538 297 l 1
 538 209 l 1
 330 209 l 1
 330 0 l 1
 242 0 l 1
 242 209 l 1
 34 209 l 1
 34 297 l 1
 242 297 l 1
EndSplineSet
EndChar
StartChar: comma
Encoding: 44 44 13
Width: 249
Flags: W
Back
117.299 113.007 m 0
 111.576 115.868 102.994 117.299 92.2656 117.299 c 0
 75.8145 117.299 61.5098 111.576 49.3516 99.418 c 0
 37.1924 87.9736 30.7549 72.9541 30.7549 55.7881 c 0
 30.7549 39.3379 37.1924 25.0332 49.3516 13.5898 c 0
 61.5098 2.86133 75.8145 -2.86133 92.2656 -2.86133 c 0
 97.2715 -2.86133 101.563 -2.86133 104.424 -2.14551 c 0
 108 -1.43066 111.576 -0.714844 115.868 0 c 1
 115.868 -7.15234 l 2
 115.868 -22.1719 110.861 -36.4766 100.133 -50.0664 c 0
 90.1191 -63.6562 78.6758 -74.3848 65.8018 -83.6826 c 0
 60.0801 -88.6895 55.0732 -91.5498 52.2119 -92.9805 c 0
 48.6357 -94.4111 47.2051 -95.126 47.2051 -95.126 c 1
 60.0801 -131.604 l 1
 60.0801 -131.604 65.8018 -128.742 77.9609 -123.021 c 0
 89.4043 -117.299 102.278 -108 116.583 -95.8418 c 0
 130.888 -83.6826 143.762 -68.6621 155.206 -50.0664 c 0
 166.65 -31.4707 173.087 -8.58301 173.087 17.8809 c 0
 173.087 42.1992 167.365 62.2256 155.921 78.6758 c 0
 144.478 94.4111 131.604 105.854 117.299 113.007 c 0
EndSplineSet
Fore
-47 -182 m 1
 -60 -158 l 1
 18 -116 59 -78 59 -41 c 0
 59 -26 51 -18 28 -1 c 0
 -1 18 -12 34 -12 62 c 0
 -12 103 18 133 59 133 c 0
 110 133 144 95 144 37 c 0
 144 -45 67 -130 -47 -182 c 1
EndSplineSet
KernsSLIFO: 18 -25 0 0 114 -22 0 0
EndChar
StartChar: hyphen
Encoding: 45 45 14
Width: 332
Flags: W
HStem: 166 117<25 248>
Back
361.908 121.59 m 1
 43.6289 121.59 l 1
 43.6289 170.226 l 1
 361.908 170.226 l 1
 361.908 121.59 l 1
EndSplineSet
Fore
271 283 m 1
 248 166 l 1
 1 166 l 1
 26 283 l 1
 271 283 l 1
EndSplineSet
KernsSLIFO: 231 -22 0 0 251 -12 0 0 254 -12 0 0 255 -12 0 0 34 -12 0 0 53 -59 0 0 55 -62 0 0 56 -59 0 0 58 -69 0 0
EndChar
StartChar: period
Encoding: 46 46 15
Width: 249
Flags: W
HStem: -13 21G<43.5 84.5>
Back
145.192 47.2051 m 0
 145.192 31.4707 138.756 18.5957 126.597 7.86719 c 0
 114.438 -2.14551 100.848 -7.15234 86.543 -7.15234 c 0
 71.5234 -7.15234 58.6494 -2.14551 47.9209 7.86719 c 0
 36.4766 18.5957 30.7549 31.4707 30.7549 47.2051 c 0
 30.7549 62.2256 36.4766 75.8145 47.2051 87.2588 c 0
 57.9336 98.7021 70.8086 103.709 86.543 103.709 c 0
 100.848 103.709 114.438 97.9873 126.597 86.543 c 0
 138.756 74.3848 145.192 61.5098 145.192 47.2051 c 0
EndSplineSet
Fore
66 135 m 0
 105 135 139 101 139 62 c 0
 139 19 105 -13 64 -13 c 0
 23 -13 -9 19 -9 60 c 0
 -9 103 23 135 66 135 c 0
EndSplineSet
KernsSLIFO: 18 -31 0 0 116 -4 0 0 114 -26 0 0
EndChar
StartChar: slash
Encoding: 47 47 16
Width: 276
Flags: W
Back
354.757 698.784 m 1
 80.8213 -171.657 l 1
 4.29102 -171.657 l 1
 276.796 698.784 l 1
 354.757 698.784 l 1
EndSplineSet
Fore
255 686 m 1
 341 686 l 1
 23 -18 l 1
 -64 -18 l 1
 255 686 l 1
EndSplineSet
EndChar
StartChar: zero
Encoding: 48 48 17
Width: 499
Flags: W
HStem: -15 30<161 179> 653 30<321 329>
VStem: 18 102<81 207> 374 104<442 582>
Back
366.2 331.153 m 0
 366.2 528.559 329.724 627.261 257.484 627.261 c 0
 185.246 627.261 149.484 528.559 149.484 331.153 c 0
 149.484 134.464 185.246 36.4766 257.484 36.4766 c 0
 329.724 36.4766 366.2 134.464 366.2 331.153 c 0
483.498 331.153 m 0
 483.498 245.324 469.193 173.087 440.584 115.868 c 0
 401.962 30.7549 341.167 -11.4434 257.484 -11.4434 c 0
 216.001 -11.4434 180.239 -0.714844 151.63 20.7422 c 0
 123.021 42.1992 99.418 69.3779 82.252 102.994 c 0
 64.3711 136.609 51.4971 173.802 43.6289 213.854 c 0
 36.4766 253.908 32.1855 293.246 32.1855 331.153 c 0
 32.1855 368.346 36.4766 406.969 43.6289 447.736 c 0
 51.4971 487.79 64.3711 524.981 82.9668 558.599 c 0
 100.848 592.214 124.451 620.108 153.06 642.281 c 0
 181.669 664.452 216.716 675.182 257.484 675.182 c 0
 339.737 675.182 400.532 632.268 440.584 546.439 c 0
 469.193 487.075 483.498 414.836 483.498 331.153 c 0
EndSplineSet
Fore
327 683 m 0
 417 683 478 587 478 442 c 0
 478 286 398 104 297 29 c 0
 259 0 220 -15 177 -15 c 0
 81 -15 18 73 18 207 c 0
 18 354 79 516 171 611 c 0
 217 658 272 683 327 683 c 0
325 653 m 0
 289 653 261 614 223 510 c 0
 176 379 120 145 120 81 c 0
 120 41 141 15 170 15 c 0
 211 15 240 53 272 149 c 0
 296 215 346 409 362 494 c 0
 371 532 374 562 374 582 c 0
 374 627 356 653 325 653 c 0
EndSplineSet
KernsSLIFO: 18 -50 0 0 24 -12 0 0
EndChar
StartChar: one
Encoding: 49 49 18
Width: 499
Flags: W
HStem: 0 23<4 30.6389 350 350>
Back
303.259 0 m 1
 27.8945 0 l 1
 27.8945 39.3379 l 1
 59.3643 39.3379 80.8213 43.6289 93.6953 51.4971 c 0
 106.57 59.3643 113.007 75.8145 113.007 100.848 c 2
 113.007 537.857 l 2
 113.007 559.313 107.285 570.042 95.126 570.042 c 0
 92.2656 570.042 67.2324 560.743 20.7422 543.578 c 1
 20.7422 581.486 l 1
 193.113 676.611 l 1
 218.146 672.319 l 1
 218.146 85.1133 l 2
 218.146 62.2256 223.868 48.6357 234.597 43.6289 c 2
 233.167 45.0596 l 2
 244.61 41.4834 268.212 39.3379 303.259 39.3379 c 1
 303.259 0 l 1
EndSplineSet
Fore
4 0 m 1
 4 23 l 1
 78 23 107 42 125 97 c 1
 252 557 l 1
 253 565 256 574 256 580 c 0
 256 602 242 612 209 612 c 0
 190 612 174 612 146 608 c 1
 149 631 l 1
 265 647 328 661 419 683 c 1
 265 123 l 2
 253 83 253 78 253 69 c 0
 253 32 271 23 350 23 c 1
 350 0 l 1
 4 0 l 1
EndSplineSet
KernsSLIFO: 13 -37 0 0 25 -56 0 0 22 -44 0 0 21 -75 0 0 26 -40 0 0 18 -47 0 0 15 -38 0 0 24 -64 0 0 23 -62 0 0 20 -42 0 0 19 -31 0 0 17 -47 0 0
EndChar
StartChar: two
Encoding: 50 50 19
Width: 499
Flags: W
HStem: 0 111<105 340> 593 90<220 281>
VStem: 312 133<483 516>
Back
479.206 152.345 m 1
 420.558 0 l 1
 32.1855 0 l 1
 32.1855 27.8945 l 1
 203.842 215.286 l 2
 282.518 302.544 322.571 381.935 322.571 454.175 c 0
 322.571 494.942 311.843 526.412 291.1 547.869 c 0
 269.644 569.327 239.604 580.055 199.55 580.055 c 0
 168.08 580.055 142.332 567.181 121.59 542.147 c 0
 105.854 523.552 90.1191 492.797 74.3848 449.883 c 1
 32.1855 461.325 l 1
 42.9141 527.127 65.8018 578.625 100.848 617.248 c 0
 135.895 655.87 184.531 675.182 246.041 675.182 c 0
 272.504 675.182 296.822 670.891 318.279 661.592 c 0
 340.452 652.293 359.762 639.419 376.213 622.254 c 0
 393.379 605.803 406.254 586.493 415.551 562.889 c 0
 424.85 540.002 429.141 515.685 429.141 489.22 c 0
 429.141 416.981 387.656 336.16 304.69 246.041 c 2
 166.65 96.5566 l 1
 361.908 96.5566 l 2
 380.505 96.5566 395.525 100.848 406.969 110.146 c 0
 409.829 113.007 414.836 118.729 420.558 127.312 c 0
 426.28 135.895 433.432 148.768 442.015 165.219 c 1
 479.206 152.345 l 1
EndSplineSet
Fore
419 190 m 1
 340 0 l 1
 -26 0 l 1
 -26 23 l 1
 3 53 34 83 63 114 c 1
 250 300 312 393 312 483 c 0
 312 552 277 593 220 593 c 0
 167 593 126 565 86 507 c 1
 64 519 l 1
 92 573 108 598 138 623 c 0
 182 664 229 683 281 683 c 0
 374 683 445 609 445 516 c 0
 445 439 395 357 302 278 c 2
 105 111 l 1
 255 111 l 2
 333 111 356 125 394 190 c 1
 419 190 l 1
EndSplineSet
KernsSLIFO: 21 -7 0 0 18 -47 0 0 24 -26 0 0
EndChar
StartChar: three
Encoding: 51 51 20
Width: 499
Flags: W
HStem: -13 39<119 174> 612 71<234 300>
VStem: 286 123<189 250> 321 129<521 546>
Back
423.418 219.576 m 0
 423.418 146.624 394.809 87.9736 338.306 43.6289 c 0
 313.987 24.3184 286.093 10.0137 253.908 1.43066 c 0
 222.438 -7.15234 188.106 -11.4434 150.914 -11.4434 c 0
 127.312 -11.4434 106.57 -8.58301 87.9736 -1.43066 c 0
 77.2451 2.14551 65.8018 8.58301 53.6426 17.8809 c 0
 41.4834 26.4639 35.0469 38.623 35.0469 54.3574 c 0
 35.0469 70.8086 40.0527 82.252 50.7812 89.4043 c 0
 60.7949 95.8418 71.5234 99.418 83.6826 99.418 c 0
 90.1191 99.418 99.418 97.9873 111.576 93.6953 c 0
 123.021 90.1191 136.609 82.252 152.345 71.5234 c 0
 166.65 62.2256 180.239 55.0732 190.968 51.4971 c 0
 202.412 47.2051 210.994 45.0596 216.716 45.0596 c 0
 251.763 45.0596 278.941 59.3643 298.969 87.9736 c 0
 318.279 115.152 328.292 146.624 328.292 181.669 c 0
 328.292 203.127 324.717 221.008 317.564 234.597 c 0
 303.976 261.062 283.232 281.088 255.338 296.106 c 0
 227.444 310.412 188.821 317.564 138.04 317.564 c 1
 133.033 353.326 l 1
 237.457 386.227 290.385 437.009 290.385 505.671 c 0
 290.385 531.419 281.803 552.876 265.352 568.612 c 0
 248.187 583.632 227.444 591.499 202.412 591.499 c 0
 152.345 591.499 108.716 557.167 71.5234 487.79 c 1
 32.1855 499.233 l 1
 67.2324 616.531 134.464 675.182 233.167 675.182 c 0
 277.511 675.182 315.418 663.022 345.458 639.419 c 0
 376.213 615.816 391.233 580.77 391.233 534.995 c 0
 391.233 484.93 365.485 440.584 314.703 401.247 c 1
 327.577 394.809 338.306 387.656 347.604 380.505 c 0
 356.901 374.067 365.485 366.915 373.353 360.479 c 0
 391.948 344.027 404.822 322.571 412.689 296.822 c 0
 419.843 271.074 423.418 245.324 423.418 219.576 c 0
EndSplineSet
Fore
127 347 m 1xe0
 132 369 l 1
 261 395 321 445 321 521 c 0
 321 577 287 612 234 612 c 0
 187 612 160 595 119 538 c 1
 97 549 l 1
 160 643 220 683 300 683 c 0
 387 683 450 625 450 546 c 0xd0
 450 486 415 438 343 403 c 2
 331 397 l 1
 388 354 409 316 409 250 c 0
 409 104 278 -13 119 -13 c 0
 37 -13 -15 18 -15 67 c 0
 -15 101 9 123 45 123 c 0
 70 123 86 111 110 78 c 0
 127 53 133 42 135 41 c 0
 144 34 160 26 174 26 c 0
 236 26 286 100 286 189 c 0
 286 256 261 305 212 328 c 0
 189 341 170 346 127 347 c 1xe0
EndSplineSet
KernsSLIFO: 21 -15 0 0 18 -66 0 0 24 -26 0 0
EndChar
StartChar: four
Encoding: 52 52 21
Width: 499
Flags: W
HStem: 0 248<53 316> 149 99<53 229 384 426>
Back
263.922 243.181 m 1
 263.922 507.101 l 1
 82.252 243.181 l 1
 263.922 243.181 l 1
455.604 158.066 m 1
 364.769 158.066 l 1
 364.769 0 l 1
 265.352 0 l 1
 265.352 158.066 l 1
 5.72168 158.066 l 1
 5.72168 234.597 l 1
 301.829 662.307 l 1
 364.769 662.307 l 1
 364.769 243.181 l 1
 455.604 243.181 l 1
 455.604 158.066 l 1
EndSplineSet
Fore
453 248 m 1x40
 426 149 l 1
 357 149 l 1x40
 316 0 l 1
 187 0 l 1x80
 229 149 l 1
 -15 149 l 1
 13 255 l 1
 439 683 l 1
 502 683 l 1
 384 248 l 1
 453 248 l 1x40
53 248 m 1x80
 256 248 l 1
 335 527 l 1
 53 248 l 1x80
EndSplineSet
KernsSLIFO: 18 -50 0 0 24 -21 0 0
EndChar
StartChar: five
Encoding: 53 53 22
Width: 499
Flags: W
HStem: -13 39<120 173> 560 109<203 451>
VStem: 308 104<189 250>
Back
433.432 675.182 m 1
 394.094 580.055 l 1
 389.088 570.042 377.643 565.75 359.048 565.75 c 2
 184.531 565.75 l 1
 155.206 505.671 l 1
 208.134 496.372 251.048 482.783 284.663 463.472 c 0
 318.279 444.876 345.458 424.135 364.769 401.247 c 0
 372.638 391.233 379.789 379.789 386.941 365.485 c 0
 393.379 351.18 399.101 336.16 404.107 321.14 c 0
 409.114 305.405 412.689 288.955 415.551 273.219 c 0
 417.696 256.77 419.128 242.464 419.128 228.16 c 0
 419.128 154.491 391.948 95.126 338.306 51.4971 c 0
 285.378 9.29785 224.583 -11.4434 155.206 -11.4434 c 0
 66.5166 -11.4434 22.1719 11.4434 22.1719 57.2188 c 0
 22.1719 73.6689 27.8945 85.8281 39.3379 94.4111 c 0
 51.4971 102.994 62.2256 107.285 72.9541 107.285 c 0
 97.9873 107.285 124.451 95.8418 153.774 72.9541 c 0
 175.947 56.5039 195.26 48.6357 210.994 48.6357 c 0
 246.756 48.6357 275.365 65.0859 296.106 97.9873 c 0
 315.418 127.312 325.432 163.788 325.432 208.134 c 0
 325.432 272.504 296.106 321.14 237.457 354.757 c 0
 211.709 368.346 185.246 379.074 157.352 386.941 c 0
 129.457 394.809 101.563 398.386 72.9541 398.386 c 0
 59.3643 398.386 52.9277 405.537 52.9277 419.128 c 2
 52.9277 426.28 l 1
 159.498 665.169 l 1
 364.769 665.169 l 2
 376.213 665.169 389.803 675.896 405.537 697.354 c 1
 433.432 675.182 l 1
EndSplineSet
Fore
196 560 m 1
 163 483 l 1
 255 464 283 456 316 434 c 0
 378 393 412 328 412 250 c 0
 412 103 284 -13 120 -13 c 0
 41 -13 -12 19 -12 66 c 0
 -12 100 15 123 48 123 c 0
 78 123 95 110 119 70 c 0
 141 37 152 26 173 26 c 0
 243 26 308 104 308 189 c 0
 308 253 271 311 209 341 c 0
 171 362 139 369 73 372 c 1
 204 669 l 1
 486 669 l 1
 451 560 l 1
 196 560 l 1
EndSplineSet
KernsSLIFO: 21 -12 0 0 18 -56 0 0 24 -37 0 0
EndChar
StartChar: six
Encoding: 54 54 23
Width: 499
Flags: W
HStem: -15 33<182 200> 382 40<250 293>
VStem: 23 112<95 195> 319 123<250 315>
Back
342.598 181.669 m 0
 342.598 302.544 304.69 363.339 228.16 363.339 c 0
 213.14 363.339 198.835 361.908 186.676 358.333 c 0
 174.518 354.757 163.788 348.319 155.206 339.737 c 1
 152.345 331.153 149.484 319.71 146.624 305.405 c 0
 143.762 291.1 142.332 274.65 142.332 254.623 c 0
 142.332 232.45 143.762 208.134 146.624 183.1 c 0
 149.484 158.066 154.491 134.464 162.358 113.723 c 0
 170.226 92.2656 181.669 75.0996 196.688 60.7949 c 0
 212.426 46.4902 231.735 39.3379 254.623 39.3379 c 0
 271.789 39.3379 285.378 43.6289 296.822 51.4971 c 0
 307.551 59.3643 316.85 69.3779 324.001 82.9668 c 0
 330.438 95.8418 335.445 110.861 338.306 128.027 c 0
 341.167 145.192 342.598 163.073 342.598 181.669 c 0
452.743 219.576 m 0
 452.743 187.392 447.736 157.352 438.438 128.742 c 0
 429.141 100.848 415.551 75.8145 397.67 55.0732 c 0
 379.789 33.6162 357.618 17.8809 331.153 5.72168 c 0
 304.69 -5.72168 274.65 -11.4434 240.318 -11.4434 c 0
 199.55 -11.4434 165.219 -2.86133 138.04 14.3047 c 0
 110.146 32.1855 88.6895 55.0732 71.5234 83.6826 c 0
 55.0732 111.576 42.9141 143.762 35.7617 180.239 c 0
 28.6094 216.001 25.0332 252.478 25.0332 288.239 c 0
 25.0332 341.167 35.7617 391.233 57.9336 437.724 c 0
 80.1064 484.93 109.431 525.697 146.624 560.743 c 0
 183.814 596.506 226.729 623.684 276.081 644.426 c 0
 325.432 665.169 376.928 675.182 430.57 675.182 c 1
 436.294 637.274 l 1
 366.2 624.4 307.551 597.936 261.062 557.167 c 0
 213.854 517.114 182.385 464.902 165.219 401.247 c 1
 172.372 405.537 178.809 408.399 183.814 410.544 c 0
 189.538 413.406 195.975 416.267 203.842 419.128 c 0
 226.729 427.71 248.901 432.002 269.644 432.002 c 0
 297.537 432.002 323.286 426.995 346.173 416.267 c 0
 369.061 405.537 388.373 390.519 404.107 371.207 c 0
 419.843 352.611 432.002 329.724 439.869 303.976 c 0
 448.451 278.226 452.743 250.331 452.743 219.576 c 0
EndSplineSet
Fore
502 680 m 1
 508 655 l 1
 374 603 291 530 231 409 c 1
 261 419 272 422 293 422 c 0
 387 422 442 357 442 250 c 0
 442 103 334 -15 196 -15 c 0
 88 -15 23 64 23 195 c 0
 23 335 98 475 224 568 c 0
 305 628 369 653 502 680 c 1
250 382 m 0
 220 382 209 374 189 319 c 0
 157 237 135 148 135 95 c 0
 135 42 152 18 190 18 c 0
 215 18 237 32 250 56 c 0
 284 119 319 253 319 315 c 0
 319 360 297 382 250 382 c 0
EndSplineSet
KernsSLIFO: 21 1 0 0 18 -51 0 0 24 -31 0 0
EndChar
StartChar: seven
Encoding: 55 55 24
Width: 499
Flags: W
HStem: 0 21G<53 144> 557 112<144 384>
Back
451.312 631.552 m 1
 248.901 -5.72168 l 1
 159.498 -5.72168 l 1
 345.458 568.612 l 1
 159.498 568.612 l 2
 135.18 568.612 115.868 562.174 100.848 550.731 c 0
 97.9873 548.585 92.9805 542.147 85.8281 531.419 c 0
 78.6758 520.691 68.6621 505.671 57.2188 484.93 c 1
 17.8809 502.094 l 1
 79.3906 663.737 l 1
 451.312 663.737 l 1
 451.312 631.552 l 1
EndSplineSet
Fore
83 479 m 1
 57 479 l 1
 144 669 l 1
 524 669 l 1
 144 0 l 1
 53 0 l 1
 384 557 l 1
 250 557 l 2
 146 557 120 543 83 479 c 1
EndSplineSet
KernsSLIFO: 27 -89 0 0 13 -79 0 0 25 -45 0 0 22 -59 0 0 21 -78 0 0 18 -42 0 0 15 -81 0 0 24 -26 0 0 23 -59 0 0 20 -41 0 0 19 -29 0 0
EndChar
StartChar: eight
Encoding: 56 56 25
Width: 499
Flags: W
HStem: -13 31<183 211> 650 33<290 313>
VStem: 3 97<139 154> 108 112<499 554> 306 113<146 193> 382 94<530 556>
Back
304.69 531.419 m 0
 304.69 557.167 297.537 577.909 283.948 594.36 c 0
 268.212 615.102 246.041 625.115 216.716 625.115 c 0
 193.113 625.115 173.802 617.963 157.352 602.228 c 0
 141.616 586.493 133.033 565.75 133.033 539.287 c 0
 133.033 494.942 166.65 449.883 233.167 402.677 c 1
 243.896 411.26 253.193 419.843 261.775 427.71 c 0
 269.644 435.577 274.65 440.584 276.796 444.161 c 0
 295.392 468.479 304.69 497.804 304.69 531.419 c 0
317.564 133.033 m 0
 317.564 166.65 308.266 192.398 290.385 210.994 c 0
 282.518 219.576 270.358 231.021 253.193 244.61 c 0
 236.742 258.2 216.001 274.65 190.253 294.677 c 1
 177.379 281.803 168.795 272.504 163.788 267.497 c 0
 159.498 261.775 155.921 257.484 153.774 253.193 c 0
 145.908 242.464 140.186 229.59 135.895 213.14 c 0
 132.318 196.688 130.173 180.239 130.173 162.358 c 0
 130.173 127.312 139.471 97.9873 156.637 74.3848 c 0
 174.518 51.4971 199.55 39.3379 231.735 39.3379 c 0
 256.77 39.3379 277.511 48.6357 293.962 65.8018 c 0
 309.697 83.6826 317.564 105.854 317.564 133.033 c 0
413.406 156.637 m 0
 413.406 127.312 407.684 102.278 397.67 81.5371 c 0
 387.656 60.0801 373.353 42.9141 356.187 29.3242 c 0
 338.306 15.7354 317.564 5.72168 294.677 -1.43066 c 0
 271.074 -8.58301 246.041 -11.4434 219.576 -11.4434 c 0
 195.26 -11.4434 171.657 -7.86719 149.484 -0.714844 c 0
 126.597 6.4375 107.285 17.166 90.1191 31.4707 c 0
 72.9541 45.7754 59.3643 62.9404 49.3516 82.9668 c 0
 38.623 102.994 33.6162 125.881 33.6162 152.345 c 0
 33.6162 173.802 35.7617 191.683 39.3379 206.702 c 0
 43.6289 221.008 49.3516 233.882 56.5039 245.324 c 0
 63.6562 256.77 72.9541 267.497 84.3975 277.511 c 0
 95.126 287.524 108.716 298.969 123.021 311.843 c 0
 125.881 313.987 129.457 316.133 132.318 318.994 c 0
 135.895 322.571 140.901 326.146 146.624 331.153 c 1
 141.616 336.875 136.609 342.598 131.604 346.888 c 0
 126.597 351.895 122.305 356.901 117.299 361.908 c 0
 104.424 373.353 92.9805 384.796 83.6826 394.809 c 0
 73.6689 404.822 65.8018 415.551 59.3643 426.995 c 0
 52.9277 438.438 47.9209 450.598 44.3447 464.902 c 0
 41.4834 479.206 39.3379 496.372 39.3379 515.685 c 0
 39.3379 540.718 44.3447 563.605 55.0732 582.916 c 0
 65.0859 602.228 78.6758 619.394 95.8418 632.982 c 0
 113.007 646.571 132.318 657.3 154.491 664.452 c 0
 176.662 671.604 199.55 675.182 222.438 675.182 c 0
 245.324 675.182 266.782 672.319 287.524 666.599 c 0
 308.982 660.877 327.577 651.578 343.312 639.419 c 0
 359.762 627.261 372.638 611.524 381.935 592.929 c 0
 390.519 574.333 395.525 552.876 395.525 527.127 c 0
 395.525 487.075 384.796 455.604 363.339 432.002 c 0
 341.882 408.399 314.703 386.941 281.088 366.2 c 1
 285.378 362.624 289.67 358.333 294.677 354.041 c 0
 298.969 349.034 303.976 345.458 308.982 341.167 c 0
 324.717 328.292 339.021 316.133 351.895 303.976 c 0
 364.054 291.816 375.498 278.226 384.796 264.637 c 0
 394.094 250.331 400.532 234.597 405.537 217.432 c 0
 410.544 200.266 413.406 180.239 413.406 156.637 c 0
EndSplineSet
Fore
333 381 m 1xf4
 333 376 l 1
 394 309 419 256 419 193 c 0xf8
 419 75 325 -13 196 -13 c 0
 82 -13 3 54 3 152 c 0
 3 237 59 296 183 340 c 1
 183 346 l 1
 127 404 108 441 108 499 c 0
 108 605 190 683 300 683 c 0
 354 683 409 662 442 628 c 0
 464 605 476 576 476 541 c 0
 476 469 437 425 333 381 c 1xf4
209 321 m 1
 193 311 193 311 190 308 c 0
 129 262 100 209 100 141 c 0
 100 64 138 18 199 18 c 0
 261 18 306 72 306 146 c 0
 306 199 294 220 209 321 c 1
311 403 m 1
 368 463 382 494 382 543 c 0xf4
 382 608 352 650 302 650 c 0
 253 650 220 609 220 554 c 0
 220 504 242 469 311 403 c 1
EndSplineSet
KernsSLIFO: 21 -3 0 0 18 -51 0 0 24 -12 0 0
EndChar
StartChar: nine
Encoding: 57 57 26
Width: 499
Flags: W
HStem: 245 44<204 243> 650 33<299 321>
VStem: 53 124<352 412> 363 112<476 582>
Back
339.737 392.663 m 2
 339.737 547.869 303.259 625.115 230.306 625.115 c 0
 171.657 625.115 142.332 572.902 142.332 468.479 c 0
 142.332 449.883 143.762 430.57 147.338 409.114 c 0
 150.914 388.373 155.921 369.775 163.788 353.326 c 0
 171.657 336.16 182.385 322.571 195.975 311.126 c 0
 210.279 299.684 227.444 294.677 248.901 294.677 c 0
 278.941 294.677 306.836 304.69 331.153 325.432 c 1
 336.875 328.292 339.737 337.591 339.737 354.757 c 2
 339.737 392.663 l 2
458.465 394.094 m 0
 458.465 282.518 424.135 189.538 356.187 114.438 c 0
 276.796 25.0332 177.379 -19.3115 58.6494 -19.3115 c 1
 52.9277 23.6025 l 1
 85.8281 27.1787 116.583 36.4766 145.908 50.0664 c 0
 174.518 63.6562 200.98 80.8213 223.868 101.563 c 0
 247.471 123.021 268.212 146.624 285.378 173.087 c 0
 303.259 199.55 316.85 227.444 326.863 257.484 c 1
 290.385 238.174 252.478 228.16 212.426 228.16 c 0
 156.637 228.16 111.576 248.901 75.8145 290.385 c 0
 45.0596 326.863 29.3242 374.067 29.3242 430.57 c 0
 29.3242 497.804 47.2051 555.021 82.252 600.797 c 0
 101.563 625.83 124.451 644.426 151.63 657.3 c 0
 178.809 669.459 208.134 675.182 240.318 675.182 c 0
 311.843 675.182 366.915 644.426 406.969 582.916 c 0
 441.3 528.559 458.465 465.617 458.465 394.094 c 0
EndSplineSet
Fore
-6 -10 m 1
 -12 15 l 1
 110 53 204 135 265 259 c 1
 242 248 226 245 204 245 c 0
 114 245 53 312 53 412 c 0
 53 564 161 683 299 683 c 0
 349 683 388 668 417 639 c 0
 454 601 475 542 475 476 c 0
 475 334 398 190 272 100 c 0
 193 40 129 15 -6 -10 c 1
313 650 m 0
 283 650 256 630 234 589 c 0
 204 527 177 416 177 352 c 0
 177 311 201 289 243 289 c 0
 286 289 293 297 319 376 c 0
 346 450 346 450 353 491 c 0
 359 524 363 561 363 582 c 0
 363 628 347 650 313 650 c 0
EndSplineSet
KernsSLIFO: 21 -18 0 0 18 -66 0 0 24 -12 0 0
EndChar
StartChar: colon
Encoding: 58 58 27
Width: 332
Flags: W
HStem: -13 148<86 104> 311 147<182 200>
Back
35.0469 404.107 m 0
 35.0469 385.512 40.0527 369.775 50.7812 357.618 c 0
 60.7949 344.743 74.3848 338.306 90.835 338.306 c 0
 107.285 338.306 120.875 344.743 131.604 357.618 c 0
 142.332 369.775 148.053 385.512 148.053 404.107 c 0
 148.053 422.703 142.332 438.438 131.604 451.312 c 0
 120.875 464.188 107.285 469.909 90.835 469.909 c 0
 74.3848 469.909 60.7949 464.188 50.7812 451.312 c 0
 40.0527 438.438 35.0469 422.703 35.0469 404.107 c 0
35.0469 57.2188 m 0
 35.0469 38.623 40.0527 22.8877 50.7812 10.0137 c 0
 60.7949 -2.14551 74.3848 -8.58301 90.835 -8.58301 c 0
 107.285 -8.58301 120.875 -2.14551 131.604 10.0137 c 0
 142.332 22.8877 148.053 38.623 148.053 57.2188 c 0
 148.053 75.8145 142.332 91.5498 131.604 103.709 c 0
 120.875 116.583 107.285 123.021 90.835 123.021 c 0
 74.3848 123.021 60.7949 116.583 50.7812 103.709 c 0
 40.0527 91.5498 35.0469 75.8145 35.0469 57.2188 c 0
EndSplineSet
Fore
98 135 m 0
 138 135 171 101 171 62 c 0
 171 19 138 -13 97 -13 c 0
 56 -13 23 19 23 62 c 0
 23 103 56 135 98 135 c 0
190 458 m 0
 231 458 264 425 264 385 c 0
 264 343 231 311 189 311 c 0
 148 311 116 343 116 385 c 0
 116 428 149 458 190 458 c 0
EndSplineSet
EndChar
StartChar: semicolon
Encoding: 59 59 28
Width: 332
Flags: W
HStem: 311 147<177 200>
Back
114.438 120.159 m 0
 111.576 122.305 107.285 123.021 102.278 123.735 c 0
 97.9873 124.451 92.9805 124.451 87.9736 124.451 c 0
 71.5234 124.451 57.2188 118.729 44.3447 107.285 c 0
 32.1855 95.126 26.4639 80.8213 26.4639 62.9404 c 0
 26.4639 46.4902 32.1855 32.1855 44.3447 20.7422 c 0
 57.2188 8.58301 71.5234 2.86133 87.9736 2.86133 c 0
 94.4111 2.86133 102.994 3.57617 113.007 5.72168 c 1
 113.007 -1.43066 l 2
 113.007 -16.4502 107.285 -30.04 96.5566 -43.6289 c 0
 85.8281 -57.9336 74.3848 -68.6621 61.5098 -77.9609 c 0
 55.7881 -82.252 50.7812 -85.8281 47.9209 -87.2588 c 0
 44.3447 -88.6895 42.1992 -89.4043 42.1992 -89.4043 c 1
 55.7881 -127.312 l 1
 55.7881 -127.312 61.5098 -124.451 72.9541 -118.729 c 0
 85.1133 -113.007 97.9873 -103.709 113.007 -90.835 c 0
 127.312 -77.9609 140.901 -62.2256 152.345 -43.6289 c 0
 163.788 -25.0332 170.226 -2.86133 170.226 23.6025 c 0
 170.226 48.6357 164.504 69.3779 153.06 85.8281 c 0
 141.616 101.563 128.742 113.007 114.438 120.159 c 0
27.8945 409.829 m 0
 27.8945 391.233 32.9004 376.213 42.9141 363.339 c 0
 53.6426 350.465 67.2324 344.027 83.6826 344.027 c 0
 100.133 344.027 113.723 350.465 124.451 363.339 c 0
 135.18 376.213 140.901 391.233 140.901 409.829 c 0
 140.901 428.425 135.18 444.161 124.451 457.035 c 0
 113.723 469.909 100.133 476.346 83.6826 476.346 c 0
 67.2324 476.346 53.6426 469.909 42.9141 457.035 c 0
 32.9004 444.161 27.8945 428.425 27.8945 409.829 c 0
EndSplineSet
Fore
-12 -183 m 1
 -25 -160 l 1
 53 -117 92 -78 92 -42 c 0
 92 -28 86 -18 63 -3 c 0
 34 18 23 34 23 60 c 0
 23 103 53 133 94 133 c 0
 145 133 179 94 179 35 c 0
 179 -45 104 -132 -12 -183 c 1
190 458 m 0
 231 458 264 425 264 385 c 0
 264 343 231 311 189 311 c 0
 148 311 116 343 116 385 c 0
 116 428 149 458 190 458 c 0
EndSplineSet
EndChar
StartChar: less
Encoding: 60 60 29
Width: 569
Flags: W
Back
522.837 -12.874 m 1
 2.86133 222.438 l 1
 2.86133 297.537 l 1
 522.837 534.995 l 1
 522.837 454.175 l 1
 97.9873 261.062 l 1
 522.837 67.2324 l 1
 522.837 -12.874 l 1
EndSplineSet
Fore
539 -12 m 1
 31 211 l 1
 31 294 l 1
 539 519 l 1
 539 422 l 1
 154 253 l 1
 539 83 l 1
 539 -12 l 1
EndSplineSet
EndChar
StartChar: equal
Encoding: 61 61 30
Width: 569
Flags: W
HStem: 107 88<34 538> 311 87<34 538>
Back
562.174 306.12 m 1
 45.0596 306.12 l 1
 45.0596 376.213 l 1
 562.174 376.213 l 1
 562.174 306.12 l 1
562.174 120.159 m 1
 45.0596 120.159 l 1
 45.0596 190.253 l 1
 562.174 190.253 l 1
 562.174 120.159 l 1
EndSplineSet
Fore
538 398 m 1
 538 311 l 1
 34 311 l 1
 34 398 l 1
 538 398 l 1
538 195 m 1
 538 107 l 1
 34 107 l 1
 34 195 l 1
 538 195 l 1
EndSplineSet
EndChar
StartChar: greater
Encoding: 62 62 31
Width: 569
Flags: W
Back
562.174 222.438 m 1
 42.1992 -12.874 l 1
 42.1992 67.2324 l 1
 465.617 261.062 l 1
 42.1992 454.175 l 1
 42.1992 534.995 l 1
 562.174 297.537 l 1
 562.174 222.438 l 1
EndSplineSet
Fore
31 -12 m 1
 31 83 l 1
 416 253 l 1
 31 422 l 1
 31 519 l 1
 539 294 l 1
 539 211 l 1
 31 -12 l 1
EndSplineSet
EndChar
StartChar: question
Encoding: 63 63 32
Width: 499
Flags: W
HStem: -13 148<142 160> 653 31<270 294>
VStem: 79 148<62 68> 119 123<544 557> 343 127<539 573>
Back
373.353 517.114 m 0
 373.353 537.857 370.492 557.882 364.769 577.194 c 0
 359.048 596.506 349.034 615.102 335.445 632.982 c 0
 316.133 656.585 292.531 672.319 265.352 680.188 c 0
 237.457 688.771 211.709 693.062 187.392 693.062 c 0
 165.219 693.062 143.762 689.485 123.021 681.618 c 0
 102.278 674.466 84.3975 663.737 69.3779 650.148 c 0
 54.3574 636.559 42.1992 620.108 32.9004 601.513 c 0
 23.6025 582.201 19.3115 560.743 19.3115 537.857 c 0
 19.3115 512.107 25.748 493.512 38.623 481.353 c 0
 52.2119 469.193 65.8018 462.757 80.8213 462.757 c 0
 94.4111 462.757 105.854 467.049 115.868 475.631 c 0
 125.166 483.498 130.173 496.372 130.173 512.823 c 2
 130.173 517.114 l 2
 130.173 524.267 128.742 532.134 125.166 541.433 c 0
 121.59 550.731 115.868 558.599 108.716 565.75 c 0
 103.709 570.042 100.133 575.048 97.2715 580.055 c 0
 95.126 585.062 93.6953 588.637 93.6953 590.068 c 0
 93.6953 602.228 101.563 612.956 117.299 623.684 c 0
 125.166 628.69 133.749 632.268 143.047 635.129 c 0
 152.345 637.274 160.928 638.704 168.795 638.704 c 0
 197.405 638.704 220.293 627.976 236.027 606.518 c 0
 251.763 585.062 258.915 557.882 258.915 525.697 c 0
 258.915 506.386 256.77 484.93 251.763 460.61 c 0
 246.756 437.009 238.174 410.544 225.3 382.649 c 2
 199.55 321.14 l 2
 179.524 273.219 170.226 220.293 170.226 162.358 c 1
 210.994 162.358 l 1
 221.723 219.576 231.021 254.623 238.889 269.644 c 0
 247.471 285.378 256.77 299.684 267.497 313.272 c 0
 277.511 326.863 288.239 341.167 298.969 354.757 c 0
 326.146 385.512 345.458 414.836 356.901 442.015 c 0
 367.631 469.909 373.353 494.942 373.353 517.114 c 0
128.742 57.2188 m 0
 128.742 39.3379 135.18 24.3184 147.338 12.1592 c 0
 159.498 0 174.518 -5.72168 191.683 -5.72168 c 0
 209.563 -5.72168 224.583 0 237.457 12.1592 c 0
 250.331 24.3184 256.055 39.3379 256.055 57.2188 c 0
 256.055 74.3848 250.331 90.1191 237.457 102.278 c 0
 224.583 115.152 209.563 121.59 191.683 121.59 c 0
 174.518 121.59 159.498 115.152 147.338 102.278 c 0
 135.18 90.1191 128.742 74.3848 128.742 57.2188 c 0
EndSplineSet
Fore
196 208 m 1xd8
 167 215 l 1
 171 270 192 316 237 374 c 2
 278 425 l 2
 324 480 343 526 343 573 c 0
 343 623 316 653 274 653 c 0
 242 653 212 634 212 615 c 0
 212 609 215 603 223 593 c 0
 236 576 242 562 242 546 c 0
 242 516 214 488 180 488 c 0
 146 488 119 517 119 555 c 0
 119 630 193 684 294 684 c 0
 398 684 470 625 470 539 c 0
 470 478 434 428 344 369 c 2
 278 327 l 2
 240 300 224 278 196 208 c 1xd8
154 135 m 0
 193 135 227 101 227 62 c 0
 227 19 193 -13 152 -13 c 0
 111 -13 79 19 79 62 c 0xe8
 79 103 111 135 154 135 c 0
EndSplineSet
EndChar
StartChar: at
Encoding: 64 64 33
Width: 832
Flags: W
HStem: -18 46<430 464> 144 46<365 407> 646 40<437 452>
VStem: 63 91<301 351> 272 77<256 277> 491 69<215 224> 724 46<365 401>
Back
437.724 281.088 m 0
 445.591 301.113 452.743 319.71 458.465 339.021 c 0
 464.188 358.333 467.049 377.643 467.049 396.955 c 0
 467.049 429.855 458.465 447.021 440.584 447.021 c 0
 407.684 447.021 379.789 426.995 357.618 386.941 c 0
 346.888 366.915 338.306 348.319 331.868 330.438 c 0
 325.432 312.558 322.571 293.246 322.571 273.936 c 0
 322.571 228.875 337.591 206.702 369.061 206.702 c 0
 393.379 206.702 416.267 231.735 437.724 281.088 c 0
723.817 379.074 m 0
 723.817 319.71 707.366 266.782 675.182 219.576 c 0
 639.419 163.788 590.783 135.895 529.988 135.895 c 0
 513.538 135.895 499.233 139.471 487.79 145.908 c 0
 476.346 152.345 464.902 160.928 454.175 171.657 c 0
 451.312 175.232 448.451 178.809 446.307 182.385 c 0
 443.444 185.961 441.301 189.538 439.154 193.113 c 1
 416.267 171.657 l 2
 404.107 161.644 391.233 153.06 376.928 146.624 c 0
 363.339 139.471 349.034 135.895 335.445 135.895 c 0
 303.259 135.895 277.511 148.053 257.484 170.94 c 0
 238.174 193.828 228.16 226.729 228.16 271.074 c 0
 228.16 316.85 243.896 366.2 275.365 419.128 c 0
 313.272 483.498 366.2 515.685 433.432 515.685 c 0
 451.312 515.685 464.188 511.393 472.056 504.24 c 0
 480.638 496.372 487.075 489.22 492.082 483.498 c 1
 496.372 500.664 l 1
 594.36 500.664 l 1
 525.697 241.749 l 1
 524.267 218.146 l 1
 524.267 202.412 531.419 194.543 546.439 194.543 c 0
 565.035 194.543 580.77 200.98 594.36 213.854 c 0
 608.664 226.729 620.108 242.464 629.407 261.062 c 0
 638.704 278.941 645.142 298.969 650.148 321.14 c 0
 655.155 342.598 658.016 361.193 658.016 377.643 c 0
 658.016 411.975 650.148 444.161 635.129 474.199 c 0
 620.108 503.525 600.082 529.273 575.763 551.446 c 0
 551.446 573.618 522.837 590.783 491.365 602.942 c 0
 459.896 615.102 427.71 620.823 395.525 620.823 c 0
 351.895 620.823 313.987 612.241 281.803 595.79 c 0
 250.331 578.625 223.868 555.738 203.127 526.412 c 0
 181.669 497.804 165.934 464.188 155.921 426.28 c 0
 145.908 388.373 140.901 348.319 140.901 306.12 c 0
 140.901 270.358 148.053 236.027 161.644 204.557 c 0
 175.947 172.372 195.26 145.192 218.861 122.305 c 0
 243.181 99.418 271.074 81.5371 302.544 67.9473 c 0
 334.014 55.0732 368.346 48.6357 404.107 48.6357 c 0
 464.188 48.6357 529.273 65.0859 600.797 99.418 c 1
 622.254 47.2051 l 1
 577.909 27.1787 537.141 12.874 501.379 2.86133 c 0
 466.332 -7.15234 434.147 -11.4434 405.537 -11.4434 c 0
 286.81 -11.4434 191.683 25.0332 120.159 99.418 c 0
 88.6895 131.604 66.5166 165.934 52.2119 203.127 c 0
 37.9072 239.604 30.7549 276.796 30.7549 314.703 c 0
 30.7549 418.413 65.0859 504.24 134.464 572.902 c 0
 205.987 640.85 293.246 675.182 395.525 675.182 c 0
 484.213 675.182 560.028 648.718 622.254 596.506 c 0
 690.2 541.433 723.817 469.193 723.817 379.074 c 0
EndSplineSet
Fore
545 463 m 1
 557 501 l 1
 627 501 l 1
 562 245 l 1
 560 237 560 233 560 224 c 0
 560 195 574 179 598 179 c 0
 627 179 653 196 677 230 c 0
 706 271 724 330 724 379 c 0
 724 524 595 646 437 646 c 0
 272 646 154 511 154 322 c 0
 154 151 277 28 450 28 c 0
 519 28 568 40 647 76 c 1
 661 41 l 1
 562 -4 511 -18 439 -18 c 0
 229 -18 63 133 63 328 c 0
 63 527 229 686 437 686 c 0
 624 686 770 555 770 387 c 0
 770 255 683 142 583 142 c 0
 535 142 492 176 491 217 c 1
 456 171 409 144 365 144 c 0
 313 144 272 193 272 256 c 0
 272 330 305 409 354 463 c 0
 387 497 431 516 473 516 c 0
 508 516 523 505 545 463 c 1
486 467 m 0
 461 469 428 450 398 417 c 0
 366 379 349 330 349 275 c 0
 349 223 371 190 407 190 c 0
 437 190 466 215 488 256 c 0
 508 297 526 357 527 401 c 0
 530 441 516 464 486 467 c 0
EndSplineSet
EndChar
StartChar: A
Encoding: 65 65 34
Width: 666
Flags: W
HStem: 0 25<129 129 289 299.667 576.5 593> 208 40<161 353>
Back
246.041 269.644 m 1
 424.85 269.644 l 1
 336.875 480.638 l 1
 246.041 269.644 l 1
710.228 0 m 1
 434.862 0 l 1
 434.862 42.1992 l 1
 474.916 42.1992 l 2
 483.498 42.1992 489.936 45.0596 494.227 50.0664 c 0
 498.519 54.3574 500.664 59.3643 500.664 62.9404 c 0
 500.664 70.8086 499.233 80.1064 495.657 91.5498 c 0
 492.082 102.994 488.505 113.007 483.498 123.021 c 2
 448.451 203.842 l 1
 219.576 203.842 l 1
 180.239 100.848 l 1
 175.232 91.5498 173.087 80.8213 173.087 70.0928 c 0
 173.087 51.4971 194.543 42.1992 237.457 42.1992 c 1
 237.457 0 l 1
 16.4502 0 l 1
 16.4502 42.1992 l 1
 32.9004 42.1992 47.9209 47.9209 61.5098 57.9336 c 0
 75.0996 67.9473 85.8281 80.8213 93.6953 96.5566 c 1
 332.584 662.307 l 1
 386.941 662.307 l 1
 623.684 118.729 l 2
 637.989 88.6895 650.148 67.9473 661.592 57.9336 c 0
 672.319 47.9209 688.771 42.1992 710.228 42.1992 c 1
 710.228 0 l 1
EndSplineSet
Fore
593 25 m 1
 593 0 l 1
 289 0 l 1
 289 25 l 1
 353 31 368 42 368 83 c 0
 368 97 366 117 360 157 c 0
 359 163 356 185 353 208 c 1
 138 208 l 1
 79 105 l 2
 69 89 64 73 64 60 c 0
 64 37 83 25 129 25 c 1
 129 0 l 1
 -67 0 l 1
 -67 25 l 1
 -31 34 -16 45 16 95 c 1
 388 683 l 1
 413 683 l 1
 508 111 l 1
 521 35 527 29 593 25 c 1
161 248 m 1
 346 248 l 1
 309 491 l 1
 161 248 l 1
EndSplineSet
KernsSLIFO: 256 -63 2 0 270 -53 2 0 272 -60 2 0 273 -60 2 0 274 -60 2 0 271 -60 2 0 282 -28 2 0 36 -60 2 0 40 -59 2 0 48 -53 2 0 50 -53 2 0 53 -32 2 0 54 -60 2 0 55 -110 2 0 56 -107 2 0 58 -44 2 0 66 -4 2 0 68 -19 2 0 69 -4 2 0 70 -25 2 0 72 -19 2 0 340 -57 2 0 342 -67 2 0 14 -22 2 0 80 -22 2 0 82 -18 2 0 116 -78 2 0 114 -100 2 0 85 -3 2 0 86 -18 2 0 87 -50 2 0 88 -56 2 0 90 -66 2 0
EndChar
StartChar: B
Encoding: 66 66 35
Width: 666
Flags: W
HStem: 0 25<-23 -15.3333> 0 32<248 277> 637 32<116 394> 645 24<116 128>
VStem: 419 154<207 229> 478 146<521 538>
Back
461.325 482.068 m 0
 461.325 562.174 409.829 602.228 307.551 602.228 c 2
 265.352 602.228 l 2
 260.345 602.228 257.484 596.506 257.484 584.347 c 2
 257.484 376.213 l 1
 335.445 377.643 l 2
 419.128 379.789 461.325 414.836 461.325 482.068 c 0
482.068 185.961 m 0
 482.068 248.187 448.451 288.239 382.649 304.69 c 0
 357.618 310.412 316.133 313.272 257.484 313.272 c 1
 257.484 89.4043 l 2
 257.484 76.5303 262.49 67.9473 272.504 62.9404 c 2
 271.074 62.9404 l 2
 281.088 60.7949 296.106 60.0801 317.564 60.0801 c 0
 426.995 60.0801 482.068 102.278 482.068 185.961 c 0
625.115 181.669 m 0
 623.684 125.166 601.513 80.8213 559.313 48.6357 c 0
 517.83 16.4502 462.042 0 394.094 0 c 2
 33.6162 0 l 1
 33.6162 43.6289 l 1
 70.8086 43.6289 95.126 48.6357 108 57.2188 c 0
 120.159 65.8018 125.881 85.8281 125.881 117.299 c 2
 125.881 545.008 l 2
 125.881 564.32 124.451 580.055 121.59 592.214 c 0
 118.729 604.373 108.716 611.524 92.2656 613.671 c 2
 33.6162 620.823 l 1
 33.6162 662.307 l 1
 331.153 662.307 l 2
 505.671 662.307 592.929 603.657 592.929 487.79 c 0
 592.929 462.042 588.637 440.584 578.625 421.988 c 0
 568.612 403.393 556.453 386.941 540.718 373.353 c 0
 535.711 368.346 529.273 364.769 521.406 361.193 c 0
 513.538 357.618 505.671 354.041 496.372 349.75 c 1
 582.201 319.71 625.115 263.922 625.115 181.669 c 0
EndSplineSet
Fore
116 645 m 1x98
 116 669 l 1
 388 669 l 2
 543 669 624 620 624 523 c 0x24
 624 482 606 442 577 417 c 0
 542 388 511 374 435 354 c 1
 536 322 573 284 573 207 c 0
 573 78 460 0 277 0 c 2x68
 -23 0 l 1
 -23 25 l 1
 23 31 40 45 56 97 c 1
 179 546 l 2
 185 571 189 593 189 603 c 0
 189 615 182 628 173 633 c 0
 161 640 152 642 116 645 c 1x98
270 338 m 1
 204 94 l 1
 201 81 198 72 198 64 c 0
 198 42 217 32 255 32 c 0
 299 32 333 45 360 72 c 0
 395 108 419 171 419 229 c 0x48
 419 267 407 294 385 313 c 0
 365 330 335 335 270 338 c 1
338 593 m 2
 277 368 l 1
 352 371 385 378 416 398 c 0
 456 423 478 472 478 536 c 0
 478 603 448 637 390 637 c 0x24
 357 637 349 628 338 593 c 2
EndSplineSet
KernsSLIFO: 231 -40 2 0 251 -34 2 0 252 -34 2 0 254 -34 2 0 255 -34 2 0 253 -34 2 0 232 -19 2 0 267 -22 2 0 268 -22 2 0 270 -22 2 0 266 -22 2 0 306 -22 2 0 34 -34 2 0 48 -22 2 0 55 -45 2 0 56 -45 2 0 58 -50 2 0
EndChar
StartChar: C
Encoding: 67 67 36
Width: 666
Flags: W
HStem: -18 53<305 335> 650 36<439 466>
VStem: 32 154<209 242>
Back
637.274 121.59 m 1
 629.407 108 620.108 95.126 608.664 83.6826 c 0
 597.221 71.5234 582.916 60.0801 565.75 48.6357 c 0
 537.141 28.6094 506.386 13.5898 472.056 3.57617 c 0
 438.438 -6.4375 402.677 -11.4434 364.769 -11.4434 c 0
 313.272 -11.4434 266.067 -4.29102 223.868 10.7285 c 0
 182.385 26.4639 146.624 48.6357 118.729 79.3906 c 0
 60.0801 141.616 30.7549 223.153 30.7549 324.001 c 0
 30.7549 418.413 62.2256 500.664 125.881 570.042 c 0
 155.921 602.228 190.253 625.83 227.444 641.564 c 0
 265.352 657.3 305.405 665.169 346.888 665.169 c 0
 360.479 665.169 374.782 664.452 389.803 663.022 c 0
 404.107 661.592 418.413 660.162 431.287 658.73 c 0
 444.876 657.3 455.604 655.155 464.902 653.725 c 0
 474.2 652.293 480.638 651.578 483.498 650.148 c 2
 542.147 632.982 l 1
 553.592 633.697 563.605 643.711 571.473 663.737 c 1
 620.823 663.737 l 1
 630.122 427.71 l 1
 577.194 427.71 l 1
 565.75 483.498 542.147 526.412 508.531 555.738 c 0
 474.2 585.776 431.287 600.797 379.074 600.797 c 0
 314.703 600.797 266.067 571.473 233.167 514.253 c 0
 217.432 487.79 205.272 459.181 195.975 427.71 c 0
 187.392 396.24 183.1 360.479 183.1 321.14 c 0
 183.1 282.518 187.392 248.187 195.26 216.716 c 0
 203.842 185.246 217.432 157.352 236.027 131.604 c 0
 253.193 107.285 274.65 87.9736 298.969 73.6689 c 0
 323.286 60.0801 354.041 52.9277 391.233 52.9277 c 0
 461.325 52.9277 531.419 86.543 602.228 153.774 c 1
 637.274 121.59 l 1
EndSplineSet
Fore
677 686 m 1
 625 451 l 1
 595 457 l 1
 596 470 598 479 598 492 c 0
 598 590 546 650 466 650 c 0
 425 650 387 634 349 603 c 0
 258 527 186 354 186 209 c 0
 186 100 242 35 335 35 c 0
 368 35 398 41 426 53 c 0
 469 70 497 94 546 152 c 1
 576 130 l 1
 543 86 527 69 498 47 c 0
 441 4 375 -18 305 -18 c 0
 141 -18 32 86 32 242 c 0
 32 483 217 686 439 686 c 0
 480 686 527 677 571 664 c 0
 586 659 601 656 609 656 c 0
 624 656 633 664 647 686 c 1
 677 686 l 1
EndSplineSet
KernsSLIFO: 231 -31 2 0 251 -23 2 0 254 -23 2 0 255 -23 2 0 267 -25 2 0 270 -25 2 0 34 -23 2 0 41 -25 2 0 44 -28 2 0 48 -25 2 0
EndChar
StartChar: D
Encoding: 68 68 37
Width: 720
Flags: W
HStem: 0 25<-45 -37> 0 34<212.808 244> 639 30<94 388>
VStem: 538 148<395 457>
Back
575.763 329.724 m 0
 575.763 420.558 548.585 488.505 494.942 534.995 c 0
 469.909 557.167 440.584 574.333 406.969 585.776 c 0
 374.067 597.936 333.299 603.657 285.378 603.657 c 0
 271.789 603.657 263.207 602.228 260.345 600.082 c 0
 256.77 597.221 254.623 589.354 254.623 575.763 c 2
 254.623 89.4043 l 2
 254.623 75.8145 260.345 67.2324 270.358 64.3711 c 0
 280.371 61.5098 290.385 60.0801 298.969 60.0801 c 0
 393.379 60.0801 463.472 82.252 508.531 127.312 c 0
 552.876 172.372 575.763 239.604 575.763 329.724 c 0
723.817 329.724 m 0
 723.817 285.378 716.665 246.041 703.791 210.279 c 0
 690.917 174.518 671.604 142.332 645.856 114.438 c 0
 578.625 37.9072 476.346 0 339.737 0 c 2
 36.4766 0 l 1
 36.4766 43.6289 l 1
 52.9277 43.6289 67.2324 45.0596 77.9609 47.2051 c 0
 88.6895 48.6357 97.2715 52.2119 103.709 57.2188 c 0
 110.861 62.2256 115.152 69.3779 118.014 79.3906 c 0
 120.159 88.6895 121.59 101.563 121.59 117.299 c 2
 121.59 546.439 l 2
 121.59 567.181 120.159 582.916 117.299 595.79 c 0
 114.438 607.949 105.14 614.387 89.4043 616.531 c 2
 36.4766 620.823 l 1
 36.4766 663.737 l 1
 325.432 663.737 l 2
 442.015 663.737 535.711 637.989 605.088 587.208 c 0
 683.765 531.419 723.817 445.591 723.817 329.724 c 0
EndSplineSet
Fore
94 645 m 1xb0
 94 669 l 1
 384 669 l 2
 573 669 686 567 686 395 c 0
 686 168 495 0 240 0 c 2x70
 -45 0 l 1
 -45 25 l 1
 3 31 19 45 34 97 c 1
 155 543 l 1
 163 576 167 592 167 602 c 0
 167 625 157 634 125 639 c 0
 122 640 108 642 94 645 c 1xb0
318 601 m 1
 190 126 l 1
 190 126 189 125 189 122 c 0
 180 97 177 81 177 67 c 0
 177 45 193 34 231 34 c 0
 327 34 397 70 450 146 c 0
 504 224 538 343 538 457 c 0
 538 579 483 639 374 639 c 0
 341 639 325 627 318 601 c 1
EndSplineSet
KernsSLIFO: 251 -53 2 0 252 -53 2 0 254 -53 2 0 250 -53 2 0 255 -53 2 0 253 -53 2 0 34 -53 2 0 43 -66 2 0 53 -26 2 0 55 -59 2 0 56 -57 2 0 57 -63 2 0 58 -63 2 0
EndChar
StartChar: E
Encoding: 69 69 38
Width: 666
Flags: W
HStem: 0 32<245 527> 637 32<113 423>
Back
635.844 187.392 m 1
 585.776 0 l 1
 36.4766 0 l 1
 36.4766 43.6289 l 1
 68.6621 43.6289 90.835 49.3516 101.563 59.3643 c 0
 113.007 69.3779 118.729 88.6895 118.729 117.299 c 2
 118.729 546.439 l 2
 118.729 568.612 117.299 585.062 114.438 594.36 c 0
 111.576 604.373 102.278 610.81 86.543 613.671 c 2
 36.4766 620.823 l 1
 36.4766 663.737 l 1
 580.055 663.737 l 1
 580.055 499.233 l 1
 524.267 499.233 l 1
 517.83 548.585 504.956 577.909 486.359 588.637 c 0
 467.049 598.65 434.862 603.657 391.233 603.657 c 2
 273.936 603.657 l 2
 266.782 603.657 261.775 600.797 258.2 594.36 c 0
 255.338 588.637 253.193 582.201 253.193 575.763 c 2
 253.193 380.505 l 1
 377.643 380.505 l 2
 413.406 380.505 434.862 385.512 444.161 394.094 c 0
 455.604 404.107 464.188 429.855 469.909 471.339 c 1
 528.559 471.339 l 1
 528.559 223.868 l 1
 469.909 223.868 l 1
 464.188 266.782 456.319 292.531 447.021 300.398 c 0
 437.724 308.982 414.836 313.272 377.643 313.272 c 2
 253.193 313.272 l 1
 253.193 90.835 l 2
 253.193 82.252 256.77 75.0996 263.207 69.3779 c 0
 268.929 64.3711 281.088 61.5098 297.537 61.5098 c 2
 374.782 61.5098 l 2
 430.57 61.5098 470.624 68.6621 494.942 83.6826 c 0
 509.963 92.2656 524.267 105.14 537.857 122.305 c 0
 551.446 139.471 563.605 160.928 574.333 187.392 c 1
 635.844 187.392 l 1
EndSplineSet
Fore
586 193 m 1
 527 0 l 1
 -26 0 l 1
 -26 25 l 1
 25 34 37 44 53 97 c 1
 176 546 l 2
 182 568 186 590 186 606 c 0
 186 627 174 636 144 639 c 0
 139 640 127 642 113 645 c 1
 113 669 l 1
 653 669 l 1
 609 479 l 1
 583 483 l 1
 583 546 576 571 554 595 c 0
 526 623 472 637 398 637 c 0
 357 637 346 628 335 593 c 1
 275 371 l 1
 407 369 434 382 480 476 c 1
 508 472 l 1
 434 199 l 1
 406 204 l 1
 409 223 410 234 410 248 c 0
 410 316 379 335 267 338 c 1
 209 129 l 1
 208 123 l 1
 207 116 205 108 204 104 c 0
 198 83 195 73 195 66 c 0
 195 42 212 32 256 32 c 0
 341 32 410 51 466 89 c 0
 505 117 526 142 561 199 c 1
 586 193 l 1
EndSplineSet
EndChar
StartChar: F
Encoding: 70 70 39
Width: 666
Flags: W
HStem: 0 25<268.75 283> 637 32<127 443>
Back
584.347 499.233 m 1
 527.127 499.233 l 1
 521.406 547.154 508.531 576.479 489.22 587.208 c 0
 469.909 597.221 438.438 602.228 395.525 602.228 c 2
 266.782 602.228 l 2
 256.77 602.228 251.763 594.36 251.763 580.055 c 2
 251.763 380.505 l 1
 373.353 380.505 l 2
 406.969 380.505 429.855 386.941 442.015 399.101 c 0
 454.89 411.26 462.757 434.862 465.617 469.909 c 1
 521.406 469.909 l 1
 521.406 222.438 l 1
 465.617 222.438 l 1
 462.757 258.915 454.89 283.232 441.3 296.822 c 0
 428.425 309.697 405.537 316.133 373.353 316.133 c 2
 251.763 316.133 l 1
 251.763 117.299 l 2
 251.763 88.6895 257.484 69.3779 269.644 59.3643 c 0
 281.088 49.3516 303.259 43.6289 335.445 43.6289 c 1
 335.445 0 l 1
 35.0469 0 l 1
 35.0469 43.6289 l 1
 72.9541 43.6289 97.2715 50.0664 107.285 61.5098 c 0
 113.723 71.5234 117.299 93.6953 117.299 128.742 c 2
 117.299 545.008 l 2
 117.299 560.743 115.868 572.902 113.723 581.486 c 0
 110.861 590.068 108 597.221 103.709 602.228 c 0
 100.133 607.234 96.5566 610.095 92.9805 611.524 c 0
 89.4043 612.956 87.2588 613.671 85.1133 613.671 c 2
 35.0469 620.823 l 1
 35.0469 662.307 l 1
 581.486 662.307 l 1
 584.347 499.233 l 1
EndSplineSet
Fore
516 472 m 1
 441 199 l 1
 413 204 l 1
 416 223 417 234 417 248 c 0
 417 316 387 335 280 338 c 1
 226 138 l 1
 226 135 224 129 223 122 c 0
 214 97 211 81 211 69 c 0
 211 38 226 29 283 25 c 1
 283 0 l 1
 -13 0 l 1
 -13 25 l 1
 40 34 51 44 67 97 c 1
 190 546 l 2
 196 568 201 592 201 606 c 0
 201 627 189 636 158 639 c 0
 152 640 141 642 127 645 c 1
 127 669 l 1
 661 669 l 1
 617 479 l 1
 590 483 l 1
 590 541 584 567 564 590 c 0
 538 621 486 637 413 637 c 0
 374 637 360 628 350 593 c 1
 289 371 l 1
 420 371 439 382 486 476 c 1
 516 472 l 1
EndSplineSet
KernsSLIFO: 251 -100 2 0 252 -100 2 0 254 -100 2 0 250 -100 2 0 255 -100 2 0 253 -100 2 0 270 -47 2 0 277 -75 2 0 280 -47 2 0 233 -82 2 0 281 -75 2 0 284 -85 2 0 293 -81 2 0 296 -44 2 0 234 -85 2 0 308 -78 2 0 34 -100 2 0 43 -88 2 0 48 -47 2 0 66 -75 2 0 13 -95 2 0 70 -85 2 0 14 -53 2 0 74 -28 2 0 75 -34 2 0 80 -81 2 0 15 -97 2 0 83 -37 2 0 86 -41 2 0
EndChar
StartChar: G
Encoding: 71 71 40
Width: 720
Flags: W
HStem: -18 39<316 343> 305 25<419 427.4 695.4 706> 649 37<446 470>
VStem: 21 156<208 250>
Back
711.658 318.994 m 1
 680.903 316.133 663.737 313.272 660.877 310.412 c 0
 650.863 301.113 645.856 282.518 645.856 256.055 c 2
 645.856 67.2324 l 2
 645.856 61.5098 641.564 55.0732 633.697 49.3516 c 0
 625.115 42.9141 614.387 37.1924 601.513 31.4707 c 0
 587.923 26.4639 572.902 21.457 555.737 17.166 c 0
 538.572 12.1592 522.121 8.58301 505.671 4.29102 c 0
 480.638 -0.714844 460.61 -4.29102 444.161 -7.15234 c 0
 426.995 -10.0137 411.975 -11.4434 398.386 -11.4434 c 0
 277.511 -11.4434 183.814 22.8877 117.299 92.2656 c 0
 83.6826 127.312 61.5098 164.504 50.7812 204.557 c 0
 39.3379 243.896 33.6162 287.524 33.6162 335.445 c 0
 33.6162 431.287 66.5166 509.963 131.604 572.902 c 0
 163.073 602.942 200.266 625.83 242.464 641.564 c 0
 284.663 657.3 330.438 665.169 379.074 665.169 c 0
 388.373 665.169 398.386 664.452 409.114 664.452 c 0
 420.558 663.737 431.287 663.022 442.015 661.592 c 0
 453.458 660.162 463.472 658.73 472.056 657.3 c 0
 481.353 655.155 488.505 653.725 493.512 651.578 c 2
 552.161 632.982 l 1
 565.035 632.982 574.333 643.711 581.486 665.169 c 1
 634.412 665.169 l 1
 641.564 439.154 l 1
 590.068 439.154 l 1
 548.585 547.869 482.783 602.228 394.094 602.228 c 0
 356.901 602.228 325.432 595.075 300.398 580.77 c 0
 274.65 566.466 252.478 543.578 233.167 512.823 c 0
 216.001 485.645 204.557 455.604 196.688 423.418 c 0
 189.538 391.233 185.961 355.472 185.961 316.133 c 0
 185.961 278.226 190.253 243.181 199.55 210.994 c 0
 208.134 178.809 222.438 151.63 241.749 128.742 c 0
 265.352 102.278 288.955 82.9668 312.558 69.3779 c 0
 336.875 56.5039 366.915 50.0664 404.107 50.0664 c 0
 414.836 50.0664 426.995 50.7812 439.869 52.9277 c 0
 453.458 54.3574 465.617 57.2188 477.776 60.0801 c 0
 507.101 67.9473 521.406 78.6758 521.406 92.2656 c 2
 521.406 246.041 l 2
 521.406 268.212 519.975 284.663 516.399 294.677 c 0
 512.823 303.976 504.24 311.126 489.22 314.703 c 0
 480.638 317.564 464.188 318.994 439.154 318.994 c 1
 439.154 367.631 l 1
 711.658 367.631 l 1
 711.658 318.994 l 1
EndSplineSet
Fore
706 330 m 1
 706 305 l 1
 653 300 646 291 627 223 c 1
 579 41 l 1
 551 28 l 2
 494 1 394 -18 316 -18 c 0
 142 -18 21 92 21 250 c 0
 21 404 108 555 240 631 c 0
 300 666 372 686 448 686 c 0
 494 686 527 680 573 664 c 0
 590 658 599 655 608 655 c 0
 628 655 639 664 650 686 c 1
 681 686 l 1
 630 464 l 1
 601 469 l 1
 599 536 592 565 570 598 c 0
 548 630 508 649 461 649 c 0
 417 649 374 633 335 601 c 0
 245 524 177 357 177 208 c 0
 177 86 234 21 341 21 c 0
 379 21 420 34 435 50 c 0
 439 56 439 56 461 133 c 0
 489 226 494 242 494 268 c 0
 494 277 486 289 480 291 c 0
 470 297 461 300 419 305 c 1
 419 330 l 1
 706 330 l 1
EndSplineSet
KernsSLIFO: 231 -19 2 0 251 -13 2 0 252 -13 2 0 254 -13 2 0 250 -13 2 0 255 -13 2 0 253 -13 2 0 34 -13 2 0 53 -41 2 0 55 -26 2 0 56 -26 2 0 58 -31 2 0
EndChar
StartChar: H
Encoding: 72 72 41
Width: 777
Flags: W
HStem: 0 25<256.25 272 340 356.75 602 658 658 658> 330 44<278 505> 645 24<412 434>
Back
732.4 622.254 m 1
 732.4 663.737 l 1
 426.28 663.737 l 1
 426.28 622.254 l 1
 426.995 622.254 432.002 622.254 440.584 621.538 c 0
 449.883 621.538 459.896 620.108 471.339 617.248 c 0
 483.498 615.102 491.365 611.524 496.372 606.518 c 0
 503.525 600.797 507.816 592.929 510.678 583.632 c 0
 512.823 574.333 514.253 560.028 514.253 540.718 c 2
 514.253 370.492 l 1
 257.484 370.492 l 1
 257.484 540.718 l 2
 257.484 560.028 258.915 574.333 261.775 583.632 c 0
 263.922 592.929 268.212 600.797 273.936 606.518 c 0
 279.656 611.524 288.239 615.102 300.398 617.248 c 0
 311.843 620.108 321.856 621.538 330.438 621.538 c 0
 338.306 622.254 343.312 622.254 344.027 622.254 c 1
 344.027 663.737 l 1
 37.9072 663.737 l 1
 37.9072 622.254 l 1
 40.0527 622.254 45.0596 622.254 54.3574 621.538 c 0
 62.9404 621.538 73.6689 620.108 86.543 617.248 c 0
 99.418 615.102 108 611.524 113.007 606.518 c 0
 118.014 601.513 120.875 594.36 122.305 585.062 c 0
 123.735 575.763 124.451 568.612 124.451 562.174 c 2
 124.451 125.881 l 2
 124.451 108.716 123.735 94.4111 123.021 84.3975 c 0
 122.305 73.6689 118.014 65.0859 111.576 57.2188 c 0
 107.285 52.9277 99.418 50.0664 86.543 48.6357 c 0
 73.6689 46.4902 62.9404 45.0596 54.3574 44.3447 c 0
 45.0596 44.3447 40.0527 43.6289 37.9072 43.6289 c 1
 37.9072 0 l 1
 344.027 0 l 1
 344.027 43.6289 l 1
 342.598 43.6289 336.875 44.3447 328.292 44.3447 c 0
 318.994 45.0596 308.266 46.4902 296.106 48.6357 c 0
 283.232 50.0664 274.65 52.9277 271.074 57.2188 c 0
 266.067 62.2256 262.49 69.3779 261.062 78.6758 c 0
 258.915 87.9736 257.484 105.854 257.484 133.033 c 2
 257.484 303.259 l 1
 514.253 303.259 l 1
 514.253 133.033 l 2
 514.253 105.854 512.823 87.9736 510.678 78.6758 c 0
 507.816 69.3779 504.24 62.2256 499.233 57.2188 c 0
 495.657 52.9277 487.075 50.0664 474.916 48.6357 c 0
 462.042 46.4902 451.312 45.0596 442.015 44.3447 c 0
 433.432 44.3447 428.425 43.6289 426.28 43.6289 c 1
 426.28 0 l 1
 732.4 0 l 1
 732.4 43.6289 l 1
 731.686 43.6289 725.962 44.3447 716.665 44.3447 c 0
 708.081 45.0596 697.354 46.4902 684.479 48.6357 c 0
 672.319 50.0664 664.452 52.9277 660.877 57.2188 c 0
 653.01 65.0859 648.718 73.6689 647.288 84.3975 c 0
 646.571 94.4111 645.856 108.716 645.856 125.881 c 2
 645.856 556.453 l 2
 645.856 561.459 646.571 570.042 648.003 581.486 c 0
 649.433 592.929 653.01 601.513 658.016 606.518 c 0
 662.307 611.524 671.604 615.102 683.765 617.248 c 0
 696.639 620.108 708.081 621.538 716.665 621.538 c 0
 725.962 622.254 731.686 622.254 732.4 622.254 c 1
EndSplineSet
Fore
658 25 m 1
 658 0 l 1
 340 0 l 1
 340 25 l 1
 407 29 428 42 441 97 c 1
 505 330 l 1
 267 330 l 1
 215 148 l 1
 215 144 212 138 212 132 c 0
 204 100 199 82 199 67 c 0
 199 37 209 29 272 25 c 1
 272 0 l 1
 -23 0 l 1
 -23 25 l 1
 26 32 40 45 56 97 c 1
 179 546 l 2
 185 573 189 593 189 603 c 0
 189 625 179 636 146 639 c 0
 142 640 130 642 116 645 c 1
 116 669 l 1
 434 669 l 1
 434 645 l 1
 368 642 349 627 333 573 c 1
 278 374 l 1
 517 374 l 1
 564 546 l 2
 568 564 574 595 574 606 c 0
 574 627 564 636 533 639 c 0
 527 640 516 642 501 645 c 1
 501 669 l 1
 798 669 l 1
 798 645 l 1
 749 637 734 625 718 573 c 1
 609 174 l 1
 603 152 l 2
 589 103 584 81 584 66 c 0
 584 37 602 26 658 25 c 1
EndSplineSet
EndChar
StartChar: I
Encoding: 73 73 42
Width: 388
Flags: W
HStem: 0 25<-32 -23.6667 245 264> 645 24<397.333 406>
Back
334.014 0 m 1
 27.8945 0 l 1
 27.8945 43.6289 l 1
 62.2256 43.6289 85.1133 48.6357 96.5566 57.9336 c 0
 108.716 67.2324 114.438 87.2588 114.438 117.299 c 2
 114.438 545.008 l 2
 114.438 576.479 110.861 596.506 103.709 606.518 c 0
 99.418 612.956 89.4043 617.248 75.0996 617.963 c 0
 61.5098 619.394 45.0596 619.394 27.8945 619.394 c 1
 27.8945 662.307 l 1
 334.014 662.307 l 1
 334.014 619.394 l 1
 314.703 619.394 298.252 619.394 284.663 617.963 c 0
 271.789 617.248 262.49 612.956 257.484 606.518 c 0
 250.331 597.936 246.041 577.194 246.041 545.008 c 2
 246.041 117.299 l 2
 246.041 85.8281 251.763 65.8018 263.922 57.2188 c 0
 275.365 48.6357 298.969 43.6289 334.014 43.6289 c 1
 334.014 0 l 1
EndSplineSet
Fore
264 25 m 1
 264 0 l 1
 -32 0 l 1
 -32 25 l 1
 18 31 32 45 48 97 c 1
 171 546 l 2
 176 564 182 595 182 606 c 0
 182 627 171 636 141 639 c 0
 135 640 122 642 108 645 c 1
 108 669 l 1
 406 669 l 1
 406 645 l 1
 354 639 340 625 324 573 c 1
 209 152 l 2
 196 103 192 81 192 64 c 0
 192 37 207 28 264 25 c 1
EndSplineSet
EndChar
StartChar: J
Encoding: 74 74 43
Width: 499
Flags: W
HStem: -100 37<82 105> 645 24<515.833 524>
VStem: -45 126<-1 13>
Back
389.803 619.394 m 1
 341.882 619.394 314.703 608.664 308.982 587.208 c 0
 306.12 577.909 304.69 563.605 304.69 546.439 c 2
 304.69 188.821 l 2
 304.69 130.173 291.816 82.9668 265.352 47.2051 c 0
 234.597 7.86719 190.253 -11.4434 130.173 -11.4434 c 0
 102.994 -11.4434 80.8213 -6.4375 62.9404 4.29102 c 0
 36.4766 20.0264 23.6025 41.4834 23.6025 68.6621 c 0
 23.6025 82.252 28.6094 95.8418 39.3379 110.146 c 0
 50.0664 123.735 63.6562 130.173 80.8213 130.173 c 0
 103.709 130.173 120.875 123.021 130.888 108 c 0
 141.616 92.2656 146.624 76.5303 146.624 60.0801 c 0
 146.624 54.3574 147.338 50.7812 149.484 50.0664 c 0
 151.63 48.6357 153.06 48.6357 155.206 48.6357 c 0
 168.795 48.6357 175.947 65.0859 175.947 99.418 c 2
 175.947 546.439 l 2
 175.947 577.909 170.226 597.936 158.066 606.518 c 0
 146.624 615.102 123.735 619.394 89.4043 619.394 c 1
 89.4043 663.737 l 1
 389.803 663.737 l 1
 389.803 619.394 l 1
EndSplineSet
Fore
524 669 m 1
 524 645 l 1
 475 639 460 625 442 573 c 1
 315 92 l 2
 280 -38 214 -100 105 -100 c 0
 18 -100 -45 -56 -45 1 c 0
 -45 41 -18 72 18 72 c 0
 53 72 81 44 81 9 c 0
 81 -4 78 -12 67 -23 c 0
 60 -34 59 -38 59 -45 c 0
 59 -57 67 -63 85 -63 c 0
 122 -63 136 -35 174 114 c 2
 289 546 l 2
 296 573 300 595 300 606 c 0
 300 625 287 636 258 639 c 0
 253 640 242 642 227 645 c 1
 227 669 l 1
 524 669 l 1
EndSplineSet
KernsSLIFO: 231 -41 2 0 254 -38 2 0 255 -38 2 0 34 -38 2 0
EndChar
StartChar: K
Encoding: 75 75 44
Width: 666
Flags: W
HStem: 0 25<-21 -12.8333 254.75 268 333 344 602.5 612> 642 27<491 513>
Back
745.274 0 m 1
 421.988 0 l 1
 421.988 43.6289 l 1
 443.444 43.6289 459.181 44.3447 468.479 45.0596 c 0
 478.491 46.4902 484.93 48.6357 487.79 52.9277 c 0
 488.505 53.6426 489.22 56.5039 489.22 60.0801 c 0
 489.22 65.8018 486.359 72.9541 480.638 81.5371 c 0
 474.916 89.4043 467.764 97.9873 459.896 107.285 c 2
 275.365 300.398 l 1
 265.352 290.385 l 1
 265.352 117.299 l 2
 265.352 103.709 266.067 91.5498 267.497 81.5371 c 0
 268.929 70.8086 271.789 63.6562 276.796 58.6494 c 0
 284.663 50.7812 296.106 46.4902 310.412 45.0596 c 0
 325.432 44.3447 338.306 43.6289 349.75 43.6289 c 1
 349.75 0 l 1
 43.6289 0 l 1
 43.6289 43.6289 l 1
 83.6826 43.6289 110.146 50.0664 123.021 62.9404 c 0
 125.881 65.8018 128.027 72.9541 128.742 85.1133 c 0
 130.173 96.5566 130.173 111.576 130.173 128.742 c 2
 130.173 545.008 l 2
 130.173 574.333 124.451 593.644 113.007 604.373 c 0
 100.848 614.387 77.9609 619.394 43.6289 619.394 c 1
 43.6289 663.737 l 1
 353.326 663.737 l 1
 353.326 619.394 l 1
 336.16 619.394 321.14 618.678 306.12 615.816 c 0
 291.816 613.671 281.088 609.38 275.365 603.657 c 0
 270.358 598.65 267.497 591.499 266.782 581.486 c 0
 265.352 571.473 265.352 559.313 265.352 545.008 c 2
 265.352 380.505 l 1
 445.591 545.008 l 2
 470.624 569.327 483.498 588.637 483.498 602.228 c 0
 483.498 613.671 460.61 619.394 416.267 619.394 c 1
 416.267 663.737 l 1
 698.784 663.737 l 1
 698.784 619.394 l 1
 685.194 619.394 672.319 619.394 660.162 617.963 c 0
 648.003 617.248 635.129 613.671 622.254 607.949 c 0
 611.524 602.942 600.797 595.79 589.354 585.776 c 0
 578.625 576.479 565.035 563.605 549.3 547.869 c 2
 374.782 376.213 l 1
 659.445 70.0928 l 2
 667.313 62.2256 678.758 56.5039 695.207 51.4971 c 0
 710.943 46.4902 728.108 43.6289 745.274 43.6289 c 1
 745.274 0 l 1
EndSplineSet
Fore
393 398 m 1
 549 60 l 2
 560 37 574 29 612 25 c 1
 612 0 l 1
 333 0 l 1
 333 25 l 1
 344 26 354 26 359 28 c 0
 385 29 397 38 397 53 c 0
 397 63 393 75 384 95 c 2
 271 337 l 1
 204 88 l 1
 204 83 202 78 202 70 c 0
 202 38 215 29 268 25 c 1
 268 0 l 1
 -21 0 l 1
 -21 25 l 1
 28 31 42 44 59 97 c 1
 182 546 l 2
 187 573 192 593 192 603 c 0
 192 625 182 636 149 639 c 0
 145 640 133 642 119 645 c 1
 119 669 l 1
 429 669 l 1
 429 645 l 1
 371 639 352 624 335 573 c 1
 272 344 l 1
 479 520 546 587 546 617 c 0
 546 631 538 639 513 642 c 0
 508 642 499 643 491 645 c 1
 491 669 l 1
 702 669 l 1
 702 645 l 1
 659 639 650 636 608 596 c 2
 393 398 l 1
EndSplineSet
KernsSLIFO: 232 -41 2 0 267 -42 2 0 270 -42 2 0 280 3 2 0 233 -3 2 0 281 3 2 0 293 -12 2 0 296 -12 2 0 300 -7 2 0 36 -50 2 0 40 -45 2 0 48 -42 2 0 66 3 2 0 70 -15 2 0 14 -29 2 0 80 -12 2 0 86 -7 2 0 90 -67 2 0
EndChar
StartChar: L
Encoding: 76 76 45
Width: 610
Flags: W
HStem: 0 32<249 532> 645 24<421.8 435>
Back
638.704 193.113 m 1
 585.776 0 l 1
 37.9072 0 l 1
 37.9072 43.6289 l 1
 70.0928 43.6289 92.2656 49.3516 102.994 59.3643 c 0
 114.438 69.3779 120.159 88.6895 120.159 117.299 c 2
 120.159 546.439 l 2
 120.159 562.174 119.444 575.763 117.299 586.493 c 0
 115.152 597.936 111.576 604.373 107.285 606.518 c 2
 37.9072 620.823 l 1
 37.9072 663.737 l 1
 344.027 663.737 l 1
 344.027 620.823 l 1
 288.239 615.102 l 2
 281.803 614.387 275.365 611.524 269.644 606.518 c 0
 259.63 597.936 254.623 577.909 254.623 546.439 c 2
 254.623 90.835 l 2
 254.623 85.1133 255.338 80.8213 256.055 78.6758 c 0
 257.484 75.8145 259.63 72.9541 263.922 68.6621 c 0
 265.352 67.2324 271.074 65.0859 280.371 63.6562 c 0
 289.67 62.2256 298.252 61.5098 306.12 61.5098 c 2
 335.445 61.5098 l 2
 376.213 61.5098 409.114 62.9404 434.147 65.8018 c 0
 459.181 68.6621 477.776 72.9541 489.22 79.3906 c 0
 505.671 87.2588 522.121 100.133 537.857 118.729 c 0
 552.876 137.325 567.896 162.358 581.486 193.113 c 1
 638.704 193.113 l 1
EndSplineSet
Fore
590 193 m 1
 532 0 l 1
 -22 0 l 1
 -22 25 l 1
 26 32 42 45 59 97 c 1
 182 546 l 2
 186 564 190 595 190 606 c 0
 190 627 182 636 149 639 c 0
 145 640 132 642 119 645 c 1
 119 669 l 1
 435 669 l 1
 435 645 l 1
 369 640 350 627 334 573 c 1
 205 94 l 2
 202 83 201 70 201 62 c 0
 201 41 220 32 264 32 c 0
 346 32 417 53 472 89 c 0
 510 119 532 144 565 199 c 1
 590 193 l 1
EndSplineSet
KernsSLIFO: 231 25 2 0 251 28 2 0 254 28 2 0 255 28 2 0 267 3 2 0 268 3 2 0 270 3 2 0 266 3 2 0 269 3 2 0 274 -16 2 0 300 4 2 0 34 28 2 0 40 3 2 0 48 3 2 0 53 -29 2 0 54 -16 2 0 55 -76 2 0 56 -73 2 0 58 -40 2 0 14 40 2 0 116 -44 2 0 114 -66 2 0 86 4 2 0 90 -22 2 0
EndChar
StartChar: M
Encoding: 77 77 46
Width: 887
Flags: W
HStem: 0 25<171.778 179 463 479 755.333 775> 645 24<120 141 908.5 917>
Back
905.486 0 m 1
 599.367 0 l 1
 599.367 43.6289 l 1
 619.394 43.6289 636.559 45.0596 649.433 47.9209 c 0
 663.022 50.0664 671.604 54.3574 676.611 60.0801 c 0
 683.765 70.0928 687.34 92.9805 687.34 128.742 c 2
 687.34 493.512 l 1
 464.188 0 l 1
 430.57 0 l 1
 212.426 474.916 l 1
 212.426 153.774 l 2
 212.426 110.861 216.001 82.252 222.438 68.6621 c 0
 232.45 52.2119 258.915 43.6289 303.259 43.6289 c 1
 303.259 0 l 1
 39.3379 0 l 1
 39.3379 43.6289 l 1
 85.1133 43.6289 111.576 50.7812 118.729 64.3711 c 0
 128.742 80.1064 133.033 110.146 133.033 153.774 c 2
 133.033 543.578 l 2
 133.033 574.333 128.742 595.075 118.729 605.088 c 0
 116.583 607.234 113.723 608.664 110.146 609.38 c 0
 105.854 610.095 102.278 611.524 97.9873 612.241 c 2
 42.1992 619.394 l 1
 42.1992 662.307 l 1
 263.922 662.307 l 1
 474.916 197.405 l 1
 678.043 662.307 l 1
 905.486 662.307 l 1
 905.486 617.963 l 1
 871.871 617.963 849.698 612.956 838.255 602.228 c 0
 827.525 591.499 821.804 571.473 821.804 543.578 c 2
 821.804 117.299 l 2
 821.804 77.9609 832.532 55.0732 853.99 48.6357 c 1
 905.486 42.1992 l 1
 905.486 0 l 1
EndSplineSet
Fore
917 669 m 1
 917 645 l 1
 866 639 851 624 836 573 c 1
 713 123 l 1
 712 119 l 1
 710 113 l 1
 705 92 703 78 703 67 c 0
 703 37 716 28 775 25 c 1
 775 0 l 1
 463 0 l 1
 463 25 l 1
 527 29 546 42 562 97 c 1
 688 561 l 1
 313 -12 l 1
 286 -12 l 1
 218 546 l 1
 117 179 l 2
 104 130 98 103 98 86 c 0
 98 45 114 34 179 25 c 1
 179 0 l 1
 -29 0 l 1
 -29 25 l 1
 25 37 32 48 72 179 c 1
 182 551 l 2
 187 576 192 596 192 609 c 0
 192 637 183 642 120 645 c 1
 120 669 l 1
 341 669 l 1
 395 189 l 1
 705 669 l 1
 917 669 l 1
EndSplineSet
EndChar
StartChar: N
Encoding: 78 78 47
Width: 720
Flags: W
HStem: 0 25<167 182> 645 24<111 120.167 539 548.833>
Back
748.85 619.394 m 1
 728.108 619.394 710.943 617.248 697.354 611.524 c 0
 683.765 606.518 674.466 599.367 669.459 591.499 c 0
 659.445 576.479 654.439 548.585 654.438 508.531 c 2
 654.438 -8.58301 l 1
 609.38 -8.58301 l 1
 208.134 492.082 l 1
 208.134 155.206 l 2
 208.134 111.576 211.709 82.252 218.146 68.6621 c 0
 226.729 52.2119 253.193 43.6289 297.537 43.6289 c 1
 297.537 0 l 1
 35.0469 0 l 1
 35.0469 43.6289 l 1
 80.1064 43.6289 107.285 52.9277 117.299 70.0928 c 0
 125.166 82.252 128.742 110.146 128.742 155.206 c 2
 128.742 577.194 l 1
 105.14 605.803 74.3848 619.394 35.0469 619.394 c 1
 35.0469 663.737 l 1
 230.306 663.737 l 1
 575.763 226.729 l 1
 575.763 508.531 l 2
 575.763 530.704 575.763 548.585 575.048 562.174 c 0
 574.333 576.479 572.188 586.493 568.612 592.929 c 0
 557.882 610.81 529.988 619.394 484.93 619.394 c 1
 484.93 663.737 l 1
 748.85 663.737 l 1
 748.85 619.394 l 1
EndSplineSet
Fore
306 669 m 1
 521 204 l 1
 601 491 l 2
 612 532 620 567 620 584 c 0
 620 623 598 639 539 645 c 1
 539 669 l 1
 749 669 l 1
 749 645 l 1
 690 631 686 623 646 491 c 1
 502 -15 l 1
 475 -15 l 1
 218 535 l 1
 119 179 l 1
 108 138 101 103 101 83 c 0
 101 45 122 29 182 25 c 1
 182 0 l 1
 -26 0 l 1
 -26 25 l 1
 28 37 35 47 75 179 c 1
 193 589 l 1
 174 633 166 639 111 645 c 1
 111 669 l 1
 306 669 l 1
EndSplineSet
KernsSLIFO: 231 -41 2 0 251 -38 2 0 254 -38 2 0 255 -38 2 0 256 -29 2 0 267 -31 2 0 270 -31 2 0 277 -26 2 0 280 -26 2 0 233 -34 2 0 281 -26 2 0 284 -37 2 0 293 -34 2 0 296 -34 2 0 308 -31 2 0 300 -32 2 0 34 -38 2 0 36 -31 2 0 40 -25 2 0 48 -31 2 0 66 -25 2 0 13 -23 2 0 70 -37 2 0 80 -31 2 0 15 -25 2 0 86 -32 2 0
EndChar
StartChar: O
Encoding: 79 79 48
Width: 720
Flags: W
HStem: -18 34<262 283> 650 36<441 459>
VStem: 26 145<138 221> 546 145<454 532>
Back
37.9072 331.153 m 0
 37.9072 283.232 46.4902 238.174 63.6562 196.688 c 0
 80.8213 155.206 103.709 119.444 133.033 88.6895 c 0
 162.358 57.9336 197.405 33.6162 237.457 15.7354 c 0
 277.511 -2.86133 319.71 -11.4434 364.769 -11.4434 c 0
 410.544 -11.4434 453.458 -2.86133 492.797 15.7354 c 0
 532.134 33.6162 567.181 57.9336 597.221 88.6895 c 0
 626.545 119.444 650.148 155.206 667.313 196.688 c 0
 684.479 238.174 693.062 283.232 693.062 331.153 c 0
 693.062 379.074 684.479 423.418 667.313 464.902 c 0
 650.148 506.386 626.545 542.862 597.221 574.333 c 0
 567.181 605.803 532.134 630.122 492.797 648.003 c 0
 453.458 665.884 410.544 675.182 364.769 675.182 c 0
 319.71 675.182 277.511 665.884 237.457 648.003 c 0
 197.405 630.122 162.358 605.803 133.033 574.333 c 0
 103.709 542.862 80.8213 506.386 63.6562 464.902 c 0
 46.4902 423.418 37.9072 379.074 37.9072 331.153 c 0
180.239 331.153 m 0
 180.239 369.775 185.246 406.254 194.543 439.869 c 0
 204.557 474.199 217.432 502.811 234.597 527.844 c 0
 251.048 552.876 270.358 572.902 293.246 587.208 c 0
 315.418 602.228 339.737 609.38 366.2 609.38 c 0
 391.233 609.38 415.551 602.228 437.724 587.208 c 0
 460.61 572.902 479.923 552.876 496.372 527.844 c 0
 512.823 502.811 526.412 474.199 536.426 439.869 c 0
 545.725 406.254 550.731 369.775 550.731 331.153 c 0
 550.731 291.816 545.725 255.338 536.426 221.008 c 0
 526.412 186.676 512.823 157.352 496.372 132.318 c 0
 479.923 108 460.61 87.9736 437.724 72.9541 c 0
 415.551 58.6494 391.233 51.4971 366.2 51.4971 c 0
 339.737 51.4971 315.418 58.6494 293.246 72.9541 c 0
 270.358 87.9736 251.048 108 234.597 132.318 c 0
 217.432 157.352 204.557 186.676 194.543 221.008 c 0
 185.246 255.338 180.239 291.816 180.239 331.153 c 0
EndSplineSet
Fore
450 686 m 0
 587 686 691 587 691 454 c 0
 691 308 609 149 485 59 c 0
 417 7 341 -18 264 -18 c 0
 122 -18 26 78 26 221 c 0
 26 360 113 521 234 609 c 0
 302 659 376 686 450 686 c 0
445 650 m 0
 381 650 328 609 277 520 c 0
 223 423 171 239 171 138 c 0
 171 63 209 16 272 16 c 0
 327 16 372 45 417 113 c 0
 485 211 546 412 546 532 c 0
 546 603 505 650 445 650 c 0
EndSplineSet
KernsSLIFO: 231 -66 2 0 251 -56 2 0 254 -56 2 0 255 -56 2 0 34 -56 2 0 53 -18 2 0 55 -51 2 0 56 -51 2 0 57 -63 2 0 58 -56 2 0
EndChar
StartChar: P
Encoding: 80 80 49
Width: 610
Flags: W
HStem: 0 25<248.333 267> 316 36<309 340> 637 32<113 391>
VStem: 467 145<514 546>
Back
434.862 476.346 m 0
 434.862 517.83 421.988 550.015 396.24 571.473 c 0
 370.492 592.929 329.007 603.657 272.504 603.657 c 0
 262.49 603.657 256.055 602.228 252.478 600.082 c 0
 249.616 597.221 247.471 591.499 247.471 582.916 c 2
 247.471 344.027 l 1
 251.763 343.312 257.484 342.598 265.352 342.598 c 2
 291.816 342.598 l 2
 386.941 342.598 434.862 386.941 434.862 476.346 c 0
575.763 477.776 m 0
 575.763 442.015 567.181 411.26 550.015 384.796 c 0
 532.851 357.618 509.246 335.445 479.206 317.564 c 0
 455.604 303.976 429.141 293.962 399.101 287.524 c 0
 369.061 281.803 336.16 278.226 298.969 278.226 c 2
 247.471 278.226 l 1
 247.471 117.299 l 2
 247.471 87.9736 254.623 68.6621 268.212 58.6494 c 0
 281.803 48.6357 305.405 43.6289 338.306 43.6289 c 1
 338.306 0 l 1
 36.4766 0 l 1
 36.4766 43.6289 l 1
 55.0732 43.6289 70.8086 45.0596 82.9668 47.9209 c 0
 95.126 50.0664 102.994 53.6426 107.285 58.6494 c 0
 111.576 64.3711 114.438 72.9541 115.868 84.3975 c 0
 116.583 95.126 117.299 110.146 117.299 128.742 c 2
 117.299 546.439 l 2
 117.299 575.763 112.292 595.075 101.563 605.088 c 0
 91.5498 614.387 70.0928 619.394 36.4766 619.394 c 1
 36.4766 663.737 l 1
 308.982 663.737 l 2
 375.499 663.737 433.432 651.578 482.068 627.261 c 0
 544.293 593.644 575.763 543.578 575.763 477.776 c 0
EndSplineSet
Fore
113 645 m 1
 113 669 l 1
 400 669 l 2
 539 669 612 615 612 514 c 0
 612 394 505 316 340 316 c 0
 313 316 294 318 259 322 c 1
 205 123 l 1
 201 107 195 75 195 64 c 0
 195 37 211 28 267 25 c 1
 267 0 l 1
 -26 0 l 1
 -26 25 l 1
 25 34 37 44 53 97 c 1
 176 546 l 2
 182 568 186 592 186 606 c 0
 186 627 174 636 144 639 c 0
 139 640 127 642 113 645 c 1
333 593 m 1
 270 354 l 1
 286 353 297 352 311 352 c 0
 381 352 417 375 444 434 c 0
 458 464 467 511 467 546 c 0
 467 603 437 637 382 637 c 0
 365 637 353 633 344 623 c 0
 340 617 340 617 333 593 c 1
EndSplineSet
KernsSLIFO: 231 -103 2 0 251 -88 2 0 254 -88 2 0 255 -88 2 0 277 -50 2 0 280 -37 2 0 233 -57 2 0 281 -50 2 0 284 -56 2 0 293 -51 2 0 296 -34 2 0 234 -56 2 0 308 -47 2 0 34 -88 2 0 43 -104 2 0 66 -50 2 0 13 -107 2 0 70 -56 2 0 14 -53 2 0 80 -51 2 0 15 -108 2 0
EndChar
StartChar: Q
Encoding: 81 81 50
Width: 720
Flags: W
HStem: -208 89<395 479> -161 138<157 198> 650 36<441 459>
VStem: 26 145<136 211> 546 145<453 532>
Back
23.6025 332.584 m 0
 23.6025 293.246 29.3242 256.055 40.0527 221.008 c 0
 51.4971 185.961 67.2324 153.774 87.2588 125.166 c 0
 107.285 96.5566 130.888 71.5234 158.066 50.7812 c 0
 185.246 29.3242 216.001 12.874 248.901 1.43066 c 1
 278.226 -40.7686 l 1
 309.697 -77.9609 348.319 -106.57 394.809 -126.597 c 0
 441.3 -146.624 494.942 -156.637 555.021 -156.637 c 2
 642.996 -156.637 l 1
 642.996 -113.007 l 1
 625.115 -113.007 607.234 -111.576 587.208 -109.431 c 0
 567.896 -106.57 548.585 -101.563 528.559 -93.6953 c 0
 509.246 -85.8281 489.936 -75.0996 470.624 -60.7949 c 0
 452.028 -46.4902 434.862 -28.6094 420.558 -5.72168 c 1
 457.75 2.86133 491.365 17.8809 522.837 37.9072 c 0
 554.307 58.6494 580.77 83.6826 603.657 113.723 c 0
 625.83 143.047 643.711 176.662 657.3 213.854 c 0
 670.175 251.048 676.611 290.385 676.611 332.584 c 0
 676.611 380.505 668.029 425.564 650.863 467.049 c 0
 633.697 509.246 610.81 546.439 580.77 577.909 c 0
 550.731 609.38 516.399 634.412 477.062 652.293 c 0
 437.009 670.891 394.809 679.473 349.75 679.473 c 0
 305.405 679.473 263.207 670.891 223.153 652.293 c 0
 183.814 634.412 149.484 609.38 119.444 577.909 c 0
 89.4043 546.439 66.5166 509.246 49.3516 467.049 c 0
 32.1855 425.564 23.6025 380.505 23.6025 332.584 c 0
168.795 331.153 m 0
 168.795 369.061 173.087 404.822 182.385 438.438 c 0
 191.683 472.056 204.557 501.379 221.008 526.412 c 0
 237.457 551.446 257.484 571.473 279.656 585.776 c 0
 302.544 600.797 326.146 607.949 351.895 607.949 c 0
 376.928 607.949 400.532 600.797 422.703 585.776 c 0
 444.876 571.473 464.188 551.446 480.638 526.412 c 0
 497.087 501.379 509.963 472.056 519.26 438.438 c 0
 528.559 404.822 532.851 369.061 532.851 331.153 c 0
 532.851 293.246 528.559 256.77 519.26 223.153 c 0
 509.963 189.538 497.087 160.213 480.638 135.18 c 0
 464.188 110.861 444.876 90.835 422.703 75.8145 c 0
 400.532 61.5098 376.928 54.3574 351.895 54.3574 c 0
 326.146 54.3574 302.544 61.5098 279.656 75.8145 c 0
 257.484 90.835 237.457 110.861 221.008 135.18 c 0
 204.557 160.213 191.683 189.538 182.385 223.153 c 0
 173.087 256.77 168.795 293.246 168.795 331.153 c 0
EndSplineSet
Fore
634 -40 m 1xb8
 655 -59 l 1
 574 -168 505 -208 395 -208 c 0xb8
 354 -208 322 -202 261 -182 c 0
 208 -166 185 -161 157 -161 c 0
 125 -161 97 -168 42 -189 c 1
 28 -166 l 1
 185 -35 l 2
 192 -28 196 -23 198 -23 c 0x78
 201 -21 201 -19 204 -16 c 1
 201 -12 196 -10 189 -7 c 0
 136 12 123 19 97 44 c 0
 53 86 26 146 26 211 c 0
 26 454 233 686 450 686 c 0
 589 686 691 587 691 453 c 0
 691 319 624 179 514 81 c 0
 437 12 382 -9 252 -18 c 1
 231 -37 207 -62 207 -64 c 0
 207 -67 215 -70 245 -72 c 0
 286 -75 330 -82 354 -89 c 2
 395 -103 l 2
 432 -114 453 -119 479 -119 c 0
 539 -119 576 -100 634 -40 c 1xb8
445 650 m 0
 381 650 328 609 277 520 c 0
 223 423 171 239 171 136 c 0
 171 63 209 18 272 18 c 0
 327 18 372 47 417 114 c 0
 485 212 546 412 546 532 c 0
 546 603 505 650 445 650 c 0
EndSplineSet
EndChar
StartChar: R
Encoding: 82 82 51
Width: 666
Flags: W
HStem: 0 25<-29 -20.6667 252.5 267 588 602> 637 32<111 389>
VStem: 472 151<524 544>
Back
442.015 484.93 m 0
 442.015 524.267 429.855 553.592 404.822 573.618 c 0
 379.789 593.644 344.743 603.657 298.969 603.657 c 0
 276.081 603.657 263.922 602.228 261.062 600.797 c 0
 256.055 597.936 253.193 590.783 253.193 580.055 c 2
 253.193 356.187 l 1
 281.088 356.187 303.259 357.618 321.856 361.193 c 0
 339.737 364.769 356.187 369.061 370.492 374.782 c 0
 418.413 394.809 442.015 431.287 442.015 484.93 c 0
688.771 0 m 1
 505.671 0 l 1
 276.796 296.106 l 1
 253.193 294.677 l 1
 253.193 117.299 l 2
 253.193 88.6895 258.915 69.3779 271.074 59.3643 c 0
 282.518 49.3516 305.405 43.6289 338.306 43.6289 c 1
 338.306 0 l 1
 37.9072 0 l 1
 37.9072 43.6289 l 1
 57.9336 43.6289 73.6689 45.7754 85.8281 49.3516 c 0
 97.9873 52.2119 105.854 56.5039 110.146 60.0801 c 0
 115.868 65.8018 118.729 88.6895 118.729 128.742 c 2
 118.729 546.439 l 2
 118.729 560.743 118.014 573.618 116.583 583.632 c 0
 115.152 593.644 112.292 600.797 108.716 605.088 c 0
 98.7021 614.387 75.0996 619.394 37.9072 619.394 c 1
 37.9072 663.737 l 1
 324.001 663.737 l 2
 496.372 663.737 582.916 603.657 582.916 483.498 c 0
 582.916 397.67 527.844 340.452 417.696 311.843 c 1
 602.228 85.1133 l 2
 613.671 70.0928 626.545 60.0801 640.135 53.6426 c 0
 653.725 47.2051 670.176 43.6289 688.771 43.6289 c 1
 688.771 0 l 1
EndSplineSet
Fore
111 645 m 1
 111 669 l 1
 387 669 l 2
 545 669 623 623 623 526 c 0
 623 470 595 419 543 385 c 0
 511 365 486 354 431 343 c 1
 514 97 l 1
 536 38 546 29 602 25 c 1
 602 0 l 1
 400 0 l 1
 293 331 l 1
 264 331 l 1
 209 138 l 2
 201 107 195 81 195 67 c 0
 195 37 209 29 267 25 c 1
 267 0 l 1
 -29 0 l 1
 -29 25 l 1
 21 31 35 45 51 97 c 1
 174 546 l 1
 179 562 185 595 185 606 c 0
 185 627 174 636 144 639 c 0
 138 640 125 642 111 645 c 1
333 593 m 1
 272 363 l 1
 335 365 374 371 400 388 c 0
 442 415 472 476 472 542 c 0
 472 602 439 637 382 637 c 0
 352 637 341 628 333 593 c 1
EndSplineSet
KernsSLIFO: 256 -31 2 0 232 -31 2 0 267 -34 2 0 270 -34 2 0 274 -44 2 0 233 -9 2 0 284 -21 2 0 293 -18 2 0 296 -18 2 0 234 -22 2 0 298 -12 2 0 300 -12 2 0 36 -32 2 0 40 -28 2 0 48 -34 2 0 53 -23 2 0 54 -44 2 0 55 -45 2 0 56 -45 2 0 58 -40 2 0 70 -21 2 0 14 -29 2 0 80 -18 2 0 86 -12 2 0 90 -12 2 0
EndChar
StartChar: S
Encoding: 83 83 52
Width: 555
Flags: W
HStem: -18 34<219 239> 650 36<303 327>
VStem: 103 120<491 545> 347 122<142 185>
Back
493.512 173.087 m 0
 493.512 118.014 470.624 72.2383 424.85 35.0469 c 0
 404.107 20.7422 381.22 9.29785 355.472 1.43066 c 0
 329.007 -6.4375 302.544 -10.0137 273.936 -10.0137 c 0
 263.207 -10.0137 251.048 -9.29785 236.742 -7.15234 c 0
 222.438 -5.72168 206.702 -2.14551 190.253 2.86133 c 0
 159.498 13.5898 138.04 19.3115 127.312 19.3115 c 0
 118.014 19.3115 113.007 9.29785 113.007 -10.0137 c 1
 64.3711 -10.0137 l 1
 35.0469 215.286 l 1
 79.3906 215.286 l 1
 102.278 158.066 128.027 115.152 155.206 87.2588 c 0
 182.385 59.3643 216.001 45.0596 254.623 45.0596 c 0
 282.518 45.0596 305.405 54.3574 325.432 72.2383 c 0
 344.743 90.835 354.757 113.007 354.757 140.901 c 0
 354.757 175.947 339.021 207.419 307.551 236.027 c 0
 301.113 241.749 288.955 250.331 273.219 261.062 c 0
 256.77 271.789 236.027 283.948 210.994 298.969 c 0
 160.928 329.007 125.881 354.757 105.14 374.782 c 0
 72.2383 409.114 55.7881 450.598 55.7881 499.233 c 0
 55.7881 525.697 60.7949 550.015 70.0928 571.473 c 0
 80.1064 592.929 93.6953 611.524 111.576 627.261 c 0
 128.742 642.281 149.484 654.439 172.372 663.022 c 0
 195.26 670.891 219.576 675.182 246.041 675.182 c 0
 256.055 675.182 267.497 673.751 280.371 671.604 c 0
 293.962 669.459 309.697 665.169 329.724 659.445 c 2
 380.505 642.996 l 1
 387.656 645.856 393.379 656.585 398.386 675.182 c 1
 444.161 675.182 l 1
 465.617 445.591 l 1
 417.696 445.591 l 1
 411.26 470.624 404.107 492.797 394.809 512.823 c 0
 385.512 532.134 373.353 550.015 359.048 565.75 c 0
 328.292 595.79 293.246 610.81 253.193 610.81 c 0
 231.021 610.81 213.14 603.657 200.98 589.354 c 0
 188.106 575.763 181.669 556.453 181.669 532.851 c 0
 181.669 499.233 205.987 465.617 254.623 432.002 c 2
 405.537 332.584 l 2
 464.188 293.246 493.512 240.318 493.512 173.087 c 0
EndSplineSet
Fore
1 -18 m 1
 38 207 l 1
 67 204 l 1
 70 144 79 114 98 83 c 0
 123 41 168 16 221 16 c 0
 270 16 305 35 328 75 c 0
 340 97 347 120 347 142 c 0
 347 187 312 234 234 294 c 0
 179 338 138 382 116 425 c 0
 107 442 103 464 103 491 c 0
 103 601 189 686 303 686 c 0
 331 686 357 680 401 666 c 0
 426 659 442 655 453 655 c 0
 473 655 486 664 497 681 c 1
 526 681 l 1
 486 480 l 1
 458 483 l 1
 445 601 407 650 327 650 c 0
 264 650 223 609 223 545 c 0
 223 499 237 478 300 431 c 0
 422 338 469 271 469 185 c 0
 469 62 379 -18 239 -18 c 0
 199 -18 166 -12 116 6 c 0
 92 15 81 18 70 18 c 0
 51 18 44 12 32 -18 c 1
 1 -18 l 1
EndSplineSet
KernsSLIFO: 231 -16 2 0 251 -10 2 0 254 -10 2 0 255 -10 2 0 34 -10 2 0 53 -34 2 0 55 -19 2 0 56 -19 2 0 58 -23 2 0 85 -6 2 0
EndChar
StartChar: T
Encoding: 84 84 53
Width: 610
Flags: W
HStem: 0 25<50 381 357.667 381> 634 35<100 470.67>
Back
610.81 474.916 m 1
 556.452 474.916 l 1
 545.725 529.988 532.134 563.605 515.685 575.763 c 0
 504.956 582.201 492.797 587.922 479.206 592.214 c 0
 465.617 597.221 447.021 599.367 423.418 599.367 c 2
 385.512 599.367 l 1
 385.512 117.299 l 2
 385.512 87.9736 390.519 68.6621 401.962 58.6494 c 0
 413.406 48.6357 436.294 43.6289 471.339 43.6289 c 1
 471.339 0 l 1
 165.219 0 l 1
 165.219 43.6289 l 1
 188.106 43.6289 204.557 45.7754 215.286 49.3516 c 0
 226.015 52.2119 234.597 56.5039 240.318 61.5098 c 1
 238.889 61.5098 l 1
 246.756 69.3779 250.331 91.5498 250.331 128.742 c 2
 250.331 599.367 l 1
 213.854 599.367 l 2
 189.538 599.367 170.226 597.221 155.206 593.644 c 0
 140.901 590.783 128.742 585.062 120.159 577.194 c 0
 103.709 564.32 89.4043 529.988 77.9609 474.916 c 1
 25.0332 474.916 l 1
 32.1855 663.737 l 1
 603.657 663.737 l 1
 610.81 474.916 l 1
EndSplineSet
Fore
650 669 m 1
 614 478 l 1
 587 479 l 1
 582 590 543 633 450 634 c 1
 309 127 l 2
 302 103 297 81 297 66 c 0
 297 34 311 28 381 25 c 1
 381 0 l 1
 50 0 l 1
 50 25 l 1
 64 25 l 2
 116 25 141 45 155 97 c 2
 303 634 l 1
 201 631 138 590 86 491 c 1
 62 498 l 1
 100 669 l 1
 650 669 l 1
EndSplineSet
KernsSLIFO: 231 -53 2 0 251 -51 2 0 252 -51 2 0 254 -51 2 0 250 -51 2 0 255 -51 2 0 253 -51 2 0 232 -18 2 0 267 -22 2 0 268 -22 2 0 270 -22 2 0 266 -22 2 0 306 -22 2 0 269 -22 2 0 233 -91 2 0 308 -89 2 0 34 -51 2 0 36 -15 2 0 40 -9 2 0 43 -63 2 0 48 -22 2 0 52 -15 2 0 55 15 2 0 56 15 2 0 58 10 2 0 66 -82 2 0 68 -88 2 0 27 -97 2 0 13 -76 2 0 70 -94 2 0 72 -94 2 0 340 -110 2 0 342 -119 2 0 14 -73 2 0 74 -18 2 0 75 -26 2 0 80 -89 2 0 15 -78 2 0 83 -75 2 0 84 -78 2 0 28 -97 2 0 86 -91 2 0 87 -88 2 0 88 -88 2 0 90 -85 2 0
EndChar
StartChar: U
Encoding: 85 85 54
Width: 720
Flags: W
HStem: -18 56<290 327> 640 29<98 129>
VStem: 67 138<137 159>
Back
735.261 620.823 m 1
 689.485 617.963 663.022 608.664 656.585 592.929 c 0
 649.433 579.34 645.856 551.446 645.856 508.531 c 2
 645.856 257.484 l 2
 645.856 223.868 642.996 192.398 637.989 164.504 c 0
 632.268 136.609 624.4 113.007 613.671 93.6953 c 0
 592.929 58.6494 562.889 32.1855 522.121 14.3047 c 0
 481.353 -2.86133 432.717 -11.4434 374.782 -11.4434 c 0
 290.385 -11.4434 225.3 9.29785 181.669 52.2119 c 0
 138.04 94.4111 115.868 158.781 115.868 244.61 c 2
 115.868 546.439 l 2
 115.868 575.763 109.431 595.075 97.2715 605.088 c 0
 85.1133 614.387 62.2256 619.394 27.8945 619.394 c 1
 27.8945 663.737 l 1
 336.875 663.737 l 1
 336.875 619.394 l 1
 301.829 619.394 278.226 615.102 266.067 606.518 c 0
 253.908 597.936 247.471 577.909 247.471 546.439 c 2
 247.471 237.457 l 2
 247.471 115.152 298.969 54.3574 402.677 54.3574 c 0
 469.909 54.3574 519.26 77.9609 549.3 124.451 c 0
 562.174 143.762 568.612 185.246 568.612 247.471 c 2
 568.612 508.531 l 2
 568.612 552.876 564.32 580.77 556.452 591.499 c 0
 543.578 610.095 517.83 619.394 477.776 619.394 c 1
 477.776 663.737 l 1
 735.261 663.737 l 1
 735.261 620.823 l 1
EndSplineSet
Fore
744 669 m 1
 744 645 l 1
 688 633 683 623 642 491 c 1
 576 264 l 2
 545 155 521 101 486 62 c 0
 442 9 375 -18 290 -18 c 0
 160 -18 67 50 67 148 c 0
 67 182 79 243 100 324 c 1
 157 529 l 2
 166 562 171 593 171 605 c 0
 171 627 161 636 129 640 c 0
 125 640 111 642 98 645 c 1
 98 669 l 1
 409 669 l 1
 409 645 l 1
 347 642 333 628 315 573 c 1
 233 272 l 2
 208 182 205 166 205 139 c 0
 205 76 250 38 327 38 c 0
 382 38 426 59 460 98 c 0
 491 135 513 185 539 283 c 2
 598 491 l 1
 608 532 617 571 617 587 c 0
 617 623 593 639 536 645 c 1
 536 669 l 1
 744 669 l 1
EndSplineSet
KernsSLIFO: 231 -70 2 0 251 -64 2 0 252 -64 2 0 254 -64 2 0 255 -64 2 0 253 -64 2 0 34 -64 2 0 13 -40 2 0 78 -34 2 0 79 -38 2 0 81 -29 2 0 15 -40 2 0 83 -31 2 0
EndChar
StartChar: V
Encoding: 86 86 55
Width: 666
Flags: W
HStem: 642 27<523 548>
Back
711.658 620.823 m 1
 693.062 620.823 680.903 619.394 675.182 616.531 c 0
 662.307 611.524 653.725 605.803 648.718 599.367 c 0
 643.711 592.214 640.85 586.493 638.704 581.486 c 2
 405.537 -8.58301 l 1
 357.618 -8.58301 l 1
 115.868 527.127 l 1
 108 547.154 100.133 563.605 92.2656 577.194 c 0
 84.3975 590.783 77.9609 600.082 72.9541 605.088 c 0
 64.3711 612.956 55.0732 617.248 45.0596 618.678 c 0
 35.7617 620.108 25.0332 620.823 12.874 620.823 c 1
 12.874 663.737 l 1
 304.69 663.737 l 1
 304.69 620.823 l 1
 269.644 620.823 246.756 617.963 237.457 612.241 c 0
 235.312 611.524 233.882 609.38 233.882 606.518 c 0
 233.167 603.657 233.167 600.797 233.167 597.936 c 0
 233.167 593.644 236.027 583.632 243.181 567.896 c 0
 250.331 551.446 259.63 529.273 272.504 500.664 c 2
 402.677 205.272 l 1
 531.419 528.559 l 2
 535.711 538.572 539.287 548.585 542.147 557.882 c 0
 545.008 567.896 547.154 577.909 549.3 588.637 c 0
 549.3 610.095 525.697 620.823 479.206 620.823 c 1
 479.206 663.737 l 1
 711.658 663.737 l 1
 711.658 620.823 l 1
EndSplineSet
Fore
715 669 m 1
 715 645 l 1
 687 636 669 623 656 603 c 1
 264 -18 l 1
 231 -18 l 1
 155 491 l 1
 133 634 127 645 64 645 c 1
 64 669 l 1
 363 669 l 1
 363 645 l 1
 296 639 287 633 287 599 c 0
 287 593 287 589 289 583 c 1
 338 182 l 1
 529 483 l 2
 568 545 587 589 587 611 c 0
 587 630 576 639 548 642 c 0
 543 642 535 643 523 645 c 1
 523 669 l 1
 715 669 l 1
EndSplineSet
KernsSLIFO: 231 -110 2 0 251 -100 2 0 252 -100 2 0 254 -100 2 0 250 -100 2 0 255 -100 2 0 253 -100 2 0 267 -63 2 0 268 -63 2 0 270 -63 2 0 266 -63 2 0 306 -63 2 0 269 -63 2 0 233 -83 2 0 308 -81 2 0 34 -100 2 0 36 -59 2 0 40 -53 2 0 48 -63 2 0 52 -25 2 0 53 6 2 0 66 -75 2 0 27 -95 2 0 13 -95 2 0 70 -86 2 0 72 -82 2 0 340 -98 2 0 342 -108 2 0 14 -62 2 0 74 -12 2 0 80 -82 2 0 15 -97 2 0 83 -44 2 0 28 -95 2 0 86 -47 2 0 90 -34 2 0
EndChar
StartChar: W
Encoding: 87 87 56
Width: 887
Flags: W
HStem: 645 24<333.167 341 400 407.5 660.333 669 753 764.2>
VStem: 472 134<538 586>
Back
975.58 622.254 m 1
 951.262 617.963 934.096 611.524 924.082 605.088 c 0
 914.785 597.936 905.486 586.493 897.619 570.042 c 1
 691.632 -8.58301 l 1
 644.426 -8.58301 l 1
 631.552 27.1787 612.956 77.9609 588.638 142.332 c 0
 564.32 206.702 534.28 283.232 497.804 371.922 c 1
 357.618 -8.58301 l 1
 316.133 -8.58301 l 1
 125.881 515.685 l 1
 111.576 557.882 100.848 582.201 95.126 588.637 c 0
 82.252 607.234 58.6494 617.963 23.6025 620.823 c 1
 23.6025 663.737 l 1
 297.537 663.737 l 1
 297.537 619.394 l 1
 286.81 619.394 278.226 619.394 273.219 618.678 c 0
 267.497 618.678 263.207 617.963 258.915 616.531 c 0
 252.478 615.816 244.61 612.956 236.027 609.38 c 1
 236.027 601.513 236.027 594.36 236.742 587.208 c 0
 236.742 580.77 239.604 571.473 244.61 560.743 c 1
 371.922 231.735 l 1
 461.325 467.049 l 1
 432.002 542.147 l 2
 418.413 575.048 407.684 595.79 399.815 603.657 c 0
 389.088 614.387 366.2 619.394 331.153 619.394 c 1
 331.153 663.737 l 1
 627.261 663.737 l 1
 627.261 619.394 l 1
 577.909 619.394 552.876 612.241 550.731 597.936 c 1
 555.021 578.625 l 1
 691.632 230.306 l 1
 801.062 522.837 l 2
 806.069 536.426 809.645 548.585 811.791 559.313 c 0
 813.222 570.042 814.651 580.055 814.651 588.637 c 0
 814.651 601.513 810.361 610.095 802.493 613.671 c 1
 748.85 620.823 l 1
 748.85 663.737 l 1
 975.58 663.737 l 1
 975.58 622.254 l 1
EndSplineSet
Fore
940 669 m 1
 940 645 l 1
 898 639 885 627 855 573 c 1
 570 -18 l 1
 541 -18 l 1
 482 472 l 1
 249 -18 l 1
 220 -18 l 1
 142 561 l 1
 132 631 130 634 64 645 c 1
 64 669 l 1
 341 669 l 1
 341 645 l 1
 294 639 281 627 281 590 c 0
 281 587 281 580 283 576 c 1
 321 226 l 1
 472 538 l 1
 470 623 460 637 400 645 c 1
 400 669 l 1
 669 669 l 1
 669 645 l 1
 617 639 606 630 606 586 c 0
 606 576 606 573 612 521 c 1
 645 226 l 1
 801 554 l 2
 813 579 816 587 816 599 c 0
 816 636 809 640 753 645 c 1
 753 669 l 1
 940 669 l 1
EndSplineSet
KernsSLIFO: 231 -86 2 0 251 -82 2 0 252 -82 2 0 254 -82 2 0 250 -82 2 0 255 -82 2 0 253 -82 2 0 267 -47 2 0 268 -47 2 0 270 -47 2 0 266 -47 2 0 306 -47 2 0 269 -47 2 0 233 -59 2 0 308 -56 2 0 34 -82 2 0 36 -45 2 0 40 -40 2 0 48 -47 2 0 52 -23 2 0 53 7 2 0 66 -50 2 0 27 -78 2 0 13 -62 2 0 70 -62 2 0 72 -63 2 0 340 -73 2 0 342 -83 2 0 14 -37 2 0 74 -10 2 0 80 -57 2 0 15 -63 2 0 83 -34 2 0 28 -78 2 0 86 -37 2 0 90 -25 2 0
EndChar
StartChar: X
Encoding: 88 88 57
Width: 666
Flags: W
HStem: 0 25<178.75 190 278 291.75 578 586> 642 27<100 392.531 491 513>
Back
748.85 0 m 1
 426.28 0 l 1
 426.28 42.1992 l 1
 454.89 44.3447 474.199 47.9209 484.93 52.9277 c 0
 495.657 57.9336 500.664 62.2256 500.664 65.8018 c 0
 500.664 73.6689 497.804 82.9668 490.65 94.4111 c 0
 484.213 105.854 473.485 122.305 458.465 143.762 c 2
 379.074 265.352 l 1
 276.796 139.471 l 2
 246.756 100.133 231.735 75.8145 231.735 65.8018 c 0
 231.735 51.4971 255.338 43.6289 303.259 43.6289 c 1
 303.259 0 l 1
 43.6289 0 l 1
 43.6289 42.1992 l 1
 59.3643 44.3447 72.9541 46.4902 85.1133 48.6357 c 0
 96.5566 50.0664 105.14 54.3574 110.146 60.0801 c 2
 146.624 99.418 l 1
 145.192 99.418 l 1
 331.153 328.292 l 1
 231.735 474.916 l 2
 185.246 543.578 152.345 585.776 131.604 600.797 c 0
 125.881 605.803 116.583 609.38 102.994 612.241 c 0
 90.1191 615.102 73.6689 617.963 54.3574 620.823 c 1
 54.3574 663.737 l 1
 382.649 663.737 l 1
 382.649 619.394 l 1
 364.769 619.394 349.75 619.394 337.591 618.678 c 0
 325.432 618.678 318.279 617.963 316.133 616.531 c 0
 313.272 614.387 310.412 612.956 306.836 610.81 c 0
 303.259 608.664 301.829 606.518 301.829 603.657 c 0
 301.829 594.36 309.697 578.625 325.432 555.738 c 0
 341.167 532.851 361.908 502.811 388.373 465.617 c 2
 416.267 424.85 l 1
 543.578 580.055 l 2
 548.585 587.208 550.731 594.36 550.731 602.228 c 0
 550.731 613.671 528.559 619.394 483.498 619.394 c 1
 483.498 663.737 l 1
 746.705 663.737 l 1
 746.705 619.394 l 1
 728.824 619.394 711.658 616.531 695.924 610.095 c 0
 680.188 603.657 670.891 599.367 668.029 597.936 c 0
 663.737 595.79 656.585 588.637 644.426 575.763 c 0
 632.982 562.889 620.823 549.3 607.949 534.995 c 2
 467.049 363.339 l 1
 638.704 110.146 l 2
 652.293 88.6895 668.744 72.2383 687.34 61.5098 c 0
 705.221 50.7812 725.962 44.3447 748.85 42.1992 c 1
 748.85 0 l 1
EndSplineSet
Fore
586 25 m 1
 586 0 l 1
 278 0 l 1
 278 25 l 1
 333 29 346 38 346 63 c 0
 346 83 335 127 308 204 c 0
 294 243 293 250 289 264 c 1
 155 116 l 2
 133 92 125 78 125 64 c 0
 125 42 145 29 190 25 c 1
 190 0 l 1
 -23 0 l 1
 -23 25 l 1
 18 34 48 62 207 234 c 0
 245 275 249 281 275 309 c 1
 190 582 l 1
 174 627 160 639 100 645 c 1
 100 669 l 1
 404 669 l 1
 404 645 l 1
 391 642 379 642 375 642 c 0
 341 637 331 628 331 605 c 0
 331 590 341 549 365 476 c 0
 368 472 369 464 371 458 c 2
 382 420 l 1
 476 520 l 2
 527 574 546 601 546 618 c 0
 546 633 536 640 513 642 c 0
 508 642 501 643 491 645 c 1
 491 669 l 1
 694 669 l 1
 694 645 l 1
 658 639 639 627 595 583 c 1
 395 378 l 1
 470 141 l 2
 499 47 514 34 586 25 c 1
EndSplineSet
KernsSLIFO: 270 -56 2 0 36 -57 2 0 48 -56 2 0 50 -57 2 0 66 -9 2 0 70 -28 2 0 14 -45 2 0 80 -25 2 0 86 -21 2 0 90 -81 2 0
EndChar
StartChar: Y
Encoding: 89 89 58
Width: 610
Flags: W
HStem: 0 25<73 90.25 373.333 395> 645 24<328 356 451 468.667>
Back
714.52 622.254 m 1
 687.34 618.678 667.313 612.956 653.01 605.088 c 0
 635.844 594.36 610.81 564.32 578.625 515.685 c 2
 439.154 303.259 l 1
 439.154 117.299 l 2
 439.154 103.709 439.869 91.5498 441.3 80.8213 c 0
 443.444 70.0928 446.307 62.2256 451.312 57.2188 c 0
 457.035 51.4971 467.049 47.9209 481.353 46.4902 c 0
 495.657 44.3447 514.968 43.6289 539.287 43.6289 c 1
 539.287 0 l 1
 205.272 0 l 1
 205.272 43.6289 l 1
 251.763 43.6289 281.803 50.0664 294.677 61.5098 c 0
 300.398 67.2324 303.259 90.1191 303.259 128.742 c 2
 303.259 294.677 l 1
 261.062 354.757 227.444 404.107 202.412 440.584 c 0
 176.662 477.776 155.921 507.101 140.901 528.559 c 0
 125.166 550.015 113.007 565.75 105.14 575.763 c 0
 97.9873 585.776 90.835 592.929 85.1133 599.367 c 0
 75.8145 607.949 66.5166 613.671 56.5039 616.531 c 0
 46.4902 619.394 34.3311 620.823 20.7422 620.823 c 1
 20.7422 663.737 l 1
 324.001 663.737 l 1
 324.001 620.823 l 1
 278.941 620.823 256.055 615.102 256.055 603.657 c 0
 256.055 598.65 257.484 593.644 260.345 588.637 c 0
 262.49 583.632 266.067 577.909 271.074 570.042 c 2
 399.815 371.922 l 1
 528.559 578.625 l 2
 530.704 582.201 532.851 586.493 534.995 590.068 c 0
 536.426 594.36 537.857 597.936 537.857 602.228 c 0
 537.857 614.387 515.685 620.823 471.339 620.823 c 1
 471.339 663.737 l 1
 714.52 663.737 l 1
 714.52 622.254 l 1
EndSplineSet
Fore
234 313 m 1
 146 582 l 1
 127 634 125 637 73 645 c 1
 73 669 l 1
 356 669 l 1
 356 645 l 1
 300 643 286 636 286 606 c 0
 286 590 296 554 319 488 c 0
 322 478 330 458 338 429 c 0
 341 417 356 374 363 352 c 1
 492 538 l 2
 513 567 519 580 519 598 c 0
 519 633 504 642 451 645 c 1
 451 669 l 1
 659 669 l 1
 659 645 l 1
 621 636 602 621 568 576 c 1
 378 308 l 1
 327 117 l 2
 319 94 318 83 318 72 c 0
 318 35 330 28 395 25 c 1
 395 0 l 1
 73 0 l 1
 73 25 l 1
 142 29 157 40 174 97 c 1
 234 313 l 1
EndSplineSet
KernsSLIFO: 231 -47 2 0 251 -44 2 0 252 -44 2 0 254 -44 2 0 250 -44 2 0 255 -44 2 0 253 -44 2 0 267 -60 2 0 268 -60 2 0 270 -60 2 0 266 -60 2 0 306 -60 2 0 269 -60 2 0 233 -76 2 0 308 -75 2 0 34 -44 2 0 36 -59 2 0 40 -53 2 0 48 -60 2 0 52 -25 2 0 53 6 2 0 66 -69 2 0 27 -91 2 0 13 -66 2 0 70 -79 2 0 72 -81 2 0 340 -97 2 0 342 -107 2 0 14 -63 2 0 74 -12 2 0 80 -75 2 0 81 -53 2 0 15 -69 2 0 28 -91 2 0 86 -59 2 0 87 -53 2 0
EndChar
StartChar: Z
Encoding: 90 90 59
Width: 610
Flags: W
HStem: 0 35<157 495> 634 35<122 423>
Back
640.135 194.543 m 1
 612.241 0 l 1
 39.3379 0 l 1
 39.3379 29.3242 l 1
 449.883 603.657 l 1
 258.915 603.657 l 2
 202.412 603.657 163.788 591.499 142.332 567.181 c 0
 132.318 557.167 122.305 526.412 111.576 474.916 c 1
 58.6494 474.916 l 1
 80.8213 663.737 l 1
 617.963 663.737 l 1
 617.963 634.412 l 1
 216.716 61.5098 l 1
 436.294 61.5098 l 2
 489.22 61.5098 527.127 73.6689 549.3 97.9873 c 0
 554.307 105.14 560.028 116.583 567.896 132.318 c 0
 575.048 148.768 582.201 169.511 590.068 194.543 c 1
 640.135 194.543 l 1
EndSplineSet
Fore
554 193 m 1
 495 0 l 1
 -12 0 l 1
 -12 29 l 1
 423 634 l 1
 346 634 l 2
 234 634 171 598 92 486 c 1
 64 491 l 1
 122 669 l 1
 590 669 l 1
 590 640 l 1
 157 35 l 1
 226 35 l 2
 313 35 374 48 417 81 c 0
 458 107 497 149 527 199 c 1
 554 193 l 1
EndSplineSet
KernsSLIFO: 87 -28 2 0 90 -38 2 0
EndChar
StartChar: bracketleft
Encoding: 91 91 60
Width: 332
Flags: W
HStem: -160 35<106 182> 639 35<163 354>
Back
248.901 -123.021 m 1
 33.6162 -123.021 l 1
 33.6162 711.658 l 1
 248.901 711.658 l 1
 248.901 662.307 l 1
 153.774 662.307 l 2
 135.895 662.307 127.312 651.578 127.312 630.122 c 2
 127.312 -33.6162 l 2
 127.312 -60.0801 138.04 -72.9541 158.066 -72.9541 c 2
 248.901 -72.9541 l 1
 248.901 -123.021 l 1
EndSplineSet
Fore
354 639 m 1
 286 639 l 2
 250 639 248 636 234 576 c 2
 76 -100 l 2
 75 -104 79 -113 83 -117 c 0
 88 -122 97 -125 111 -125 c 2
 189 -125 l 1
 182 -160 l 1
 -37 -160 l 1
 163 674 l 1
 362 674 l 1
 354 639 l 1
EndSplineSet
EndChar
StartChar: backslash
Encoding: 92 92 61
Width: 276
Flags: W
Back
356.187 -171.657 m 1
 278.226 -171.657 l 1
 4.29102 698.784 l 1
 80.8213 698.784 l 1
 356.187 -171.657 l 1
EndSplineSet
Fore
-1 686 m 1
 83 686 l 1
 278 -18 l 1
 195 -18 l 1
 -1 686 l 1
EndSplineSet
EndChar
StartChar: bracketright
Encoding: 93 93 62
Width: 332
Flags: W
HStem: -157 35<-49 144> 639 35<122 201>
Back
216.716 -123.021 m 1
 1.43066 -123.021 l 1
 1.43066 -72.9541 l 1
 95.126 -72.9541 l 2
 113.723 -72.9541 123.021 -62.9404 123.021 -42.1992 c 2
 123.021 622.254 l 2
 123.021 648.718 113.007 662.307 92.2656 662.307 c 2
 1.43066 662.307 l 1
 1.43066 711.658 l 1
 216.716 711.658 l 1
 216.716 -123.021 l 1
EndSplineSet
Fore
-48 -122 m 1
 19 -122 l 2
 56 -122 57 -119 70 -62 c 1
 229 617 l 2
 231 628 215 639 193 639 c 2
 116 639 l 1
 123 674 l 1
 343 674 l 1
 144 -157 l 1
 -56 -157 l 1
 -48 -122 l 1
EndSplineSet
EndChar
StartChar: asciicircum
Encoding: 94 94 63
Width: 569
Flags: W
Back
465.617 283.948 m 1
 380.505 283.948 l 1
 243.181 563.605 l 1
 105.14 283.948 l 1
 20.7422 283.948 l 1
 205.272 658.016 l 1
 281.088 658.016 l 1
 465.617 283.948 l 1
EndSplineSet
Fore
157 305 m 1
 67 305 l 1
 245 669 l 1
 325 669 l 1
 502 305 l 1
 415 305 l 1
 286 576 l 1
 157 305 l 1
EndSplineSet
EndChar
StartChar: underscore
Encoding: 95 95 64
Width: 499
Flags: W
HStem: -125 50<0 499>
Back
514.253 -82.252 m 1
 1.43066 -82.252 l 1
 1.43066 -30.7549 l 1
 514.253 -30.7549 l 1
 514.253 -82.252 l 1
EndSplineSet
Fore
499 -125 m 1
 0 -125 l 1
 0 -75 l 1
 499 -75 l 1
 499 -125 l 1
EndSplineSet
EndChar
StartChar: quotesglleft
Encoding: 96 -1 65
Width: 292
Flags: W
Back
191.683 298.969 m 1
 135.895 298.969 l 1
 39.3379 359.048 l 2
 25.748 365.485 17.8809 376.928 16.4502 392.663 c 0
 16.4502 411.975 27.1787 421.988 48.6357 421.988 c 0
 59.3643 421.988 70.8086 416.267 83.6826 405.537 c 1
 191.683 298.969 l 1
EndSplineSet
Fore
315 413 m 1
 277 467 215 557 208 577 c 0
 195 614 212 652 252 672 c 0
 291 691 324 680 335 642 c 0
 343 623 352 504 354 434 c 1
 315 413 l 1
EndSplineSet
EndChar
StartChar: a
Encoding: 97 97 66
Width: 499
Flags: W
HStem: -13 72<86 146> 441 20G<190.5 273>
VStem: -21 124<99.3428 129> 237 113<53 72>
Back
294.677 275.365 m 1
 199.55 242.464 152.345 200.266 152.345 149.484 c 0
 152.345 128.742 158.781 110.861 171.657 95.126 c 0
 175.947 90.1191 181.669 85.8281 186.676 82.9668 c 0
 192.398 79.3906 199.55 77.9609 209.563 77.9609 c 0
 244.61 77.9609 271.074 89.4043 288.239 113.007 c 0
 290.385 115.868 291.816 120.159 293.246 126.597 c 0
 293.962 133.033 294.677 138.04 294.677 142.332 c 2
 294.677 275.365 l 1
480.638 50.0664 m 1
 447.021 11.4434 411.975 -7.15234 374.782 -7.15234 c 0
 331.153 -7.15234 305.405 12.874 297.537 52.9277 c 1
 243.896 12.874 197.405 -7.15234 158.066 -7.15234 c 0
 122.305 -7.15234 92.2656 3.57617 69.3779 25.748 c 0
 46.4902 47.9209 35.0469 75.8145 35.0469 111.576 c 0
 35.0469 165.219 59.3643 208.849 108.716 243.181 c 0
 118.014 248.901 138.756 258.915 169.511 273.219 c 0
 200.266 287.524 241.749 305.405 294.677 328.292 c 1
 294.677 385.512 l 2
 294.677 434.147 272.504 458.465 228.16 458.465 c 0
 190.253 458.465 170.226 444.876 166.65 417.696 c 0
 166.65 414.836 168.08 408.399 170.226 399.815 c 0
 171.657 391.233 173.087 384.081 173.087 379.074 c 0
 173.087 374.782 171.657 368.346 170.226 361.193 c 0
 168.08 354.041 163.788 346.173 156.637 338.306 c 0
 151.63 332.584 144.478 328.292 135.18 325.432 c 0
 125.881 322.571 118.014 321.14 111.576 321.14 c 0
 94.4111 321.14 80.8213 325.432 70.0928 335.445 c 0
 59.3643 345.458 54.3574 359.762 54.3574 379.074 c 0
 54.3574 419.128 75.8145 452.743 120.159 479.206 c 0
 136.609 489.936 154.491 497.087 174.518 501.379 c 0
 193.828 506.386 214.569 508.531 237.457 508.531 c 0
 298.969 508.531 342.598 494.227 367.631 464.902 c 0
 393.379 436.294 405.537 390.519 405.537 328.292 c 2
 405.537 123.021 l 2
 405.537 91.5498 411.26 75.8145 421.988 75.8145 c 0
 426.995 75.8145 434.147 79.3906 443.444 85.1133 c 0
 452.028 90.835 464.902 100.848 480.638 114.438 c 1
 480.638 50.0664 l 1
EndSplineSet
Fore
434 127 m 1
 456 111 l 1
 398 25 352 -15 305 -15 c 0
 267 -15 237 15 237 53 c 0
 237 66 240 81 250 119 c 1
 193 23 148 -13 86 -13 c 0
 22 -13 -21 38 -21 114 c 0
 -21 270 129 461 252 461 c 0
 294 461 316 441 327 390 c 1
 344 450 l 1
 456 456 l 1
 384 220 l 2
 360 139 350 97 350 72 c 0
 350 63 354 57 362 57 c 0
 378 57 393 72 434 127 c 1
267 420 m 0
 239 422 207 391 176 338 c 0
 135 264 103 164 103 111 c 0
 103 81 122 59 146 59 c 0
 174 59 204 85 231 133 c 0
 270 201 303 313 303 374 c 0
 303 400 289 417 267 420 c 0
EndSplineSet
KernsSLIFO: 75 -1 2 0 114 -22 2 0 87 -4 2 0 88 -4 2 0 90 -3 2 0
EndChar
StartChar: b
Encoding: 98 98 67
Width: 499
Flags: W
HStem: -13 34<125 146> 394 67<275 333> 642 27<76 84.1818>
VStem: -15 123<47 52> 319 125<322 340>
Back
426.28 230.306 m 0
 426.28 256.055 424.85 280.371 421.273 301.829 c 0
 417.696 323.286 411.26 342.598 402.677 360.479 c 0
 381.22 404.107 349.75 426.28 308.982 426.28 c 0
 286.81 426.28 266.782 419.843 250.331 406.969 c 0
 230.306 391.233 219.576 374.782 219.576 356.187 c 2
 219.576 89.4043 l 2
 219.576 82.252 223.153 76.5303 229.59 71.5234 c 0
 235.312 67.2324 243.181 62.9404 251.763 59.3643 c 0
 261.062 55.7881 270.358 53.6426 279.656 52.2119 c 0
 289.67 50.7812 297.537 50.0664 304.69 50.0664 c 0
 385.512 50.0664 426.28 110.146 426.28 230.306 c 0
549.3 268.212 m 0
 549.3 236.742 544.293 205.987 533.565 176.662 c 0
 523.552 146.624 508.531 118.729 489.22 92.2656 c 0
 440.584 25.748 371.207 -7.15234 281.088 -7.15234 c 0
 262.49 -7.15234 244.61 -6.4375 227.444 -4.29102 c 0
 210.994 -2.14551 193.828 2.14551 177.379 10.0137 c 0
 153.774 20.7422 135.895 30.7549 123.021 38.623 c 0
 110.146 47.2051 103.709 57.9336 103.709 71.5234 c 2
 103.709 625.115 l 2
 103.709 648.003 102.994 660.162 100.848 662.307 c 0
 95.8418 667.313 89.4043 669.459 80.8213 669.459 c 2
 35.0469 665.169 l 1
 35.0469 705.937 l 1
 51.4971 710.943 75.0996 718.095 104.424 727.394 c 0
 134.464 736.691 166.65 746.705 202.412 757.434 c 1
 219.576 751.712 l 1
 219.576 465.617 l 1
 236.027 481.353 256.055 494.227 279.656 502.811 c 0
 303.259 512.107 325.432 517.114 346.888 517.114 c 0
 413.406 517.114 464.902 489.936 500.664 436.294 c 0
 516.399 411.975 528.559 386.227 537.141 358.333 c 0
 545.008 330.438 549.3 300.398 549.3 268.212 c 0
EndSplineSet
Fore
76 642 m 1
 76 669 l 1
 166 680 214 686 284 699 c 1
 193 371 l 1
 245 438 281 461 333 461 c 0
 398 461 444 412 444 338 c 0
 444 160 287 -13 125 -13 c 0
 59 -13 -15 19 -15 47 c 0
 -15 53 -3 97 6 127 c 2
 100 456 l 2
 126 546 139 599 139 612 c 0
 139 636 125 642 76 642 c 1
275 394 m 0
 242 394 209 365 185 308 c 0
 168 272 146 209 135 170 c 0
 127 138 108 56 108 47 c 0
 108 32 122 21 141 21 c 0
 183 21 223 51 256 111 c 0
 291 173 319 267 319 325 c 0
 319 371 305 394 275 394 c 0
EndSplineSet
KernsSLIFO: 87 -12 2 0 88 -12 2 0 90 -16 2 0
EndChar
StartChar: c
Encoding: 99 99 68
Width: 443
Flags: W
HStem: -13 64<148 196> 429 32<267 280>
VStem: -4 127<123 148> 272 121<354 372>
Back
462.757 173.087 m 1
 406.969 52.9277 333.299 -7.15234 240.318 -7.15234 c 0
 208.849 -7.15234 180.239 -1.43066 153.774 10.7285 c 0
 127.312 22.8877 104.424 42.9141 85.1133 70.0928 c 0
 69.3779 92.9805 56.5039 118.014 47.2051 145.908 c 0
 37.1924 173.802 32.1855 204.557 32.1855 238.889 c 0
 32.1855 311.843 54.3574 374.782 97.9873 427.71 c 0
 143.762 481.353 203.842 508.531 278.226 508.531 c 0
 298.969 508.531 317.564 506.386 335.445 502.094 c 0
 353.326 498.519 369.775 491.365 385.512 482.068 c 0
 404.822 471.339 419.843 457.75 429.855 440.584 c 0
 439.869 424.135 445.591 407.684 445.591 391.233 c 0
 445.591 374.782 439.869 360.479 428.425 348.319 c 0
 416.981 336.875 402.677 331.153 384.081 331.153 c 0
 368.346 331.153 354.757 336.875 343.312 347.604 c 0
 332.584 359.048 324.001 373.353 318.994 389.803 c 0
 313.272 413.406 306.836 429.855 300.398 439.154 c 0
 293.246 449.168 280.371 454.175 261.062 454.175 c 0
 223.868 454.175 193.113 434.862 170.226 396.955 c 0
 149.484 364.054 139.471 324.717 139.471 279.656 c 0
 139.471 226.729 151.63 183.814 177.379 149.484 c 0
 205.272 110.146 241.034 90.835 283.948 90.835 c 0
 315.418 90.835 342.598 100.133 364.769 118.729 c 0
 372.638 124.451 381.935 133.749 391.948 145.908 c 0
 401.962 158.066 414.121 174.518 427.71 194.543 c 1
 462.757 173.087 l 1
EndSplineSet
Fore
318 141 m 1
 346 123 l 1
 311 73 294 54 270 32 c 0
 234 3 192 -13 148 -13 c 0
 59 -13 -4 48 -4 138 c 0
 -4 297 139 461 280 461 c 0
 346 461 393 425 393 372 c 0
 393 331 366 302 330 302 c 0
 297 302 272 324 272 354 c 0
 272 366 275 376 286 393 c 0
 291 401 293 409 293 412 c 0
 293 422 283 429 271 429 c 0
 242 429 211 404 185 357 c 0
 149 293 123 204 123 141 c 0
 123 86 152 51 196 51 c 0
 239 51 270 75 318 141 c 1
EndSplineSet
KernsSLIFO: 73 -19 2 0 76 -15 2 0
EndChar
StartChar: d
Encoding: 100 100 69
Width: 499
Flags: W
HStem: -13 72<85 144> 441 20G<189.5 265> 643 26<308 319.222>
VStem: 240 109<51 70>
Back
344.027 367.631 m 1
 341.167 397.67 330.438 422.703 311.843 440.584 c 0
 303.976 448.451 294.677 454.175 283.232 457.75 c 0
 272.504 461.325 261.062 462.757 248.901 462.757 c 0
 226.729 462.757 207.419 457.035 192.398 445.591 c 0
 177.379 433.432 165.219 418.413 156.637 400.532 c 0
 148.053 382.649 141.616 362.624 138.04 341.167 c 0
 133.749 319.71 131.604 298.969 131.604 279.656 c 0
 131.604 256.055 133.749 232.45 138.756 207.419 c 0
 143.047 182.385 150.199 160.213 160.213 140.186 c 0
 170.94 120.159 184.531 102.994 201.695 90.1191 c 0
 218.146 77.2451 239.604 70.0928 265.352 70.0928 c 0
 306.836 70.0928 333.299 88.6895 344.027 124.451 c 1
 344.027 367.631 l 1
529.988 48.6357 m 1
 363.339 -8.58301 l 1
 344.027 1.43066 l 1
 344.027 35.0469 l 1
 311.126 7.15234 270.358 -7.15234 221.008 -7.15234 c 0
 177.379 -7.15234 136.609 5.72168 99.418 30.7549 c 0
 72.9541 48.6357 52.9277 75.0996 38.623 112.292 c 0
 24.3184 148.768 17.8809 191.683 17.8809 241.749 c 0
 17.8809 316.133 37.1924 378.359 75.8145 429.141 c 0
 120.159 487.79 177.379 517.114 247.471 517.114 c 0
 281.088 517.114 313.272 507.101 344.027 487.79 c 1
 344.027 625.115 l 2
 344.027 645.856 343.312 657.3 341.167 659.445 c 0
 337.591 665.169 329.724 668.029 318.994 668.029 c 2
 275.365 663.737 l 1
 275.365 705.937 l 1
 301.113 713.805 322.571 720.24 339.737 725.247 c 0
 357.618 730.254 371.922 734.546 384.081 738.121 c 0
 395.525 742.413 405.537 745.274 414.121 748.85 c 0
 437.724 757.434 l 1
 459.896 751.712 l 1
 459.896 134.464 l 2
 459.896 115.152 462.042 102.278 466.332 95.8418 c 0
 470.624 89.4043 480.638 86.543 496.372 86.543 c 2
 529.988 89.4043 l 1
 529.988 48.6357 l 1
EndSplineSet
Fore
428 130 m 1
 450 116 l 1
 394 26 349 -12 300 -12 c 0
 262 -12 240 12 240 51 c 0
 240 66 243 81 250 119 c 1
 193 23 148 -13 85 -13 c 0
 23 -13 -21 40 -21 111 c 0
 -21 270 129 461 250 461 c 0
 280 461 299 453 324 429 c 1
 341 497 l 1
 365 582 371 606 371 615 c 0
 371 633 354 643 330 643 c 2
 308 643 l 1
 308 669 l 1
 409 678 457 686 517 699 c 1
 406 294 l 2
 371 167 349 81 349 70 c 0
 349 64 354 59 360 59 c 0
 375 59 400 86 428 130 c 1
271 420 m 0
 242 422 205 390 173 333 c 0
 138 268 105 176 103 122 c 0
 101 86 119 59 144 59 c 0
 173 59 202 83 230 133 c 0
 264 196 308 328 308 371 c 0
 308 398 293 419 271 420 c 0
EndSplineSet
EndChar
StartChar: e
Encoding: 101 101 70
Width: 443
Flags: W
HStem: -13 64<157 201> 429 32<275 293>
VStem: 4 131<133 148> 306 92<375 395>
Back
236.027 447.021 m 0
 186.676 447.021 154.491 414.836 138.04 351.895 c 1
 318.994 351.895 l 1
 310.412 414.836 282.518 447.021 236.027 447.021 c 0
476.346 184.531 m 1
 465.617 142.332 444.161 104.424 413.406 70.0928 c 0
 364.054 18.5957 306.836 -7.15234 240.318 -7.15234 c 0
 181.669 -7.15234 135.18 10.0137 100.133 44.3447 c 0
 65.8018 79.3906 43.6289 125.881 35.0469 184.531 c 0
 34.3311 191.683 33.6162 199.55 33.6162 208.134 c 0
 33.6162 216.716 33.6162 226.729 33.6162 238.889 c 0
 33.6162 311.126 51.4971 371.922 87.9736 421.988 c 0
 130.173 479.206 186.676 508.531 257.484 508.531 c 0
 320.425 508.531 368.346 489.22 401.962 450.598 c 0
 435.577 411.975 452.743 359.048 452.743 291.816 c 1
 131.604 291.816 l 1
 134.464 155.921 185.246 87.9736 283.948 87.9736 c 0
 337.591 87.9736 389.803 126.597 440.584 203.842 c 1
 476.346 184.531 l 1
EndSplineSet
Fore
316 142 m 1
 346 125 l 1
 286 26 231 -13 157 -13 c 0
 69 -13 4 50 4 133 c 0
 4 299 149 461 293 461 c 0
 354 461 398 426 398 375 c 0
 398 340 379 302 344 270 c 0
 294 224 245 202 141 182 c 1
 138 163 135 149 135 133 c 0
 135 79 157 51 201 51 c 0
 242 51 270 73 316 142 c 1
148 214 m 1
 160 218 174 223 182 226 c 0
 258 253 306 319 306 395 c 0
 306 417 297 429 278 429 c 0
 230 429 185 352 148 214 c 1
EndSplineSet
KernsSLIFO: 114 -12 2 0 85 -3 2 0 87 -3 2 0 88 -3 2 0 89 -15 2 0 90 -6 2 0
EndChar
StartChar: f
Encoding: 102 102 71
Width: 332
Flags: W
HStem: -205 31<-73 -55> 407 43<47 111 236 319> 669 30<343 349>
VStem: -168 85<-163 -126> -168 101<-128 -118> 346 99<610 620>
Back
423.418 678.043 m 0
 423.418 661.592 418.413 648.003 408.399 637.274 c 0
 399.101 626.545 384.081 620.823 363.339 620.823 c 0
 354.757 620.823 345.458 623.684 336.16 630.122 c 0
 326.863 635.844 318.279 645.142 310.412 658.016 c 0
 294.677 685.91 281.088 700.214 268.212 700.214 c 0
 236.027 700.214 219.576 672.319 219.576 616.531 c 2
 219.576 507.101 l 1
 345.458 507.101 l 1
 345.458 448.451 l 1
 221.008 448.451 l 1
 221.008 123.021 l 2
 221.008 107.285 221.723 94.4111 222.438 83.6826 c 0
 223.868 72.9541 226.015 65.0859 230.306 60.0801 c 0
 239.604 47.2051 268.212 40.7686 316.133 40.7686 c 1
 316.133 0 l 1
 20.7422 0 l 1
 20.7422 40.7686 l 1
 50.0664 42.9141 69.3779 45.0596 78.6758 47.9209 c 0
 87.9736 50.0664 92.9805 52.2119 95.126 54.3574 c 0
 102.994 65.0859 107.285 87.9736 107.285 123.021 c 2
 107.285 448.451 l 1
 22.1719 448.451 l 1
 22.1719 507.101 l 1
 107.285 507.101 l 1
 110.146 673.751 175.947 757.434 304.69 757.434 c 0
 318.279 757.434 331.153 756.002 341.882 754.572 c 0
 353.326 752.427 364.769 748.135 376.213 740.982 c 0
 407.684 723.817 423.418 702.359 423.418 678.043 c 0
EndSplineSet
Fore
328 450 m 1xf4
 319 407 l 1
 229 407 l 1
 174 154 164 108 141 29 c 0
 107 -73 81 -126 40 -163 c 0
 9 -190 -28 -205 -70 -205 c 0
 -130 -205 -168 -174 -168 -126 c 0xf4
 -168 -97 -145 -72 -117 -72 c 0
 -92 -72 -67 -97 -67 -120 c 0xec
 -67 -130 -72 -144 -81 -154 c 0
 -83 -158 -83 -161 -83 -163 c 0
 -83 -168 -76 -174 -66 -174 c 0
 -26 -174 -7 -133 23 15 c 0
 29 44 59 168 111 407 c 1
 40 407 l 1
 48 450 l 1
 122 450 l 1
 149 549 168 590 211 637 c 0
 248 677 294 699 347 699 c 0
 407 699 445 666 445 618 c 0
 445 587 425 565 395 565 c 0
 368 565 346 587 346 614 c 0
 346 624 349 633 357 645 c 0
 360 650 362 653 362 656 c 0
 362 664 354 669 346 669 c 0
 311 669 278 620 253 520 c 2
 236 450 l 1
 328 450 l 1xf4
EndSplineSet
KernsSLIFO: 277 -23 2 0 280 16 2 0 233 -31 2 0 281 -19 2 0 284 -35 2 0 293 -31 2 0 296 19 2 0 234 -34 2 0 308 -28 2 0 66 -22 2 0 70 -34 2 0 71 1 2 0 74 19 2 0 75 12 2 0 77 42 2 0 80 -29 2 0 114 12 2 0 84 -13 2 0 85 9 2 0
EndChar
StartChar: g
Encoding: 103 103 72
Width: 499
Flags: W
HStem: -204 36<134 156> 152 33<188 203> 374 55<368 478> 431 30<250 258>
VStem: -53 88<-102 -89> 35 116<243 280> 267 108<-100 -53> 300 117<331 372> 300 178<374 385.29>
Back
326.863 310.412 m 0
 326.863 341.167 321.14 369.775 310.412 398.386 c 0
 296.106 440.584 272.504 461.325 240.318 461.325 c 0
 200.266 461.325 180.239 434.862 180.239 382.649 c 0
 180.239 276.796 209.563 223.868 268.212 223.868 c 0
 306.836 223.868 326.863 253.193 326.863 310.412 c 0
432.002 -27.8945 m 0
 432.002 -20.0264 428.425 -12.874 421.273 -7.15234 c 0
 414.121 -1.43066 404.822 2.86133 394.094 5.72168 c 0
 379.074 10.7285 363.339 13.5898 345.458 14.3047 c 0
 328.292 15.7354 311.126 16.4502 294.677 16.4502 c 2
 203.842 16.4502 l 2
 188.821 16.4502 175.947 17.8809 165.219 20.7422 c 1
 139.471 -14.3047 125.881 -40.0527 125.881 -55.7881 c 0
 125.881 -94.4111 171.657 -114.438 262.49 -114.438 c 0
 281.088 -114.438 298.969 -112.292 316.133 -108.716 c 0
 334.014 -104.424 351.895 -99.418 369.061 -93.6953 c 0
 411.26 -79.3906 432.002 -57.2188 432.002 -27.8945 c 0
494.942 417.696 m 1
 417.696 417.696 l 1
 426.995 391.233 432.002 364.054 432.002 336.875 c 0
 432.002 288.239 416.267 248.901 384.081 218.861 c 0
 351.895 189.538 310.412 174.518 261.062 174.518 c 0
 251.048 174.518 241.034 174.518 231.021 175.232 c 0
 220.293 175.232 211.709 176.662 205.272 178.809 c 2
 202.412 178.809 l 2
 198.12 178.809 194.543 176.662 190.968 173.087 c 0
 187.392 168.795 183.814 164.504 178.809 159.498 c 0
 165.219 145.192 158.066 134.464 158.066 128.742 c 0
 158.066 120.875 180.954 115.868 226.729 113.007 c 2
 353.326 105.14 l 2
 391.233 103.709 422.703 92.2656 448.451 70.8086 c 0
 473.485 50.0664 486.359 22.1719 486.359 -12.874 c 0
 486.359 -43.6289 477.062 -70.0928 458.465 -92.9805 c 0
 439.869 -115.868 416.981 -135.18 389.088 -150.914 c 0
 361.193 -166.65 331.868 -178.094 301.113 -185.961 c 0
 270.358 -193.828 242.464 -197.405 216.716 -197.405 c 0
 199.55 -197.405 179.524 -195.975 158.066 -192.398 c 0
 136.609 -189.538 116.583 -183.1 97.2715 -174.518 c 0
 78.6758 -165.219 62.2256 -153.774 49.3516 -140.186 c 0
 35.7617 -125.881 29.3242 -108 29.3242 -86.543 c 0
 29.3242 -51.4971 57.9336 -11.4434 115.868 33.6162 c 1
 102.278 43.6289 91.5498 52.2119 83.6826 60.7949 c 0
 75.8145 69.3779 71.5234 78.6758 71.5234 89.4043 c 0
 71.5234 114.438 97.9873 150.914 150.914 197.405 c 1
 95.8418 228.16 68.6621 273.219 68.6621 334.014 c 0
 68.6621 360.479 73.6689 384.796 82.9668 406.969 c 0
 92.2656 429.855 105.14 449.168 121.59 464.902 c 0
 138.04 481.353 158.066 493.512 180.239 502.094 c 0
 202.412 511.393 226.729 515.685 253.193 515.685 c 0
 266.782 515.685 282.518 513.538 299.684 509.963 c 0
 316.85 505.671 335.445 499.949 356.187 492.082 c 0
 372.638 486.359 389.088 483.498 405.537 483.498 c 2
 494.942 483.498 l 1
 494.942 417.696 l 1
EndSplineSet
Fore
478 429 m 1xfc80
 478 374 l 1xfc80
 412 374 l 1
 416 357 417 347 417 331 c 0xfd
 417 271 387 220 328 187 c 0
 289 166 245 152 201 152 c 0
 190 152 182 154 170 157 c 0
 163 160 155 161 149 161 c 0
 138 161 122 141 122 125 c 0
 122 110 141 97 173 86 c 2
 226 72 l 2
 335 41 375 7 375 -53 c 0xfe
 375 -141 275 -204 136 -204 c 0
 21 -204 -53 -163 -53 -97 c 0
 -53 -73 -41 -48 -23 -35 c 0
 -1 -16 19 -7 81 7 c 1
 37 22 19 42 19 73 c 0
 19 110 34 125 116 170 c 1
 62 193 35 229 35 280 c 0
 35 381 133 461 256 461 c 0
 303 461 334 453 368 429 c 1
 478 429 l 1xfc80
116 -6 m 0
 108 -4 78 -23 64 -35 c 0
 44 -56 35 -70 35 -91 c 0
 35 -138 81 -168 146 -168 c 0
 223 -168 267 -144 267 -100 c 0xfe
 267 -75 253 -56 226 -42 c 0
 205 -34 126 -7 116 -6 c 0
255 431 m 0
 229 431 208 415 189 382 c 0
 168 344 151 283 151 243 c 0
 151 205 166 185 193 185 c 0
 224 185 249 207 271 252 c 0
 289 289 300 338 300 372 c 0xfd
 300 406 281 431 255 431 c 0
EndSplineSet
KernsSLIFO: 280 -25 2 0 233 -34 2 0 281 -25 2 0 284 -31 2 0 293 -26 2 0 296 -26 2 0 66 -25 2 0 70 -31 2 0 77 -21 2 0 83 3 2 0
EndChar
StartChar: h
Encoding: 104 104 73
Width: 555
Flags: W
HStem: 0 21G<-13 108> 390 71<331 398>
VStem: 353 122<369 387>
Back
562.174 0 m 1
 314.703 0 l 1
 314.703 37.9072 l 1
 331.868 40.0527 344.743 42.1992 354.041 45.0596 c 0
 363.339 48.6357 369.775 51.4971 374.782 55.7881 c 0
 379.789 59.3643 382.649 67.2324 384.081 79.3906 c 0
 384.796 90.835 385.512 105.14 385.512 121.59 c 2
 385.512 334.014 l 2
 385.512 401.247 363.339 434.862 318.994 434.862 c 0
 288.955 434.862 255.338 414.836 218.146 374.782 c 1
 218.146 121.59 l 2
 218.146 105.14 218.861 90.835 220.293 79.3906 c 0
 221.723 67.2324 225.3 59.3643 230.306 54.3574 c 0
 231.735 52.2119 237.457 50.0664 246.041 47.9209 c 0
 254.623 45.0596 268.929 41.4834 288.239 36.4766 c 1
 288.239 0 l 1
 35.0469 0 l 1
 35.0469 37.9072 l 1
 68.6621 42.1992 88.6895 50.0664 95.126 62.9404 c 0
 100.133 68.6621 102.278 88.6895 102.278 121.59 c 2
 102.278 658.016 l 1
 94.4111 662.307 87.2588 665.169 79.3906 665.169 c 2
 36.4766 662.307 l 1
 36.4766 704.506 l 1
 200.98 757.434 l 1
 218.146 745.274 l 1
 218.146 455.604 l 1
 257.484 496.372 303.976 517.114 357.618 517.114 c 0
 454.175 517.114 502.094 456.319 502.094 335.445 c 2
 502.094 121.59 l 2
 502.094 90.1191 504.24 70.8086 508.531 62.9404 c 0
 511.393 57.9336 517.83 52.9277 527.127 48.6357 c 0
 537.141 43.6289 548.585 38.623 562.174 33.6162 c 1
 562.174 0 l 1
EndSplineSet
Fore
476 142 m 1
 498 127 l 1
 432 23 393 -9 331 -9 c 0
 291 -9 265 15 265 48 c 0
 265 89 278 141 327 280 c 0
 330 290 333 300 337 313 c 0
 344 333 349 344 349 346 c 0
 352 354 353 363 353 369 c 0
 353 379 343 390 331 390 c 0
 305 390 272 360 230 300 c 0
 180 229 160 179 108 0 c 1
 -13 0 l 1
 141 567 l 2
 146 586 149 601 149 609 c 0
 149 631 135 643 108 643 c 0
 103 643 94 643 86 642 c 1
 86 669 l 1
 167 677 217 684 294 699 c 1
 187 283 l 1
 243 363 267 393 297 419 c 0
 334 450 363 461 398 461 c 0
 445 461 475 434 475 387 c 0
 475 368 464 327 445 265 c 1
 387 86 l 2
 384 78 384 78 384 75 c 0
 384 67 394 59 401 59 c 0
 415 59 434 81 476 142 c 1
EndSplineSet
KernsSLIFO: 114 -31 2 0 90 -19 2 0
EndChar
StartChar: i
Encoding: 105 105 74
Width: 276
Flags: W
HStem: -9 71<70 138> 407 27<21 36.8> 549 137<182.896 204>
Back
282.518 0 m 1
 282.518 37.9072 l 1
 243.896 43.6289 222.438 50.0664 218.146 55.7881 c 0
 214.569 60.7949 211.709 69.3779 210.279 81.5371 c 0
 208.849 93.6953 208.134 106.57 208.134 120.159 c 2
 208.134 514.253 l 1
 191.683 519.975 l 1
 23.6025 452.743 l 1
 23.6025 416.267 l 1
 77.9609 423.418 l 1
 90.1191 422.703 96.5566 404.822 96.5566 370.492 c 2
 96.5566 120.159 l 2
 96.5566 88.6895 92.2656 67.9473 82.9668 56.5039 c 0
 73.6689 45.0596 52.2119 39.3379 19.3115 39.3379 c 1
 19.3115 0 l 1
 282.518 0 l 1
82.252 691.632 m 0
 82.252 671.604 87.9736 655.155 100.133 642.281 c 0
 112.292 629.407 128.742 622.254 148.053 622.254 c 0
 166.65 622.254 181.669 629.407 193.828 642.281 c 0
 205.987 655.155 212.426 671.604 212.426 691.632 c 0
 212.426 710.943 205.987 726.679 193.828 739.553 c 0
 181.669 752.427 166.65 758.863 148.053 758.863 c 0
 128.742 758.863 112.292 752.427 100.133 739.553 c 0
 87.9736 726.679 82.252 710.943 82.252 691.632 c 0
EndSplineSet
Fore
215 141 m 1
 237 127 l 1
 168 22 130 -9 70 -9 c 0
 29 -9 1 18 1 54 c 0
 1 67 7 95 15 123 c 1
 73 338 l 1
 78 354 81 371 81 378 c 0
 81 398 64 407 21 407 c 1
 21 434 l 1
 100 439 168 450 223 461 c 1
 132 127 l 2
 129 116 123 82 123 76 c 0
 123 67 130 62 138 62 c 0
 152 62 176 82 202 122 c 2
 215 141 l 1
193 686 m 0
 231 686 264 653 264 617 c 0
 264 580 231 549 193 549 c 0
 157 549 127 580 127 620 c 0
 127 653 160 686 193 686 c 0
EndSplineSet
KernsSLIFO: 53 -19 2 0 75 -4 2 0
EndChar
StartChar: j
Encoding: 106 106 75
Width: 276
Flags: W
HStem: -207 31<-85 -76> 407 27<31 42.3> 549 137<198.433 212>
VStem: -189 84<-164 -130> -189 98<-132 -124> 144 134<608 626>
Back
294.677 518.545 m 1
 278.226 524.267 l 1
 107.285 457.035 l 1
 107.285 419.128 l 1
 162.358 426.28 l 1
 175.232 425.564 181.669 407.684 181.669 373.353 c 2
 181.669 -32.1855 l 2
 181.669 -92.9805 180.239 -128.027 177.379 -138.04 c 0
 174.518 -147.338 170.226 -155.206 163.788 -161.644 c 0
 158.066 -168.08 152.345 -171.657 146.624 -171.657 c 0
 143.762 -171.657 138.04 -168.795 130.173 -163.073 c 0
 122.305 -158.066 115.868 -150.199 110.146 -139.471 c 0
 102.278 -125.166 92.9805 -116.583 83.6826 -112.292 c 0
 73.6689 -108 63.6562 -105.14 52.9277 -105.14 c 0
 50.7812 -105.14 45.7754 -106.57 37.1924 -109.431 c 0
 29.3242 -111.576 22.8877 -114.438 19.3115 -118.729 c 0
 8.58301 -129.457 2.86133 -142.332 2.86133 -158.066 c 0
 2.86133 -177.379 11.4434 -195.26 29.3242 -210.279 c 0
 47.2051 -225.3 72.9541 -233.167 107.285 -233.167 c 0
 167.365 -233.167 213.854 -213.14 246.041 -174.518 c 0
 278.226 -135.18 294.677 -75.8145 294.677 2.86133 c 2
 294.677 518.545 l 1
166.65 695.924 m 0
 166.65 675.896 173.087 660.162 185.961 647.288 c 0
 198.835 634.412 214.569 628.69 233.167 628.69 c 0
 251.763 628.69 266.782 634.412 279.656 647.288 c 0
 292.531 660.162 298.969 675.896 298.969 695.924 c 0
 298.969 715.234 292.531 731.686 279.656 744.56 c 0
 266.782 758.148 251.763 764.586 233.167 764.586 c 0
 214.569 764.586 198.835 758.148 185.961 744.56 c 0
 173.087 731.686 166.65 715.234 166.65 695.924 c 0
EndSplineSet
Fore
31 407 m 1xf4
 31 434 l 1
 144 444 180 450 239 461 c 1
 125 23 l 2
 85 -130 16 -207 -83 -207 c 0
 -146 -207 -189 -176 -189 -130 c 0xf4
 -189 -101 -166 -78 -141 -78 c 0
 -113 -78 -91 -100 -91 -126 c 0xec
 -91 -138 -92 -142 -104 -158 c 0
 -105 -160 -105 -163 -105 -164 c 0
 -105 -168 -92 -176 -82 -176 c 0
 -54 -176 -37 -145 -12 -45 c 2
 81 311 l 1
 88 338 92 365 92 376 c 0
 92 401 81 407 31 407 c 1xf4
209 686 m 0
 248 686 278 653 278 617 c 0
 278 580 248 549 209 549 c 0
 173 549 144 580 144 620 c 0
 144 653 174 686 209 686 c 0
EndSplineSet
EndChar
StartChar: k
Encoding: 107 107 76
Width: 499
Flags: W
HStem: -7 70<311 363> 423 27<275 315 475.333 483>
Back
584.347 0 m 1
 329.724 0 l 1
 329.724 42.1992 l 1
 356.187 42.1992 l 2
 362.624 42.1992 366.2 43.6289 366.2 47.2051 c 0
 366.2 47.9209 365.485 50.0664 363.339 54.3574 c 2
 228.16 236.027 l 1
 228.16 83.6826 l 2
 228.16 60.0801 243.896 47.2051 273.936 43.6289 c 2
 307.551 40.7686 l 1
 307.551 0 l 1
 35.0469 0 l 1
 35.0469 40.7686 l 1
 72.9541 45.7754 92.9805 49.3516 95.126 51.4971 c 0
 100.133 56.5039 103.709 62.2256 107.285 69.3779 c 0
 110.146 77.2451 111.576 87.2588 111.576 100.848 c 2
 111.576 615.102 l 2
 111.576 637.989 110.146 650.863 107.285 654.439 c 0
 105.14 658.016 102.278 660.162 99.418 663.022 c 0
 96.5566 665.169 91.5498 666.599 83.6826 666.599 c 2
 35.0469 662.307 l 1
 35.0469 701.646 l 1
 208.134 754.572 l 1
 228.16 748.85 l 1
 228.16 324.001 l 1
 348.319 432.002 l 2
 354.757 437.724 359.048 442.729 362.624 446.307 c 0
 366.2 449.168 367.631 452.743 367.631 455.604 c 0
 367.631 461.325 349.75 464.188 314.703 464.188 c 1
 314.703 507.101 l 1
 556.452 507.101 l 1
 556.452 462.757 l 1
 534.995 462.757 517.83 461.325 504.956 458.465 c 0
 491.365 455.604 479.923 451.312 469.909 447.021 c 0
 462.042 442.729 451.312 435.577 437.009 425.564 c 0
 423.418 415.551 407.684 403.393 391.233 389.803 c 2
 303.259 311.843 l 1
 458.465 114.438 l 2
 476.346 91.5498 494.942 74.3848 515.685 62.2256 c 0
 536.426 50.0664 559.313 43.6289 584.347 42.1992 c 1
 584.347 0 l 1
EndSplineSet
Fore
149 187 m 1
 100 0 l 1
 -23 0 l 1
 133 567 l 2
 138 586 141 601 141 609 c 0
 141 631 127 643 100 643 c 0
 95 643 86 643 78 642 c 1
 78 669 l 1
 157 677 209 686 286 699 c 1
 163 239 l 1
 289 338 327 375 327 401 c 0
 327 417 315 422 275 423 c 1
 275 450 l 1
 483 450 l 1
 483 423 l 1
 437 417 416 406 349 349 c 2
 286 293 l 1
 324 98 335 63 363 63 c 0
 382 63 398 81 425 127 c 1
 447 116 l 1
 397 25 360 -7 311 -7 c 0
 249 -7 220 45 187 215 c 1
 149 187 l 1
EndSplineSet
KernsSLIFO: 277 9 2 0 280 9 2 0 233 1 2 0 281 9 2 0 284 -1 2 0 300 1 2 0 66 9 2 0 13 18 2 0 70 -1 2 0 72 -13 2 0 15 16 2 0 86 1 2 0
EndChar
StartChar: l
Encoding: 108 108 77
Width: 276
Flags: W
HStem: -9 71<69 138>
Back
285.378 0 m 1
 25.0332 0 l 1
 25.0332 37.9072 l 1
 52.9277 42.1992 72.9541 48.6357 84.3975 57.9336 c 0
 95.126 67.2324 100.848 82.9668 100.848 105.14 c 2
 100.848 615.102 l 2
 100.848 639.419 100.133 653.725 97.9873 658.016 c 0
 95.126 664.452 87.9736 668.029 75.8145 668.029 c 2
 22.1719 663.737 l 1
 22.1719 705.937 l 1
 30.7549 708.081 43.6289 711.658 61.5098 716.665 c 0
 79.3906 722.387 97.9873 728.108 118.014 734.546 c 0
 138.04 740.982 156.637 746.705 174.518 752.427 c 0
 191.683 757.434 203.842 761.009 210.994 763.155 c 1
 210.994 103.709 l 2
 210.994 60.7949 236.027 39.3379 285.378 39.3379 c 1
 285.378 0 l 1
EndSplineSet
Fore
215 141 m 1
 237 127 l 1
 168 22 130 -9 69 -9 c 0
 29 -9 1 15 1 51 c 0
 1 75 15 133 37 209 c 1
 110 473 l 1
 130 541 144 602 144 615 c 0
 144 633 129 643 103 643 c 0
 98 643 92 643 81 642 c 1
 81 669 l 1
 157 677 204 683 290 699 c 1
 145 176 l 1
 130 125 123 89 123 76 c 0
 123 67 130 62 138 62 c 0
 155 62 176 82 215 141 c 1
EndSplineSet
KernsSLIFO: 87 -12 2 0 90 -7 2 0
EndChar
StartChar: m
Encoding: 109 109 78
Width: 777
Flags: W
HStem: 0 21G<-15 107 227 347> 370 20G<311.5 323 545 566.5> 407 27<34 48.375> 441 20G<374 409.5 593.5 649>
VStem: 337 119<366 394> 495 120<54 73> 583 122<368 391>
Back
880.453 0 m 1
 617.963 0 l 1
 617.963 39.3379 l 1
 665.169 39.3379 688.771 62.9404 688.771 110.146 c 2
 688.771 325.432 l 2
 688.771 360.479 685.194 385.512 679.473 399.815 c 0
 670.175 420.558 651.578 430.57 625.115 430.57 c 0
 582.201 430.57 547.869 411.975 521.406 374.782 c 1
 521.406 110.146 l 2
 521.406 87.2588 526.412 70.0928 537.141 57.9336 c 0
 547.154 45.7754 567.181 39.3379 597.936 39.3379 c 1
 597.936 0 l 1
 329.724 0 l 1
 329.724 39.3379 l 1
 356.187 39.3379 374.782 45.7754 386.227 57.9336 c 0
 396.955 70.0928 402.677 87.2588 402.677 110.146 c 2
 402.677 331.153 l 2
 402.677 397.67 382.649 430.57 342.598 430.57 c 0
 312.558 430.57 286.093 421.273 263.922 402.677 c 0
 243.896 388.373 234.597 379.789 234.597 377.643 c 2
 234.597 110.146 l 2
 234.597 87.2588 239.604 70.0928 250.331 57.9336 c 0
 261.062 45.7754 280.371 39.3379 307.551 39.3379 c 1
 307.551 0 l 1
 40.7686 0 l 1
 40.7686 39.3379 l 1
 90.835 39.3379 115.868 62.9404 115.868 110.146 c 2
 115.868 385.512 l 2
 115.868 401.962 112.292 413.406 105.14 420.558 c 0
 104.424 421.273 101.563 421.988 96.5566 421.988 c 0
 91.5498 421.988 84.3975 421.273 75.0996 420.558 c 0
 66.5166 419.128 55.7881 417.696 43.6289 416.267 c 1
 43.6289 458.465 l 1
 68.6621 466.332 89.4043 472.771 105.854 477.776 c 0
 123.021 482.068 138.04 487.075 149.484 490.65 c 0
 160.928 494.942 170.94 497.804 179.524 499.949 c 0
 187.392 502.811 195.975 505.671 203.842 508.531 c 1
 228.16 508.531 l 1
 228.16 439.154 l 1
 259.63 459.181 283.232 472.771 298.252 481.353 c 0
 313.272 489.22 323.286 494.942 328.292 496.372 c 0
 347.604 504.24 365.485 508.531 380.505 508.531 c 0
 436.294 508.531 476.346 483.498 500.664 433.432 c 1
 552.876 483.498 608.664 508.531 668.029 508.531 c 0
 761.009 508.531 806.784 441.301 806.784 307.551 c 2
 806.784 110.146 l 2
 806.784 87.2588 812.507 70.0928 823.95 57.9336 c 0
 835.393 45.7754 853.99 39.3379 880.453 39.3379 c 1
 880.453 0 l 1
EndSplineSet
Fore
34 407 m 1xfa
 34 434 l 1
 149 442 170 445 234 461 c 1
 170 262 l 1
 234 362 265 400 302 428 c 1
 330 451 360 461 388 461 c 0
 431 461 456 437 456 394 c 0
 456 366 448 340 429 290 c 1
 513 422 560 461 627 461 c 0
 671 461 705 431 705 391 c 0xfa
 705 365 696 327 681 284 c 1
 636 151 l 1
 615 83 615 83 615 73 c 0
 615 66 623 59 631 59 c 0
 645 59 665 81 688 117 c 0
 690 120 694 127 700 135 c 1
 722 122 l 1
 664 23 624 -9 562 -9 c 0
 519 -9 495 13 495 54 c 0xfc
 495 82 508 144 532 207 c 2
 576 338 l 1
 580 352 583 362 583 368 c 0
 583 379 573 390 560 390 c 0
 530 390 491 347 448 272 c 0
 412 209 406 192 347 0 c 1
 227 0 l 1
 262 113 275 155 291 207 c 0
 325 309 337 352 337 366 c 0
 337 379 328 390 318 390 c 0
 305 390 275 368 253 343 c 0
 198 275 160 190 107 0 c 1
 -15 0 l 1
 53 237 l 2
 81 333 88 368 88 381 c 0
 88 398 75 407 42 407 c 2
 34 407 l 1xfa
EndSplineSet
KernsSLIFO: 87 -15 2 0 88 -15 2 0 90 -15 2 0
EndChar
StartChar: n
Encoding: 110 110 79
Width: 555
Flags: W
HStem: 0 21G<-6 116> 370 20G<320.5 335.5> 441 20G<383 424.5>
VStem: 354 121<369 387>
Back
559.313 0 m 1
 317.564 0 l 1
 317.564 37.9072 l 1
 344.027 42.1992 360.479 46.4902 366.2 51.4971 c 0
 376.928 59.3643 382.649 80.8213 382.649 115.868 c 2
 382.649 335.445 l 2
 382.649 394.094 360.479 423.418 317.564 423.418 c 0
 293.246 423.418 263.207 406.969 226.729 373.353 c 1
 226.729 83.6826 l 2
 226.729 59.3643 249.616 43.6289 294.677 37.9072 c 1
 294.677 0 l 1
 47.2051 0 l 1
 47.2051 37.9072 l 1
 53.6426 37.9072 60.7949 38.623 67.9473 39.3379 c 0
 75.0996 40.7686 82.252 42.1992 87.9736 45.0596 c 0
 104.424 52.9277 113.007 73.6689 113.007 107.285 c 2
 113.007 367.631 l 2
 113.007 391.233 110.861 406.969 107.285 414.836 c 0
 105.854 416.267 102.994 417.696 98.7021 418.413 c 0
 94.4111 418.413 89.4043 419.128 83.6826 419.128 c 0
 79.3906 419.128 73.6689 417.696 65.8018 416.267 c 0
 57.9336 414.121 50.7812 411.975 43.6289 409.829 c 1
 43.6289 458.465 l 1
 55.7881 461.325 68.6621 464.902 83.6826 468.479 c 0
 97.9873 472.771 113.007 477.062 128.027 482.068 c 0
 143.047 487.075 157.352 491.365 170.226 495.657 c 0
 182.385 499.949 192.398 504.24 199.55 507.101 c 1
 223.868 507.101 l 1
 223.868 439.154 l 1
 233.882 449.883 243.181 459.181 251.048 465.617 c 0
 259.63 472.771 266.782 478.491 273.936 483.498 c 0
 287.524 492.082 301.829 498.519 316.133 501.379 c 0
 331.153 504.956 346.888 507.101 363.339 507.101 c 0
 453.458 507.101 497.804 449.883 497.804 336.875 c 2
 497.804 97.9873 l 2
 497.804 86.543 498.519 76.5303 498.519 68.6621 c 0
 499.233 60.7949 502.094 55.0732 507.101 51.4971 c 0
 511.393 47.2051 529.273 42.1992 559.313 36.4766 c 1
 559.313 0 l 1
EndSplineSet
Fore
472 135 m 1
 494 122 l 1
 435 25 393 -9 334 -9 c 0
 291 -9 267 15 267 51 c 0
 267 78 278 133 294 182 c 2
 349 349 l 2
 352 357 354 366 354 369 c 0
 354 379 341 390 330 390 c 0
 311 390 280 368 261 341 c 0
 198 261 163 173 116 0 c 1
 -6 0 l 1
 4 37 12 62 23 108 c 1
 50 204 l 2
 83 324 97 371 97 382 c 0
 97 401 83 406 42 407 c 1
 42 434 l 1
 98 437 179 447 242 461 c 1
 179 264 l 1
 245 362 264 387 300 420 c 0
 328 447 365 461 401 461 c 0
 448 461 475 435 475 387 c 0
 475 363 464 318 448 272 c 1
 412 163 l 2
 394 108 387 86 387 76 c 0
 387 66 393 59 401 59 c 0
 417 59 431 73 472 135 c 1
EndSplineSet
KernsSLIFO: 53 -59 2 0 81 -3 2 0 114 -31 2 0 87 -19 2 0 88 -19 2 0 90 -19 2 0
EndChar
StartChar: o
Encoding: 111 111 80
Width: 499
Flags: W
HStem: -13 29<155 174> 434 27<268 286>
VStem: -3 119<78 135> 322 119<311 375>
Back
32.1855 250.331 m 0
 32.1855 215.286 37.9072 182.385 50.0664 150.914 c 0
 61.5098 119.444 77.9609 92.2656 99.418 68.6621 c 0
 120.875 45.0596 146.624 27.1787 175.947 12.874 c 0
 205.272 -0.714844 237.457 -7.15234 273.936 -7.15234 c 0
 309.697 -7.15234 343.312 -0.714844 372.638 12.874 c 0
 402.677 27.1787 428.425 45.0596 449.883 68.6621 c 0
 471.339 92.2656 487.79 119.444 499.949 150.914 c 0
 512.107 182.385 518.545 215.286 518.545 250.331 c 0
 518.545 285.378 512.107 318.994 499.949 349.75 c 0
 487.79 381.22 471.339 408.399 449.883 432.002 c 0
 428.425 455.604 402.677 474.199 372.638 487.79 c 0
 343.312 501.379 309.697 508.531 273.936 508.531 c 0
 237.457 508.531 205.272 501.379 175.947 487.79 c 0
 146.624 474.199 120.875 455.604 99.418 432.002 c 0
 77.9609 408.399 61.5098 381.22 50.0664 349.75 c 0
 37.9072 318.994 32.1855 285.378 32.1855 250.331 c 0
152.345 248.901 m 0
 152.345 277.511 154.491 303.976 159.498 328.292 c 0
 164.504 352.611 172.372 374.067 182.385 393.379 c 0
 192.398 412.689 205.272 426.995 220.293 437.724 c 0
 235.312 448.451 253.193 454.175 273.936 454.175 c 0
 295.392 454.175 313.987 448.451 329.007 437.724 c 0
 344.027 426.995 356.187 412.689 366.2 393.379 c 0
 376.213 374.067 383.366 352.611 388.373 328.292 c 0
 393.379 303.976 395.525 277.511 395.525 248.901 c 0
 395.525 221.008 393.379 193.828 389.088 169.511 c 0
 384.796 144.478 377.643 122.305 367.631 102.994 c 0
 357.618 84.3975 345.458 69.3779 329.724 58.6494 c 0
 313.987 47.9209 295.392 42.1992 273.936 42.1992 c 0
 253.193 42.1992 235.312 47.9209 220.293 58.6494 c 0
 205.272 69.3779 192.398 84.3975 182.385 102.994 c 0
 172.372 122.305 164.504 144.478 159.498 169.511 c 0
 154.491 193.828 152.345 221.008 152.345 248.901 c 0
EndSplineSet
Fore
284 461 m 0
 375 461 441 398 441 311 c 0
 441 142 305 -13 157 -13 c 0
 64 -13 -3 50 -3 135 c 0
 -3 303 138 461 284 461 c 0
275 434 m 0
 243 434 214 410 187 365 c 0
 152 302 116 157 116 78 c 0
 116 40 135 16 166 16 c 0
 201 16 230 45 259 107 c 0
 291 177 322 308 322 375 c 0
 322 412 305 434 275 434 c 0
EndSplineSet
KernsSLIFO: 53 -75 2 0 114 -22 2 0 85 -1 2 0 87 -21 2 0 88 -21 2 0 89 -25 2 0 90 -28 2 0
EndChar
StartChar: p
Encoding: 112 112 81
Width: 499
Flags: W
HStem: -205 26<-120 129 105 129> -13 35<152 168> 441 20G<309.5 371>
Back
212.426 -108.716 m 2
 212.426 20.7422 l 1
 241.034 2.14551 271.789 -7.15234 306.12 -7.15234 c 0
 343.312 -7.15234 376.213 0.714844 404.822 16.4502 c 0
 434.147 31.4707 457.75 52.9277 477.776 79.3906 c 0
 497.087 105.14 512.107 135.18 522.121 169.511 c 0
 532.134 203.127 537.857 237.457 537.857 273.936 c 0
 537.857 303.259 533.565 332.584 526.412 361.193 c 0
 519.26 389.803 507.816 415.551 492.797 438.438 c 0
 477.776 461.325 458.465 479.923 434.862 494.227 c 0
 411.26 508.531 384.081 515.685 353.326 515.685 c 0
 325.432 515.685 300.398 510.678 276.796 501.379 c 0
 253.193 492.082 231.021 477.776 209.563 457.035 c 1
 208.134 467.764 207.419 478.491 207.419 488.505 c 0
 206.702 498.519 206.702 509.246 206.702 519.975 c 1
 177.379 509.246 148.053 498.519 118.729 488.505 c 0
 89.4043 478.491 59.3643 468.479 29.3242 458.465 c 1
 29.3242 420.558 l 1
 75.8145 423.418 l 2
 85.8281 423.418 92.2656 419.843 95.126 413.406 c 0
 97.2715 405.537 97.9873 391.233 97.9873 371.922 c 2
 97.9873 -117.299 l 2
 97.9873 -136.609 92.9805 -150.914 83.6826 -158.781 c 0
 73.6689 -167.365 54.3574 -171.657 26.4639 -171.657 c 1
 26.4639 -213.854 l 1
 303.259 -213.854 l 1
 303.259 -168.795 l 1
 260.345 -168.795 234.597 -165.219 226.729 -158.066 c 0
 217.432 -151.63 212.426 -134.464 212.426 -108.716 c 2
421.988 240.318 m 0
 421.988 189.538 413.406 146.624 396.955 111.576 c 0
 378.359 70.0928 348.319 50.0664 307.551 50.0664 c 0
 291.1 50.0664 271.074 55.7881 247.471 67.2324 c 0
 223.868 79.3906 212.426 92.2656 212.426 107.285 c 2
 212.426 367.631 l 1
 216.001 384.081 227.444 398.386 246.041 409.114 c 0
 264.637 420.558 283.948 426.28 303.259 426.28 c 0
 324.717 426.28 343.312 420.558 358.333 409.114 c 0
 373.353 398.386 385.512 383.366 394.809 365.485 c 0
 404.107 347.604 410.544 327.577 415.551 305.405 c 0
 419.843 283.232 421.988 261.775 421.988 240.318 c 0
EndSplineSet
Fore
23 407 m 1
 23 434 l 1
 75 439 114 445 215 461 c 1
 179 347 l 1
 237 431 281 461 338 461 c 0
 404 461 445 415 445 341 c 0
 445 168 305 -13 168 -13 c 0
 148 -13 136 -9 101 9 c 1
 98 -4 l 1
 97 -12 92 -22 89 -32 c 0
 72 -100 64 -133 64 -145 c 0
 64 -168 81 -177 129 -179 c 1
 129 -205 l 1
 -120 -205 l 1
 -120 -179 l 1
 -114 -179 l 2
 -73 -179 -62 -166 -45 -104 c 2
 56 284 l 1
 67 333 78 374 78 382 c 0
 78 401 67 404 23 407 c 1
283 391 m 0
 256 393 223 368 198 330 c 0
 182 305 171 277 148 195 c 0
 122 104 113 75 113 59 c 0
 113 38 130 22 152 22 c 0
 185 22 218 50 249 104 c 0
 286 168 316 270 321 334 c 0
 324 366 308 390 283 391 c 0
EndSplineSet
KernsSLIFO: 85 -1 2 0 90 -12 2 0
EndChar
StartChar: q
Encoding: 113 113 82
Width: 499
Flags: W
HStem: -205 26<104 116.4 345 371> -13 72<105 166> 441 20G<238 287>
VStem: 1 125<99 136>
Back
529.988 -226.729 m 1
 529.988 -185.961 l 1
 485.645 -178.094 462.757 -161.644 462.757 -135.895 c 2
 462.757 505.671 l 1
 451.312 517.114 l 1
 436.294 514.253 l 1
 384.081 480.638 l 1
 361.193 492.797 340.452 502.094 321.856 507.816 c 0
 302.544 512.823 283.948 515.685 265.352 515.685 c 0
 226.729 515.685 193.113 508.531 162.358 493.512 c 0
 132.318 479.206 106.57 459.181 85.8281 433.432 c 0
 64.3711 408.399 48.6357 378.359 36.4766 344.743 c 0
 25.0332 311.126 19.3115 276.081 19.3115 238.889 c 0
 19.3115 207.419 22.1719 176.662 29.3242 147.338 c 0
 36.4766 117.299 47.2051 90.835 61.5098 67.9473 c 0
 75.8145 45.0596 95.126 27.1787 118.729 12.874 c 0
 142.332 -0.714844 170.94 -7.15234 205.272 -7.15234 c 0
 218.861 -7.15234 234.597 -5.72168 253.193 -1.43066 c 0
 271.789 2.14551 288.955 8.58301 304.69 17.8809 c 0
 312.558 22.1719 320.425 27.8945 328.292 32.9004 c 0
 336.16 38.623 343.312 43.6289 349.75 48.6357 c 1
 349.75 -113.007 l 2
 349.75 -158.781 318.279 -181.669 254.623 -181.669 c 1
 254.623 -226.729 l 1
 529.988 -226.729 l 1
342.598 111.576 m 1
 325.432 90.835 296.106 80.8213 256.055 80.8213 c 0
 234.597 80.8213 216.001 86.543 200.98 97.9873 c 0
 185.246 110.146 172.372 124.451 163.073 143.047 c 0
 153.774 160.928 147.338 180.954 143.047 203.842 c 0
 138.756 226.015 135.895 247.471 135.895 268.212 c 0
 135.895 290.385 138.756 313.272 143.047 336.16 c 0
 147.338 359.048 153.774 379.789 163.073 398.386 c 0
 172.372 416.981 185.246 432.002 201.695 444.161 c 0
 217.432 455.604 237.457 461.325 261.062 461.325 c 0
 320.425 461.325 349.75 430.57 349.75 369.061 c 2
 349.75 152.345 l 1
 342.598 111.576 l 1
EndSplineSet
Fore
371 -179 m 1
 371 -205 l 1
 104 -205 l 1
 104 -179 l 1
 166 -174 177 -167 193 -116 c 1
 256 98 l 1
 205 16 166 -13 105 -13 c 0
 41 -13 1 37 1 117 c 0
 1 171 19 231 53 291 c 0
 111 394 201 461 275 461 c 0
 299 461 319 454 330 439 c 0
 338 429 341 417 347 390 c 1
 362 450 l 1
 472 450 l 1
 429 294 410 223 387 145 c 0
 344 4 306 -133 306 -149 c 0
 306 -170 321 -179 357 -179 c 2
 371 -179 l 1
290 419 m 0
 262 420 227 390 195 334 c 0
 155 262 126 171 126 116 c 0
 126 78 139 59 166 59 c 0
 196 59 226 83 253 133 c 0
 289 195 325 318 325 371 c 0
 325 398 312 417 290 419 c 0
EndSplineSet
KernsSLIFO: 68 -6 2 0 86 -4 2 0
EndChar
StartChar: r
Encoding: 114 114 83
Width: 388
Flags: W
HStem: 0 21G<-21 100> 360 101<270 333>
Back
396.955 439.154 m 0
 396.955 419.843 391.948 405.537 381.935 395.525 c 0
 371.207 385.512 359.048 380.505 344.027 380.505 c 0
 325.432 380.505 309.697 387.656 296.106 401.247 c 0
 291.816 405.537 288.955 409.114 286.81 413.406 c 0
 285.378 416.981 281.088 419.128 275.365 419.128 c 0
 263.922 419.128 251.048 409.829 237.457 392.663 c 0
 223.868 374.782 216.716 359.048 216.716 344.027 c 2
 216.716 108.716 l 2
 216.716 62.2256 245.324 39.3379 303.259 39.3379 c 1
 303.259 0 l 1
 30.7549 0 l 1
 30.7549 36.4766 l 1
 48.6357 40.7686 62.9404 43.6289 73.6689 47.2051 c 0
 85.1133 50.0664 92.2656 52.2119 95.126 54.3574 c 0
 97.2715 56.5039 98.7021 61.5098 100.133 70.0928 c 0
 101.563 79.3906 102.278 89.4043 102.278 100.848 c 2
 102.278 364.769 l 2
 102.278 397.67 96.5566 414.836 85.1133 414.836 c 2
 33.6162 409.829 l 1
 33.6162 448.451 l 1
 65.8018 459.896 96.5566 470.624 125.881 481.353 c 0
 155.206 491.365 179.524 500.664 197.405 508.531 c 1
 216.716 508.531 l 1
 216.716 440.584 l 1
 251.763 485.645 288.955 508.531 328.292 508.531 c 0
 374.067 508.531 396.955 485.645 396.955 439.154 c 0
EndSplineSet
Fore
26 407 m 1
 26 434 l 1
 148 444 167 447 227 461 c 1
 161 253 l 1
 240 412 281 461 333 461 c 0
 366 461 390 437 390 395 c 0
 390 354 365 324 330 324 c 0
 313 324 300 331 286 349 c 0
 278 357 274 360 270 360 c 0
 256 360 234 335 209 291 c 0
 180 243 166 205 133 104 c 0
 129 89 116 45 100 0 c 1
 -21 0 l 1
 47 229 81 357 81 382 c 0
 81 401 72 404 26 407 c 1
EndSplineSet
KernsSLIFO: 277 -12 2 0 278 -12 2 0 280 -12 2 0 233 -22 2 0 276 -12 2 0 281 -12 2 0 282 -7 2 0 284 -19 2 0 285 -19 2 0 283 -19 2 0 293 -15 2 0 294 -15 2 0 296 -15 2 0 234 -18 2 0 292 -15 2 0 308 -12 2 0 66 -12 2 0 68 -15 2 0 27 -29 2 0 13 -66 2 0 69 -13 2 0 70 -19 2 0 71 7 2 0 72 -3 2 0 73 -15 2 0 14 -12 2 0 74 16 2 0 75 12 2 0 76 -10 2 0 77 -12 2 0 78 9 2 0 79 6 2 0 80 -15 2 0 81 15 2 0 15 -69 2 0 82 -18 2 0 83 13 2 0 28 -29 2 0 85 12 2 0 86 10 2 0 87 19 2 0 88 19 2 0 89 6 2 0 90 19 2 0 91 9 2 0
EndChar
StartChar: s
Encoding: 115 115 84
Width: 388
Flags: W
HStem: -13 31<124 132> 429 32<182 199>
VStem: 47 95<335 376> 183 95<70 119>
Back
370.492 138.04 m 0
 370.492 90.835 354.757 55.0732 324.001 30.04 c 0
 292.531 5.00684 254.623 -7.15234 209.563 -7.15234 c 0
 193.828 -7.15234 171.657 -4.29102 142.332 1.43066 c 2
 89.4043 11.4434 l 2
 85.1133 11.4434 80.8213 7.86719 74.3848 0 c 1
 42.1992 0 l 1
 42.1992 185.961 l 1
 86.543 185.961 l 1
 90.1191 161.644 94.4111 143.047 97.9873 130.888 c 0
 102.278 118.729 108.716 102.994 117.299 83.6826 c 0
 125.166 67.2324 136.609 55.0732 151.63 48.6357 c 0
 166.65 41.4834 183.814 37.9072 202.412 37.9072 c 0
 248.901 37.9072 272.504 59.3643 272.504 100.848 c 0
 272.504 127.312 257.484 150.199 226.729 168.795 c 0
 200.98 185.961 178.809 200.266 161.644 210.994 c 0
 144.478 221.723 130.888 231.021 120.159 238.174 c 0
 109.431 245.324 101.563 251.048 95.8418 255.338 c 0
 90.835 260.345 86.543 263.922 83.6826 268.212 c 0
 71.5234 281.803 62.2256 296.106 54.3574 311.843 c 0
 46.4902 327.577 42.1992 346.173 42.1992 367.631 c 0
 42.1992 389.088 47.2051 408.399 55.7881 425.564 c 0
 64.3711 442.729 75.8145 457.035 90.1191 469.193 c 0
 104.424 481.353 120.875 491.365 140.186 497.804 c 0
 158.781 504.956 178.809 508.531 199.55 508.531 c 0
 216.716 508.531 230.306 507.101 240.318 505.671 c 0
 250.331 503.525 256.055 501.379 258.915 499.233 c 2
 293.246 486.359 l 1
 293.246 486.359 295.392 491.365 300.398 500.664 c 1
 334.014 500.664 l 1
 339.737 331.153 l 1
 297.537 331.153 l 1
 279.656 416.981 246.041 459.896 195.975 459.896 c 0
 177.379 459.896 162.358 455.604 150.199 446.307 c 0
 138.04 437.009 131.604 421.988 131.604 401.247 c 0
 131.604 385.512 134.464 373.353 140.901 364.769 c 0
 146.624 356.187 155.921 347.604 168.795 339.737 c 2
 279.656 272.504 l 2
 296.106 262.49 309.697 253.908 319.71 245.324 c 0
 330.438 236.742 338.306 228.875 344.027 221.008 c 0
 361.908 199.55 370.492 171.657 370.492 138.04 c 0
EndSplineSet
Fore
333 461 m 1
 311 308 l 1
 283 311 l 1
 267 393 242 429 195 429 c 0
 163 429 142 409 142 376 c 0
 142 354 160 324 198 278 c 0
 253 212 278 164 278 119 c 0
 278 44 215 -13 130 -13 c 0
 111 -13 92 -9 67 -1 c 0
 56 4 44 7 37 7 c 0
 23 7 12 -1 7 -13 c 1
 -19 -13 l 1
 3 152 l 1
 29 149 l 1
 38 97 45 73 66 48 c 0
 82 28 103 18 126 18 c 0
 158 18 183 41 183 70 c 0
 183 97 166 130 127 174 c 0
 62 253 47 283 47 335 c 0
 47 412 100 461 182 461 c 0
 201 461 214 458 239 450 c 0
 256 442 267 439 275 439 c 0
 290 439 293 442 305 461 c 1
 333 461 l 1
EndSplineSet
KernsSLIFO: 114 -22 2 0 85 -6 2 0
EndChar
StartChar: t
Encoding: 116 116 85
Width: 276
Flags: W
HStem: -9 71<59 127> 407 43<209 281>
Back
313.272 86.543 m 1
 301.829 60.0801 283.232 37.9072 256.77 20.0264 c 0
 231.021 1.43066 205.272 -7.15234 180.239 -7.15234 c 0
 111.576 -7.15234 77.9609 40.7686 77.9609 138.04 c 2
 77.9609 444.161 l 1
 26.4639 444.161 l 1
 16.4502 467.049 l 1
 25.0332 474.916 33.6162 482.783 42.9141 490.65 c 0
 52.2119 498.519 60.7949 507.101 68.6621 515.685 c 0
 85.1133 532.851 101.563 552.876 118.014 575.763 c 0
 133.749 597.936 151.63 625.115 171.657 658.016 c 1
 185.961 612.241 l 1
 185.961 504.24 l 1
 288.239 504.24 l 1
 288.239 444.161 l 1
 185.961 444.161 l 1
 185.961 153.774 l 2
 185.961 97.9873 198.835 70.0928 223.868 70.0928 c 0
 241.034 70.0928 261.062 85.1133 285.378 114.438 c 1
 313.272 86.543 l 1
EndSplineSet
Fore
281 450 m 1
 281 407 l 1
 198 407 l 1
 182 346 170 306 166 289 c 0
 129 167 111 94 111 76 c 0
 111 69 119 62 127 62 c 0
 144 62 168 88 204 141 c 1
 226 127 l 1
 160 23 119 -9 59 -9 c 0
 18 -9 -12 18 -12 56 c 0
 -12 73 -1 119 13 168 c 1
 81 407 l 1
 29 407 l 1
 29 442 l 1
 108 472 160 513 212 595 c 1
 248 595 l 1
 209 450 l 1
 281 450 l 1
EndSplineSet
KernsSLIFO: 277 9 2 0 280 9 2 0 233 1 2 0 281 9 2 0 284 -1 2 0 52 -10 2 0 66 9 2 0 27 -22 2 0 70 -1 2 0 73 -4 2 0 114 -18 2 0 28 -22 2 0
EndChar
StartChar: u
Encoding: 117 117 86
Width: 555
Flags: W
HStem: -9 72<89 155>
VStem: 15 118<64 88> 267 118<51 76>
Back
547.869 39.3379 m 1
 539.287 37.9072 528.559 35.0469 515.685 32.9004 c 0
 502.811 30.7549 489.936 27.1787 476.346 22.1719 c 2
 377.643 -11.4434 l 1
 373.353 61.5098 l 1
 351.895 39.3379 l 2
 334.73 23.6025 316.85 12.1592 298.252 4.29102 c 0
 278.941 -3.57617 257.484 -7.15234 234.597 -7.15234 c 0
 217.432 -7.15234 201.695 -5.00684 185.961 -0.714844 c 0
 170.226 3.57617 155.921 10.0137 142.332 19.3115 c 0
 123.735 30.7549 110.861 47.2051 103.709 68.6621 c 0
 97.2715 90.1191 93.6953 113.723 93.6953 139.471 c 2
 93.6953 404.107 l 2
 93.6953 425.564 88.6895 440.584 79.3906 448.451 c 0
 74.3848 452.028 67.9473 454.89 60.7949 457.035 c 0
 53.6426 459.181 42.9141 459.896 29.3242 459.896 c 1
 29.3242 497.804 l 1
 208.134 497.804 l 1
 208.134 145.192 l 2
 208.134 133.033 210.994 121.59 216.001 109.431 c 0
 221.723 97.2715 229.59 88.6895 240.318 83.6826 c 0
 245.324 81.5371 251.048 80.1064 257.484 79.3906 c 0
 264.637 77.9609 271.074 77.9609 276.796 77.9609 c 0
 303.976 77.9609 331.868 89.4043 360.479 113.007 c 0
 365.485 118.014 367.631 131.604 367.631 153.774 c 2
 367.631 402.677 l 2
 367.631 425.564 361.908 439.869 350.465 446.307 c 0
 339.737 452.028 318.994 455.604 290.385 455.604 c 1
 290.385 497.804 l 1
 484.93 497.804 l 1
 484.93 125.881 l 2
 484.93 106.57 488.505 93.6953 496.372 87.9736 c 0
 504.24 82.252 521.406 79.3906 547.869 79.3906 c 1
 547.869 39.3379 l 1
EndSplineSet
Fore
472 133 m 1
 492 120 l 1
 439 31 391 -9 331 -9 c 0
 287 -9 267 12 267 51 c 0
 267 79 272 105 290 161 c 1
 187 18 157 -9 89 -9 c 0
 41 -9 15 16 15 64 c 0
 15 89 22 125 37 173 c 1
 76 306 l 2
 85 335 89 363 89 379 c 0
 89 398 81 404 34 407 c 1
 34 434 l 1
 82 437 141 444 215 457 c 0
 231 460 237 461 243 461 c 1
 149 154 l 2
 136 111 133 103 133 88 c 0
 133 70 141 63 155 63 c 0
 174 63 196 81 229 119 c 0
 286 190 313 256 371 450 c 1
 488 450 l 1
 410 182 l 1
 385 86 385 86 385 76 c 0
 385 67 391 59 398 59 c 0
 416 59 437 81 472 133 c 1
EndSplineSet
KernsSLIFO: 114 -32 2 0
EndChar
StartChar: v
Encoding: 118 118 87
Width: 443
Flags: W
HStem: -13 21G<85 111> 407 27<16 23.6364> 441 20G<325.5 355.5>
VStem: 89 113<123 166> 284 117<393 406>
Back
518.545 457.035 m 1
 508.531 457.035 499.233 455.604 489.937 452.028 c 0
 480.638 448.451 474.916 442.729 471.339 434.862 c 2
 290.385 -19.3115 l 1
 248.901 5.72168 l 1
 72.9541 424.85 l 1
 71.5234 427.71 69.3779 431.287 66.5166 435.577 c 0
 64.3711 439.869 60.7949 443.444 57.2188 445.591 c 0
 51.4971 449.883 45.0596 453.458 39.3379 454.89 c 0
 33.6162 456.319 25.0332 457.035 12.874 457.035 c 1
 12.874 497.804 l 1
 244.61 497.804 l 1
 244.61 458.465 l 1
 233.882 457.75 225.3 456.319 218.146 455.604 c 0
 211.709 454.89 205.272 451.312 200.98 447.021 c 0
 197.405 444.161 195.975 439.154 195.975 433.432 c 0
 195.975 428.425 198.12 421.273 202.412 411.26 c 2
 298.969 170.226 l 1
 396.955 416.267 l 2
 399.101 421.988 399.815 426.28 399.815 429.141 c 0
 399.815 437.009 397.67 443.444 392.663 448.451 c 0
 388.373 453.458 383.366 455.604 376.928 456.319 c 0
 370.492 457.035 360.479 457.035 345.458 457.035 c 1
 345.458 497.804 l 1
 518.545 497.804 l 1
 518.545 457.035 l 1
EndSplineSet
Fore
16 407 m 1
 16 434 l 1
 100 445 122 450 171 461 c 1
 192 382 198 324 202 127 c 1
 300 240 328 281 328 316 c 0
 328 327 324 335 308 353 c 0
 291 374 284 387 284 404 c 0
 284 434 311 461 340 461 c 0
 371 461 401 431 401 395 c 0
 401 353 379 299 340 242 c 0
 286 161 237 108 111 -13 c 1
 85 -13 l 1
 89 123 l 1
 89 144 89 160 89 164 c 0
 89 271 79 359 62 391 c 0
 56 404 47 407 16 407 c 1
EndSplineSet
KernsSLIFO: 277 -19 2 0 278 -19 2 0 280 -19 2 0 233 -28 2 0 276 -19 2 0 281 -19 2 0 279 -19 2 0 284 -28 2 0 285 -28 2 0 283 -28 2 0 293 -23 2 0 296 -23 2 0 292 -23 2 0 308 -22 2 0 66 -19 2 0 68 -23 2 0 27 -50 2 0 13 -50 2 0 70 -28 2 0 72 -19 2 0 77 -23 2 0 80 -23 2 0 15 -50 2 0 84 -18 2 0 28 -50 2 0
EndChar
StartChar: w
Encoding: 119 119 88
Width: 666
Flags: W
HStem: -13 21G<95 122 315 341> 441 20G<360 387 538.5 569>
VStem: 95 109<149 187> 497 117<396 409>
Back
766.016 459.896 m 1
 747.42 454.89 732.4 438.438 720.957 409.829 c 2
 549.3 -16.4502 l 1
 511.393 14.3047 l 1
 408.399 266.782 l 1
 278.226 -16.4502 l 1
 234.597 14.3047 l 1
 65.8018 430.57 l 2
 59.3643 446.307 45.0596 455.604 25.0332 458.465 c 1
 25.0332 497.804 l 1
 243.181 497.804 l 1
 243.181 458.465 l 1
 210.279 455.604 193.113 447.736 193.113 434.862 c 0
 193.113 425.564 200.266 401.962 213.854 364.769 c 1
 291.816 165.219 l 1
 373.353 341.167 l 1
 341.167 430.57 l 2
 338.306 439.154 330.438 446.307 317.564 451.312 c 0
 305.405 456.319 291.816 458.465 278.226 458.465 c 1
 278.226 497.804 l 1
 522.837 497.804 l 1
 522.837 459.896 l 1
 468.479 447.021 l 1
 464.188 442.015 461.325 436.294 461.325 430.57 c 0
 461.325 426.995 468.479 404.822 483.498 364.769 c 2
 555.021 165.219 l 1
 635.844 364.769 l 2
 638.704 372.638 641.564 381.935 643.711 392.663 c 0
 646.571 403.393 647.288 412.689 647.288 420.558 c 0
 647.288 445.591 634.412 458.465 609.38 458.465 c 1
 609.38 497.804 l 1
 766.016 497.804 l 1
 766.016 459.896 l 1
EndSplineSet
Fore
16 407 m 1
 16 434 l 1
 100 448 130 453 171 461 c 1
 193 376 201 312 204 187 c 1
 261 289 275 316 360 461 c 1
 387 461 l 1
 419 130 l 1
 508 234 538 281 538 311 c 0
 538 321 532 334 519 353 c 0
 502 374 497 388 497 401 c 0
 497 434 523 461 554 461 c 0
 584 461 614 434 614 400 c 0
 614 316 527 183 341 -13 c 1
 315 -13 l 1
 291 272 l 1
 284 256 283 253 272 237 c 0
 229 158 185 81 179 73 c 2
 122 -13 l 1
 95 -13 l 1
 97 32 l 1
 97 67 97 67 97 72 c 1
 95 149 l 1
 92 289 78 381 59 398 c 0
 50 406 41 407 16 407 c 1
EndSplineSet
KernsSLIFO: 277 -23 2 0 278 -23 2 0 280 -23 2 0 233 -31 2 0 276 -23 2 0 281 -23 2 0 279 -23 2 0 284 -34 2 0 285 -34 2 0 283 -34 2 0 293 -29 2 0 296 -29 2 0 292 -29 2 0 308 -28 2 0 66 -23 2 0 68 -29 2 0 27 -56 2 0 13 -53 2 0 70 -34 2 0 72 -25 2 0 14 -6 2 0 77 -28 2 0 80 -29 2 0 15 -53 2 0 84 -23 2 0 28 -56 2 0
EndChar
StartChar: x
Encoding: 120 120 89
Width: 499
Flags: W
HStem: -13 116<7 18> 349 112<400 422>
Back
549.3 0 m 1
 310.412 0 l 1
 310.412 36.4766 l 1
 344.027 42.1992 l 2
 348.319 43.6289 349.75 47.9209 349.75 55.7881 c 0
 349.75 57.9336 349.034 60.7949 347.604 65.0859 c 0
 346.173 69.3779 343.312 75.0996 338.306 82.252 c 2
 265.352 194.543 l 1
 193.113 83.6826 l 2
 181.669 65.8018 175.232 52.9277 174.518 45.0596 c 0
 173.087 42.1992 176.662 40.0527 184.531 38.623 c 0
 192.398 37.1924 203.127 36.4766 216.716 36.4766 c 1
 216.716 0 l 1
 37.9072 0 l 1
 37.9072 36.4766 l 1
 50.0664 38.623 58.6494 40.7686 65.0859 42.1992 c 0
 71.5234 44.3447 75.8145 46.4902 79.3906 48.6357 c 0
 91.5498 56.5039 104.424 70.0928 117.299 89.4043 c 2
 231.735 256.055 l 1
 139.471 399.815 l 2
 118.014 432.002 l 0
 110.861 442.729 102.278 449.168 92.2656 451.312 c 2
 45.0596 457.035 l 1
 45.0596 497.804 l 1
 290.385 497.804 l 1
 290.385 457.035 l 1
 259.63 457.035 244.61 453.458 244.61 445.591 c 0
 244.61 435.577 261.062 405.537 294.677 354.757 c 1
 311.126 379.789 324.001 399.815 334.014 415.551 c 0
 344.027 430.57 348.319 440.584 348.319 445.591 c 0
 348.319 453.458 334.73 457.035 307.551 457.035 c 1
 307.551 497.804 l 1
 499.233 497.804 l 1
 499.233 457.035 l 1
 459.181 457.035 430.57 444.161 413.406 417.696 c 2
 329.724 297.537 l 1
 461.325 96.5566 l 2
 472.056 80.1064 484.93 66.5166 498.519 55.7881 c 0
 512.823 45.0596 529.988 38.623 549.3 36.4766 c 1
 549.3 0 l 1
EndSplineSet
Fore
400 123 m 1
 420 108 l 1
 360 21 318 -13 270 -13 c 0
 250 -13 230 -3 218 13 c 0
 196 41 187 67 173 142 c 1
 149 103 l 2
 91 7 67 -13 18 -13 c 0
 -21 -13 -45 12 -45 45 c 0
 -45 78 -22 103 9 103 c 0
 21 103 34 98 48 89 c 0
 59 83 64 81 70 81 c 0
 86 81 98 89 119 122 c 2
 163 192 l 1
 132 346 l 1
 122 395 108 413 76 413 c 0
 67 413 62 413 41 412 c 1
 41 438 l 1
 208 461 l 1
 227 434 234 409 253 324 c 1
 333 435 365 461 412 461 c 0
 441 461 469 434 469 400 c 0
 469 372 442 349 413 349 c 0
 401 349 395 350 381 359 c 0
 369 365 362 368 356 368 c 0
 333 368 308 344 272 286 c 0
 268 278 267 277 264 272 c 1
 296 117 l 2
 305 79 313 64 333 64 c 0
 352 64 360 73 400 123 c 1
EndSplineSet
KernsSLIFO: 284 -13 2 0 68 -9 2 0 70 -13 2 0 80 -10 2 0 82 -12 2 0
EndChar
StartChar: y
Encoding: 121 121 90
Width: 443
Flags: W
HStem: -205 116<-44 -32> 412 26<15 25.6667> 441 20G<315 346.5>
VStem: 272 121<396 408>
Back
335.445 -10.0137 m 1
 497.804 426.28 l 2
 507.816 452.743 524.981 465.617 549.3 465.617 c 1
 549.3 507.101 l 1
 379.074 507.101 l 1
 379.074 465.617 l 1
 399.101 465.617 412.689 463.472 420.558 458.465 c 0
 426.28 454.89 429.141 449.168 429.141 442.015 c 1
 338.306 174.518 l 1
 228.16 420.558 l 2
 223.868 432.002 221.008 440.584 221.008 447.021 c 0
 221.008 459.181 241.749 465.617 282.518 465.617 c 1
 282.518 507.101 l 1
 39.3379 507.101 l 1
 39.3379 465.617 l 1
 70.0928 459.896 87.9736 451.312 93.6953 439.154 c 2
 278.226 27.8945 l 1
 247.471 -51.4971 l 2
 230.306 -97.9873 210.279 -121.59 188.821 -121.59 c 0
 185.246 -121.59 180.954 -120.875 175.947 -118.729 c 0
 170.94 -116.583 165.934 -114.438 160.928 -113.007 c 0
 153.06 -108.716 145.908 -105.854 138.756 -103.709 c 0
 130.888 -102.278 122.305 -100.848 113.007 -100.848 c 0
 90.1191 -100.848 73.6689 -108 62.9404 -122.305 c 0
 52.2119 -136.609 47.2051 -151.63 47.2051 -168.795 c 0
 47.2051 -188.821 54.3574 -205.987 69.3779 -218.861 c 0
 84.3975 -232.45 108 -238.889 139.471 -238.889 c 0
 212.426 -238.889 277.511 -162.358 335.445 -10.0137 c 1
EndSplineSet
Fore
15 412 m 1
 15 438 l 1
 79 444 116 450 163 461 c 1
 182 415 207 303 229 185 c 1
 242 110 l 1
 311 243 328 286 328 315 c 0
 328 328 322 335 305 350 c 0
 280 368 272 379 272 404 c 0
 272 435 300 461 330 461 c 0
 363 461 393 432 393 398 c 0
 393 297 272 60 144 -100 c 0
 88 -166 23 -205 -32 -205 c 0
 -67 -205 -94 -179 -94 -145 c 0
 -94 -116 -70 -89 -44 -89 c 0
 -26 -89 -1 -100 16 -111 c 0
 23 -119 42 -125 50 -125 c 0
 67 -125 94 -104 116 -76 c 0
 133 -51 142 -26 142 -4 c 0
 142 26 125 125 92 284 c 0
 78 354 62 395 44 406 c 0
 37 410 32 412 15 412 c 1
EndSplineSet
KernsSLIFO: 277 -12 2 0 278 -12 2 0 280 -12 2 0 233 -18 2 0 276 -12 2 0 281 -12 2 0 279 -12 2 0 284 -22 2 0 285 -22 2 0 283 -22 2 0 293 -18 2 0 296 -18 2 0 292 -18 2 0 308 -16 2 0 66 -10 2 0 68 -16 2 0 27 -42 2 0 13 -25 2 0 70 -22 2 0 72 -22 2 0 14 1 2 0 77 -15 2 0 80 -16 2 0 15 -25 2 0 84 -12 2 0 28 -44 2 0
EndChar
StartChar: z
Encoding: 122 122 91
Width: 388
Flags: W
HStem: -78 30<235 249> 353 97<56 249>
VStem: 243 103<13 19>
Back
471.339 160.928 m 1
 457.035 0 l 1
 39.3379 0 l 1
 39.3379 29.3242 l 1
 306.12 439.154 l 1
 184.531 439.154 l 2
 155.921 439.154 137.325 430.57 128.027 413.406 c 0
 118.729 395.525 113.007 373.353 111.576 346.888 c 1
 61.5098 346.888 l 1
 67.2324 497.804 l 1
 457.035 497.804 l 1
 457.035 465.617 l 1
 187.392 57.2188 l 1
 306.12 57.2188 l 2
 346.173 57.2188 374.782 65.0859 391.948 82.252 c 0
 409.114 98.7021 420.558 129.457 427.71 174.518 c 1
 471.339 160.928 l 1
EndSplineSet
Fore
13 294 m 1
 56 450 l 1
 368 450 l 1
 368 439 l 1
 86 104 l 1
 138 82 163 59 193 -1 c 0
 211 -37 223 -48 242 -48 c 0
 253 -48 264 -42 264 -34 c 0
 264 -29 261 -25 256 -18 c 0
 248 -6 243 1 243 13 c 0
 243 41 267 64 293 64 c 0
 321 64 346 41 346 13 c 0
 346 -38 299 -78 237 -78 c 0
 198 -78 161 -64 107 -28 c 0
 72 -4 53 4 34 4 c 0
 23 4 16 1 1 -9 c 0
 -1 -12 -10 -18 -18 -23 c 1
 -42 -1 l 1
 249 353 l 1
 104 353 l 2
 75 353 59 338 41 291 c 1
 13 294 l 1
EndSplineSet
EndChar
StartChar: braceleft
Encoding: 123 123 92
Width: 347
Flags: W
VStem: 28 104<-97 -90> 89 101<164 181>
Back
294.677 -177.379 m 1
 263.207 -177.379 236.742 -175.232 214.569 -171.657 c 0
 192.398 -167.365 175.232 -160.213 162.358 -149.484 c 0
 131.604 -125.166 115.868 -83.6826 115.868 -25.0332 c 2
 115.868 148.053 l 2
 115.868 179.524 108 203.127 92.2656 218.861 c 0
 76.5303 235.312 47.2051 249.616 4.29102 262.49 c 1
 46.4902 273.936 75.0996 288.239 91.5498 304.69 c 0
 108 321.14 115.868 344.027 115.868 373.353 c 2
 115.868 552.161 l 2
 115.868 610.81 131.604 651.578 162.358 673.751 c 0
 186.676 693.062 231.021 703.074 294.677 703.074 c 1
 294.677 668.029 l 1
 262.49 660.162 240.318 648.003 228.16 631.552 c 0
 216.716 614.387 210.994 590.068 210.994 556.453 c 2
 210.994 389.803 l 2
 210.994 349.75 205.272 318.994 194.543 297.537 c 1
 183.1 281.088 168.795 268.929 150.914 262.49 c 1
 175.232 249.616 191.683 233.882 199.55 216.001 c 0
 206.702 198.12 210.994 170.226 210.994 133.033 c 2
 210.994 -30.7549 l 2
 210.994 -63.6562 216.716 -88.6895 229.59 -104.424 c 0
 241.749 -120.875 263.207 -133.749 294.677 -143.762 c 1
 294.677 -177.379 l 1
EndSplineSet
Fore
437 686 m 1x40
 434 674 l 1
 352 659 315 625 294 549 c 2
 250 379 l 1
 227 294 196 268 100 249 c 1
 174 229 190 215 190 173 c 0x40
 190 149 182 103 163 42 c 0
 144 -21 132 -70 132 -97 c 0
 132 -144 154 -164 212 -174 c 1
 209 -187 l 1
 117 -185 78 -177 53 -157 c 0
 37 -141 28 -122 28 -97 c 0x80
 28 -67 44 7 63 63 c 0
 79 111 89 155 89 179 c 0
 89 214 67 233 4 249 c 1
 94 268 122 293 142 365 c 1
 187 543 l 1
 220 653 277 686 437 686 c 1x40
EndSplineSet
EndChar
StartChar: bar
Encoding: 124 124 93
Width: 219
Flags: W
VStem: 66 88<-18 686>
Back
68.6621 -171.657 m 1
 17.8809 -171.657 l 1
 17.8809 698.784 l 1
 68.6621 698.784 l 1
 68.6621 -171.657 l 1
EndSplineSet
Fore
66 -18 m 1
 66 686 l 1
 154 686 l 1
 154 -18 l 1
 66 -18 l 1
EndSplineSet
EndChar
StartChar: braceright
Encoding: 125 125 94
Width: 347
Flags: W
VStem: 116 102<317 329> 174 104<598 600>
Back
263.922 248.901 m 1
 237.457 241.034 218.861 230.306 208.849 215.286 c 0
 198.835 200.98 193.113 178.094 193.113 148.053 c 2
 193.113 -25.0332 l 2
 193.113 -83.6826 178.809 -125.166 149.484 -149.484 c 0
 126.597 -168.08 82.252 -177.379 16.4502 -177.379 c 1
 16.4502 -143.762 l 1
 72.9541 -128.027 100.848 -90.1191 100.848 -30.7549 c 2
 100.848 133.033 l 2
 100.848 174.518 106.57 203.842 117.299 222.438 c 2
 115.868 221.008 l 1
 124.451 237.457 138.756 251.048 158.066 261.062 c 1
 135.895 272.504 120.875 287.524 113.007 306.836 c 0
 105.14 326.146 100.848 353.326 100.848 389.803 c 2
 100.848 556.453 l 2
 100.848 588.637 94.4111 613.671 82.252 630.837 c 0
 69.3779 648.003 47.2051 660.162 16.4502 668.029 c 1
 16.4502 703.074 l 1
 82.252 703.074 127.312 693.062 150.914 673.751 c 0
 179.524 651.578 193.113 610.095 193.113 550.731 c 2
 193.113 373.353 l 2
 193.113 321.856 216.716 288.239 263.922 273.936 c 1
 263.922 248.901 l 1
EndSplineSet
Fore
-129 -187 m 1x80
 -126 -174 l 1
 -45 -160 -7 -127 12 -51 c 2
 57 120 l 1
 81 205 110 231 208 250 c 1
 133 270 116 284 116 327 c 0x80
 116 349 125 390 144 456 c 0
 166 526 174 573 174 598 c 0
 174 642 151 664 94 674 c 1
 97 686 l 1
 190 684 229 677 253 655 c 0
 271 640 278 621 278 598 c 0x40
 278 567 264 494 245 437 c 0
 229 388 218 344 218 319 c 0
 218 286 240 267 302 250 c 1
 212 230 185 207 166 133 c 1
 119 -45 l 1
 88 -154 29 -187 -129 -187 c 1x80
EndSplineSet
EndChar
StartChar: asciitilde
Encoding: 126 126 95
Width: 569
Flags: W
Back
508.531 247.471 m 1
 476.346 209.563 l 1
 454.175 188.821 l 2
 432.717 171.657 405.537 162.358 371.922 162.358 c 0
 360.479 162.358 345.458 164.504 327.577 169.511 c 0
 308.982 173.802 288.239 180.954 263.922 191.683 c 0
 221.008 210.279 186.676 219.576 162.358 219.576 c 0
 138.04 219.576 111.576 195.975 83.6826 148.053 c 1
 30.7549 212.426 l 1
 65.0859 270.358 110.146 298.969 166.65 298.969 c 0
 192.398 298.969 228.875 288.239 276.796 268.212 c 0
 298.969 258.915 318.279 252.478 334.73 248.187 c 0
 350.465 243.896 364.054 241.034 373.353 240.318 c 0
 396.24 240.318 424.135 263.922 457.035 311.843 c 1
 508.531 247.471 l 1
EndSplineSet
Fore
461 308 m 1
 516 261 l 1
 470 196 439 174 393 174 c 0
 360 174 334 183 289 208 c 0
 242 233 211 243 176 243 c 0
 146 243 130 233 107 201 c 1
 54 248 l 1
 86 305 125 331 174 331 c 0
 212 331 233 324 311 290 c 0
 360 268 375 264 393 264 c 0
 416 264 437 275 461 308 c 1
EndSplineSet
EndChar
StartChar: uni0E10.descless
Encoding: 128 63232 96
Width: 536
Flags: W
HStem: 0 21G<270 378> 151 45<196 208> 294 46<236 264> 451 68<466 501> 488 88<328 356>
VStem: 145 38<216 229> 353 112<313 329>
Back
370.492 288.239 m 2
 370.492 314.703 363.339 338.306 348.319 359.762 c 0
 334.014 380.505 313.987 398.386 288.239 413.406 c 0
 268.929 424.85 246.756 433.432 222.438 437.724 c 0
 198.12 442.729 171.657 445.591 143.762 445.591 c 2
 111.576 445.591 l 1
 126.597 467.049 153.06 477.776 188.821 477.776 c 0
 193.113 477.776 199.55 476.346 208.134 473.485 c 0
 216.716 469.909 227.444 467.049 240.318 462.757 c 0
 256.77 457.75 273.936 453.458 292.531 449.168 c 0
 310.412 444.876 324.001 442.015 334.014 442.015 c 0
 392.663 442.015 432.002 480.638 452.743 556.453 c 1
 396.955 556.453 l 1
 389.803 542.862 383.366 531.419 376.213 522.121 c 0
 369.775 512.823 360.479 508.531 349.75 508.531 c 0
 345.458 508.531 337.591 511.393 327.577 517.114 c 0
 316.85 522.837 306.836 528.559 296.106 534.995 c 2
 273.936 546.439 l 2
 260.345 554.307 246.756 559.313 233.167 560.743 c 0
 219.576 562.889 205.272 563.605 191.683 563.605 c 0
 171.657 563.605 151.63 559.313 133.033 550.015 c 0
 114.438 540.718 98.7021 528.559 84.3975 512.823 c 0
 70.0928 497.087 57.9336 478.491 48.6357 457.75 c 0
 38.623 437.009 32.1855 414.836 29.3242 391.233 c 1
 98.7021 391.233 151.63 385.512 188.821 374.782 c 0
 213.14 366.915 231.735 356.187 243.181 341.167 c 0
 254.623 326.863 261.775 308.982 263.922 288.239 c 1
 239.604 317.564 206.702 332.584 166.65 332.584 c 0
 136.609 332.584 114.438 324.001 100.133 306.12 c 0
 85.8281 288.239 79.3906 266.067 79.3906 238.889 c 0
 79.3906 218.146 85.8281 198.12 99.418 178.094 c 0
 113.007 158.066 130.173 148.053 150.914 148.053 c 0
 170.226 148.053 186.676 155.206 200.98 170.226 c 0
 214.569 184.531 222.438 202.412 223.868 222.438 c 1
 236.742 198.12 246.756 168.08 253.193 131.604 c 0
 260.345 95.8418 263.922 51.4971 263.922 0 c 1
 370.492 0 l 1
 370.492 288.239 l 2
115.868 240.318 m 0
 115.868 253.908 118.729 265.352 125.166 274.65 c 0
 131.604 283.948 140.186 288.239 150.914 288.239 c 0
 161.644 288.239 170.226 283.948 177.379 274.65 c 0
 183.814 265.352 187.392 253.908 187.392 240.318 c 0
 187.392 226.729 183.814 215.286 177.379 205.987 c 0
 170.226 196.688 161.644 191.683 150.914 191.683 c 0
 140.186 191.683 131.604 196.688 125.166 205.987 c 0
 118.729 215.286 115.868 226.729 115.868 240.318 c 0
EndSplineSet
Fore
353 313 m 0xee
 353 395 244 400 141 400 c 1
 180 495 272 576 356 576 c 0xee
 384 576 412 574 435 558 c 2
 453 546 l 2
 473 535 491 519 501 519 c 0
 523 519 542 541 564 568 c 1
 621 568 l 1
 577 491 526 451 466 451 c 0xf6
 447 451 409 463 376 473 c 0
 353 480 335 488 328 488 c 0
 290 488 262 478 240 454 c 1
 272 454 l 2
 331 454 378 445 412 422 c 0
 446 399 465 368 465 329 c 0
 465 318 463 307 460 294 c 2
 378 0 l 1
 270 0 l 1
 289 70 298 126 298 170 c 0
 298 192 296 211 291 227 c 1
 275 186 237 151 196 151 c 0
 163 151 145 184 145 218 c 0
 145 227 146 235 148 243 c 0
 164 299 204 340 264 340 c 0
 305 340 334 325 352 294 c 1
 353 301 353 307 353 313 c 0xee
236 294 m 0
 210 294 183 260 183 225 c 0
 183 208 192 196 208 196 c 0
 235 196 262 230 262 264 c 0
 262 283 252 294 236 294 c 0
EndSplineSet
KernsSLIFO: 180 29 0 0 183 29 0 0 182 29 0 0 181 29 0 0
EndChar
StartChar: uni0E34.left
Encoding: 129 63233 97
Width: 0
Flags: W
HStem: 665 59<-284.943 -254> 762 71<-224 -199>
Back
-353.326 698.784 m 0
 -339.021 694.492 -326.146 690.917 -313.987 687.34 c 0
 -301.829 683.05 -290.385 678.758 -279.656 673.751 c 1
 -294.677 691.632 -313.987 708.081 -338.306 723.102 c 0
 -362.624 738.121 -388.373 745.274 -416.267 745.274 c 0
 -429.855 745.274 -444.876 743.843 -460.61 740.268 c 0
 -477.062 736.691 -484.93 729.539 -484.93 718.095 c 0
 -484.93 713.088 -480.638 710.228 -471.339 709.513 c 0
 -462.757 709.513 -454.175 708.798 -445.591 708.798 c 0
 -425.563 708.798 -409.114 708.081 -396.24 705.937 c 0
 -383.366 703.791 -368.346 701.646 -353.326 698.784 c 0
-219.576 587.208 m 1
 -235.312 597.936 -253.908 607.949 -276.081 615.816 c 0
 -298.252 624.4 -320.425 631.552 -342.598 637.274 c 0
 -357.618 640.85 -373.353 644.426 -390.519 647.288 c 0
 -407.684 650.148 -424.135 651.578 -440.584 651.578 c 0
 -448.451 651.578 -457.035 651.578 -465.617 651.578 c 0
 -475.631 651.578 -484.213 651.578 -492.082 650.148 c 0
 -509.963 650.148 -524.267 651.578 -535.711 653.01 c 0
 -546.439 655.155 -556.453 659.445 -563.605 666.599 c 0
 -570.042 670.176 -575.048 675.896 -579.34 683.05 c 0
 -583.632 690.917 -585.776 698.068 -585.776 704.506 c 0
 -585.776 720.957 -578.625 738.121 -565.035 756.002 c 0
 -550.731 773.168 -536.426 785.328 -522.837 792.48 c 0
 -494.942 808.215 -460.61 816.083 -421.988 816.083 c 0
 -397.67 816.083 -371.922 810.361 -344.743 798.916 c 0
 -318.279 787.474 -293.962 772.453 -272.504 753.142 c 0
 -251.048 733.115 -233.167 710.228 -218.861 683.05 c 0
 -204.557 656.585 -197.405 627.261 -197.405 596.506 c 1
 -219.576 587.208 l 1
EndSplineSet
Fore
-266 724 m 0
 -196 724 -139 712 -95 688 c 1
 -114 724 -158 762 -214 762 c 0
 -242 762 -286 757 -291 732 c 0
 -292 732 -292 731 -292 731 c 0
 -292 724 -280 724 -266 724 c 0
-59 599 m 1
 -83 623 -126 639 -170 650 c 0
 -196 658 -231 665 -265 665 c 2
 -291 665 l 2
 -302 665 -311 665 -318 664 c 0
 -354 664 -375 666 -387 681 c 0
 -395 687 -399 699 -399 711 c 0
 -399 714 -399 717 -398 719 c 0
 -388 754 -341 795 -311 809 c 1
 -277 826 -240 833 -199 833 c 0
 -112 833 -26 761 -26 660 c 0
 -26 644 -29 627 -34 609 c 1
 -59 599 l 1
EndSplineSet
EndChar
StartChar: uni0E35.left
Encoding: 130 63234 98
Width: 0
Flags: W
HStem: 678 59<-262 -251> 776 72<-221 -193>
Back
-218.146 877.593 m 1
 -298.969 877.593 l 1
 -298.969 789.618 l 1
 -318.279 802.493 -338.306 812.507 -359.048 819.658 c 0
 -379.074 826.811 -400.532 830.388 -421.988 830.388 c 0
 -460.61 830.388 -494.942 822.519 -522.837 806.784 c 0
 -536.426 799.632 -550.731 786.757 -565.035 768.876 c 0
 -578.625 751.712 -585.776 734.546 -585.776 718.095 c 0
 -585.776 710.943 -583.632 703.791 -579.34 695.924 c 0
 -575.048 688.056 -570.042 682.333 -563.605 678.043 c 0
 -556.452 671.604 -546.439 667.313 -535.711 665.169 c 0
 -524.267 663.022 -509.963 662.307 -492.082 662.307 c 0
 -484.213 663.022 -475.631 663.737 -465.617 663.737 c 0
 -457.035 663.737 -448.451 663.737 -440.584 663.737 c 0
 -424.135 663.737 -407.684 662.307 -390.519 659.445 c 0
 -373.353 656.585 -357.618 653.01 -342.598 648.718 c 0
 -320.425 642.281 -296.106 632.982 -270.358 622.254 c 0
 -244.61 611.524 -220.293 598.65 -197.405 582.916 c 1
 -197.405 607.234 -199.55 628.69 -202.412 646.571 c 0
 -205.272 664.452 -210.279 680.903 -218.146 695.924 c 1
 -218.146 877.593 l 1
-353.326 711.658 m 0
 -368.346 714.52 -383.366 717.38 -396.24 719.525 c 0
 -409.114 720.957 -425.564 722.387 -445.591 722.387 c 0
 -454.175 722.387 -462.757 722.387 -471.339 723.102 c 0
 -480.638 723.102 -484.93 725.962 -484.93 730.969 c 0
 -484.93 742.413 -477.062 750.281 -460.61 754.572 c 0
 -444.876 758.148 -429.855 760.294 -416.267 760.294 c 0
 -388.373 760.294 -362.624 752.427 -338.306 736.691 c 0
 -313.987 720.957 -294.677 703.791 -279.656 685.194 c 1
 -290.385 691.632 -301.829 695.924 -313.987 700.214 c 0
 -326.146 703.791 -339.021 708.081 -353.326 711.658 c 0
EndSplineSet
Fore
-315 677 m 0
 -366 677 -396 686 -396 722 c 0
 -396 726 -395 729 -394 732 c 0
 -385 768 -338 807 -306 825 c 0
 -272 841 -236 848 -195 848 c 0
 -151 848 -114 832 -81 806 c 1
 -56 896 l 1
 26 896 l 1
 -25 710 l 1
 -23 702 -22 692 -22 682 c 0
 -22 658 -27 630 -37 595 c 1
 -75 627 -123 649 -167 662 c 0
 -193 669 -229 678 -262 678 c 2
 -289 678 l 2
 -299 678 -308 678 -315 677 c 0
-262 737 m 0
 -190 737 -133 726 -91 700 c 1
 -111 737 -154 776 -209 776 c 0
 -237 776 -281 770 -289 747 c 0
 -289 746 -289 746 -289 745 c 0
 -289 738 -276 737 -262 737 c 0
EndSplineSet
EndChar
StartChar: uni0E36.left
Encoding: 131 63235 99
Width: 0
Flags: W
HStem: 678 59<-262 -251> 776 72<-221 -193> 838 58<-59 -42>
VStem: -40 65<816 830>
Back
-197.405 606.518 m 1
 -197.405 650.148 -209.563 688.771 -233.167 722.387 c 1
 -209.563 739.553 -197.405 762.44 -197.405 791.049 c 0
 -197.405 814.651 -206.702 834.678 -223.868 851.844 c 0
 -241.749 869.01 -262.49 877.593 -285.378 877.593 c 0
 -303.976 877.593 -321.14 872.586 -336.16 861.857 c 0
 -351.18 851.844 -362.624 838.255 -369.061 821.804 c 1
 -386.941 827.525 -404.107 830.388 -421.988 830.388 c 0
 -460.61 830.388 -494.942 822.519 -522.837 806.784 c 0
 -536.426 799.632 -550.731 786.757 -565.035 768.876 c 0
 -578.625 751.712 -585.776 734.546 -585.776 718.095 c 0
 -585.776 710.943 -583.632 703.791 -579.34 695.924 c 0
 -575.048 688.056 -570.042 682.333 -563.605 678.043 c 0
 -556.452 671.604 -546.439 667.313 -535.711 665.169 c 0
 -524.267 663.022 -509.963 662.307 -492.082 662.307 c 0
 -484.213 663.022 -475.631 663.737 -465.617 663.737 c 0
 -457.035 663.737 -448.451 663.737 -440.584 663.737 c 0
 -424.135 663.737 -407.684 662.307 -390.519 659.445 c 0
 -373.353 656.585 -357.618 653.01 -342.598 648.718 c 0
 -320.425 642.281 -298.252 634.412 -276.081 626.545 c 0
 -253.908 617.963 -235.312 608.664 -219.576 597.936 c 1
 -197.405 606.518 l 1
-353.326 711.658 m 0
 -368.346 714.52 -383.366 717.38 -396.24 719.525 c 0
 -409.114 720.957 -425.564 722.387 -445.591 722.387 c 0
 -454.175 722.387 -462.757 722.387 -471.339 723.102 c 0
 -480.638 723.102 -484.93 725.962 -484.93 730.969 c 0
 -484.93 742.413 -477.062 750.281 -460.61 754.572 c 0
 -444.876 758.148 -429.855 760.294 -416.267 760.294 c 0
 -388.373 760.294 -362.624 752.427 -338.306 736.691 c 0
 -313.987 720.957 -294.677 703.791 -279.656 685.194 c 1
 -290.385 691.632 -301.829 695.924 -313.987 700.214 c 0
 -326.146 703.791 -339.021 708.081 -353.326 711.658 c 0
-313.272 791.049 m 0
 -313.272 798.916 -311.126 805.354 -305.405 811.791 c 0
 -299.684 817.512 -293.246 820.374 -285.378 820.374 c 0
 -277.511 820.374 -271.789 817.512 -266.782 811.791 c 0
 -261.775 805.354 -258.915 798.916 -258.915 791.049 c 0
 -258.915 783.182 -261.775 776.744 -266.782 771.022 c 0
 -271.789 766.016 -277.511 763.155 -285.378 763.155 c 0
 -293.246 763.155 -299.684 766.016 -305.405 771.022 c 0
 -311.126 776.744 -313.272 783.182 -313.272 791.049 c 0
EndSplineSet
Fore
25 830 m 0xb0
 25 789 -1 758 -34 737 c 1
 -26 719 -22 699 -22 677 c 0
 -22 659 -25 640 -31 620 c 1
 -54 611 l 1
 -81 633 -123 649 -167 662 c 0
 -193 669 -229 678 -262 678 c 2
 -289 678 l 2
 -299 678 -308 678 -315 677 c 0
 -366 677 -396 686 -396 722 c 0
 -396 726 -395 729 -394 732 c 0
 -385 768 -338 807 -306 825 c 0
 -272 841 -236 848 -195 848 c 0xd0
 -177 848 -161 845 -144 839 c 1
 -122 873 -81 896 -42 896 c 0
 -2 896 25 868 25 830 c 0xb0
-262 737 m 0
 -190 737 -133 726 -91 700 c 1
 -111 737 -154 776 -209 776 c 0
 -237 776 -281 770 -289 747 c 0
 -289 746 -289 746 -289 745 c 0
 -289 738 -276 737 -262 737 c 0
-59 838 m 0xb0
 -76 838 -98 820 -98 800 c 0
 -98 788 -88 779 -75 779 c 0
 -56 779 -40 797 -40 818 c 0
 -40 830 -46 838 -59 838 c 0xb0
EndSplineSet
EndChar
StartChar: uni0E37.left
Encoding: 132 63236 100
Width: 0
Flags: W
HStem: 678 59<-262 -251> 776 73<-221 -203>
Back
-421.988 830.388 m 2
 -441.3 832.532 -459.896 831.103 -477.062 826.096 c 0
 -494.227 821.089 -509.246 814.651 -522.837 806.784 c 0
 -536.426 799.632 -550.731 786.757 -565.035 768.876 c 0
 -578.625 751.712 -585.776 734.546 -585.776 718.095 c 0
 -585.776 710.943 -583.632 703.791 -579.34 695.924 c 0
 -575.048 688.056 -570.042 682.333 -563.605 678.043 c 0
 -555.021 672.319 -545.725 668.029 -534.995 665.884 c 0
 -524.267 663.022 -509.963 662.307 -492.082 662.307 c 0
 -484.213 662.307 -475.631 662.307 -466.332 663.022 c 0
 -457.035 663.022 -448.451 663.737 -440.584 663.737 c 0
 -424.135 663.737 -407.684 662.307 -390.519 659.445 c 0
 -373.353 656.585 -357.618 653.01 -342.598 648.718 c 0
 -320.425 642.281 -296.106 632.982 -270.358 622.254 c 0
 -244.61 611.524 -220.293 598.65 -197.405 582.916 c 1
 -197.405 607.234 -199.55 628.69 -202.412 646.571 c 0
 -205.272 664.452 -210.279 680.903 -218.146 695.924 c 1
 -218.146 877.593 l 1
 -282.518 877.593 l 1
 -282.518 776.029 l 1
 -300.398 789.618 l 2
 -302.544 791.764 -306.12 794.625 -311.843 798.202 c 1
 -311.843 877.593 l 1
 -376.213 877.593 l 1
 -376.213 824.665 l 1
 -398.386 828.957 l 1
 -421.988 830.388 l 2
-353.326 711.658 m 0
 -368.346 715.95 -383.366 718.811 -396.24 720.24 c 0
 -409.114 721.672 -425.564 722.387 -445.591 722.387 c 0
 -454.175 722.387 -462.757 722.387 -471.339 723.102 c 0
 -480.638 723.102 -484.93 725.962 -484.93 730.969 c 0
 -484.93 742.413 -477.062 750.281 -460.61 754.572 c 0
 -444.876 758.148 -429.855 760.294 -416.267 760.294 c 0
 -388.373 760.294 -362.624 752.427 -338.306 736.691 c 0
 -313.987 720.957 -294.677 703.791 -279.656 685.194 c 1
 -290.385 691.632 -301.829 695.924 -313.987 700.214 c 0
 -326.146 703.791 -339.021 708.081 -353.326 711.658 c 0
EndSplineSet
Fore
-262 678 m 0
 -321 678 -396 669 -396 722 c 0
 -396 726 -395 729 -394 732 c 0
 -385 768 -338 807 -306 825 c 0
 -277 838 -246 849 -212 849 c 0
 -190 849 -169 844 -151 842 c 1
 -135 896 l 1
 -69 896 l 1
 -92 814 l 1
 -82 804 -78 801 -69 792 c 1
 -40 896 l 1
 26 896 l 1
 -25 710 l 1
 -23 702 -22 692 -22 682 c 0
 -22 658 -27 630 -37 595 c 1
 -75 627 -123 649 -167 662 c 0
 -193 669 -229 678 -262 678 c 0
-262 737 m 0
 -190 737 -134 727 -91 700 c 1
 -111 737 -154 776 -209 776 c 0
 -237 776 -281 770 -289 747 c 0
 -289 746 -289 746 -289 745 c 0
 -289 738 -276 737 -262 737 c 0
EndSplineSet
EndChar
StartChar: ellipsis
Encoding: 133 8230 101
Width: 998
Flags: W
HStem: -13 21G<92.5 134 424.5 465.5 755.5 797.5>
VStem: 40 147<62 68> 372 148<62 68> 705 148<62 68>
Back
452.743 47.2051 m 0
 452.743 15.7354 430.57 -2.86133 386.941 -8.58301 c 1
 344.027 -8.58301 320.425 9.29785 316.133 45.0596 c 1
 316.133 84.3975 339.021 103.709 385.512 103.709 c 0
 405.537 103.709 422.703 97.9873 434.862 86.543 c 0
 447.021 76.5303 452.743 63.6562 452.743 47.2051 c 0
666.599 47.2051 m 0
 666.599 15.7354 643.711 -2.86133 599.367 -8.58301 c 1
 557.167 -8.58301 534.28 9.29785 529.988 45.0596 c 1
 529.988 84.3975 552.876 103.709 597.936 103.709 c 0
 617.248 103.709 634.412 97.9873 648.718 86.543 c 0
 659.445 76.5303 665.169 63.6562 666.599 47.2051 c 0
240.318 47.2051 m 0
 240.318 10.0137 217.432 -8.58301 171.657 -8.58301 c 0
 126.597 -8.58301 103.709 10.0137 103.709 47.2051 c 0
 103.709 85.1133 126.597 103.709 171.657 103.709 c 0
 217.432 103.709 240.318 85.1133 240.318 47.2051 c 0
EndSplineSet
Fore
116 135 m 0
 155 135 187 101 187 62 c 0
 187 19 155 -13 113 -13 c 0
 72 -13 40 19 40 62 c 0
 40 103 73 135 116 135 c 0
447 135 m 0
 486 135 520 101 520 62 c 0
 520 19 486 -13 445 -13 c 0
 404 -13 372 19 372 62 c 0
 372 103 404 135 447 135 c 0
779 135 m 0
 819 135 853 101 853 62 c 0
 853 19 819 -13 776 -13 c 0
 735 -13 705 19 705 62 c 0
 705 103 737 135 779 135 c 0
EndSplineSet
EndChar
StartChar: uni0E48.low_left
Encoding: 134 63237 102
Width: 0
Flags: W
Back
-228.16 849.698 m 1
 -233.167 757.434 l 1
 -244.61 648.718 l 1
 -245.324 642.996 -249.616 637.989 -256.055 633.697 c 0
 -263.207 629.407 -268.929 627.261 -273.936 627.261 c 0
 -281.088 627.261 -286.81 629.407 -293.246 633.697 c 0
 -298.969 637.989 -302.544 642.996 -303.259 648.718 c 1
 -313.272 758.863 l 1
 -316.133 849.698 l 1
 -228.16 849.698 l 1
EndSplineSet
Fore
7 867 m 1
 -15 796 -40 728 -67 662 c 1
 -72 650 -92 640 -103 640 c 0
 -115 640 -126 649 -126 660 c 0
 -126 661 -126 661 -126 662 c 1
 -114 733 -100 802 -83 867 c 1
 7 867 l 1
EndSplineSet
EndChar
StartChar: uni0E49.low_left
Encoding: 135 63238 103
Width: 0
Flags: W
HStem: 826 37<-214 -204>
VStem: -302 47<743 759> -196 45<799 807>
Back
-197.405 845.406 m 1
 -288.239 845.406 l 1
 -288.239 787.474 -299.684 744.56 -322.571 715.95 c 1
 -337.591 691.632 -361.193 676.611 -392.663 670.891 c 1
 -373.353 695.207 -363.339 726.679 -363.339 766.016 c 0
 -363.339 786.757 -369.775 804.638 -384.081 821.089 c 0
 -397.67 836.824 -414.121 845.406 -433.432 845.406 c 0
 -454.175 845.406 -470.624 836.824 -483.498 819.658 c 0
 -496.372 802.493 -502.094 783.896 -502.094 764.586 c 0
 -502.094 718.095 -485.645 690.2 -451.312 682.333 c 1
 -465.617 670.176 -484.93 662.307 -508.531 660.877 c 1
 -508.531 613.671 l 1
 -423.418 613.671 l 2
 -393.379 613.671 -366.2 618.678 -341.882 628.69 c 0
 -318.279 637.989 -295.392 651.578 -273.936 668.029 c 0
 -223.153 708.798 -197.405 768.162 -197.405 845.406 c 1
-458.465 763.155 m 0
 -458.465 776.029 -456.319 786.757 -451.312 795.341 c 0
 -446.307 803.923 -439.869 808.215 -432.002 808.215 c 0
 -424.135 808.215 -418.413 803.923 -414.121 795.341 c 0
 -409.114 786.757 -406.969 776.029 -406.969 763.155 c 0
 -406.969 750.281 -409.114 739.553 -414.121 730.969 c 0
 -418.413 722.387 -424.135 718.095 -432.002 718.095 c 0
 -439.869 718.095 -446.307 722.387 -451.312 730.969 c 0
 -456.319 739.553 -458.465 750.281 -458.465 763.155 c 0
EndSplineSet
Fore
-151 805 m 0
 -151 760 -184 710 -211 686 c 1
 -177 691 -149 706 -127 731 c 1
 -95 760 -72 804 -56 863 c 1
 37 863 l 1
 15 784 -26 724 -91 683 c 0
 -144 647 -196 627 -258 627 c 2
 -344 627 l 1
 -331 675 l 1
 -308 677 -286 684 -267 697 c 1
 -290 702 -302 718 -302 743 c 0
 -302 802 -256 863 -204 863 c 0
 -171 863 -151 837 -151 805 c 0
-212 826 m 0
 -233 826 -255 789 -255 759 c 0
 -255 744 -249 732 -237 732 c 0
 -217 732 -196 769 -196 801 c 0
 -196 816 -201 826 -212 826 c 0
EndSplineSet
EndChar
StartChar: uni0E4A.low_left
Encoding: 136 63239 104
Width: 0
Flags: W
HStem: 620 36<-341 -328> 768 54<-264 -248 -158 -145>
VStem: -393 43<675 681> -293 48<711 728> -140 65<747 764>
Back
-191.683 806.784 m 1
 -279.656 806.784 l 1
 -276.796 768.876 l 1
 -276.796 726.679 l 1
 -281.803 778.175 -311.843 803.923 -366.2 803.923 c 0
 -374.782 803.923 -383.366 801.777 -391.948 797.487 c 0
 -399.815 793.195 -406.969 787.474 -413.406 781.036 c 1
 -428.425 796.056 -446.307 803.923 -465.617 803.923 c 0
 -491.365 803.923 -511.393 798.202 -525.697 786.042 c 0
 -540.718 773.883 -551.446 760.294 -559.313 745.274 c 0
 -564.32 735.976 -567.896 725.962 -570.042 715.95 c 0
 -571.473 706.651 -572.902 695.924 -572.902 685.194 c 0
 -572.902 665.884 -565.75 648.003 -552.161 631.552 c 0
 -538.572 614.387 -522.121 606.518 -502.094 606.518 c 0
 -477.062 606.518 -459.181 614.387 -449.168 630.837 c 0
 -438.438 646.571 -433.432 662.307 -433.432 678.043 c 0
 -433.432 698.784 -436.294 714.52 -442.015 726.679 c 0
 -448.451 738.121 -456.319 746.705 -465.617 751.712 c 1
 -442.015 751.712 -430.57 733.115 -430.57 695.924 c 1
 -385.512 695.924 l 1
 -385.512 733.115 -377.643 751.712 -363.339 751.712 c 0
 -346.888 751.712 -338.306 738.838 -338.306 713.088 c 0
 -338.306 699.499 -344.027 686.625 -356.187 674.466 c 0
 -367.631 662.307 -381.22 654.439 -396.955 650.148 c 1
 -396.955 603.657 l 1
 -260.345 603.657 -191.683 671.604 -191.683 806.784 c 1
-528.559 678.043 m 0
 -528.559 688.771 -526.412 698.068 -520.691 704.506 c 0
 -515.685 711.658 -508.531 714.52 -500.664 714.52 c 0
 -492.797 714.52 -487.075 711.658 -483.498 704.506 c 0
 -479.206 698.068 -477.776 688.771 -477.776 678.043 c 0
 -477.776 667.313 -479.206 658.73 -483.498 652.293 c 0
 -487.075 646.571 -492.797 642.996 -500.664 642.996 c 0
 -508.531 642.996 -515.685 646.571 -520.691 652.293 c 0
 -526.412 658.73 -528.559 667.313 -528.559 678.043 c 0
EndSplineSet
Fore
-393 677 m 0
 -393 748 -319 822 -248 822 c 0
 -227 822 -212 813 -201 797 c 1
 -186 810 -164 822 -145 822 c 0
 -98 822 -75 802 -75 764 c 0
 -75 757 -76 750 -78 741 c 1
 -69 767 -62 795 -57 825 c 1
 32 825 l 1
 -6 686 -95 617 -234 617 c 1
 -221 664 l 1
 -182 672 -140 707 -140 747 c 0
 -140 761 -147 768 -158 768 c 0
 -173 768 -186 749 -196 710 c 1
 -242 710 l 1
 -239 722 -237 731 -237 739 c 0
 -237 758 -246 768 -264 768 c 1
 -252 761 -245 748 -245 728 c 0
 -245 677 -280 620 -341 620 c 0
 -374 620 -393 645 -393 677 c 0
-309 729 m 0
 -329 729 -350 707 -350 679 c 0
 -350 664 -342 656 -330 656 c 0
 -308 656 -293 686 -293 711 c 0
 -293 722 -298 729 -309 729 c 0
EndSplineSet
EndChar
StartChar: uni0E4B.low_left
Encoding: 137 63240 105
Width: 0
Flags: W
HStem: 712 67<-251 -187 -75 -16>
Back
-384.081 845.406 m 1
 -379.074 763.155 l 1
 -457.035 763.155 l 1
 -457.035 697.354 l 1
 -377.643 697.354 l 1
 -374.782 613.671 l 1
 -293.246 613.671 l 1
 -288.239 697.354 l 1
 -209.563 697.354 l 1
 -209.563 763.155 l 1
 -285.378 763.155 l 1
 -282.518 845.406 l 1
 -384.081 845.406 l 1
EndSplineSet
Fore
-154 863 m 1
 -50 863 l 1
 -75 779 l 1
 3 779 l 1
 -16 712 l 1
 -97 712 l 1
 -125 627 l 1
 -208 627 l 1
 -187 712 l 1
 -270 712 l 1
 -250 779 l 1
 -170 779 l 1
 -154 863 l 1
EndSplineSet
EndChar
StartChar: uni0E4C.low_left
Encoding: 138 63241 106
Width: 0
Flags: W
HStem: 609 40<-166 -149>
VStem: -237 70<670 679> -103 51<724 745>
Back
-225.3 795.341 m 0
 -199.55 806.069 -180.954 817.512 -170.226 829.672 c 0
 -159.498 841.831 -153.774 856.136 -153.774 873.301 c 0
 -153.774 877.593 -153.774 882.6 -153.774 887.605 c 0
 -153.774 892.612 -154.491 899.051 -156.637 908.348 c 1
 -240.318 889.037 l 1
 -238.174 884.03 -236.742 879.023 -236.027 874.731 c 0
 -234.597 869.725 -234.597 864.719 -234.597 859.712 c 0
 -234.597 851.844 -241.034 844.691 -253.193 838.255 c 0
 -266.067 832.532 -276.081 828.242 -282.518 826.096 c 0
 -326.863 807.5 -360.479 788.903 -384.796 770.308 c 0
 -408.399 751.712 -420.558 725.247 -420.558 691.632 c 0
 -420.558 665.169 -411.26 642.281 -394.094 623.684 c 0
 -376.213 605.803 -354.041 596.506 -326.863 596.506 c 0
 -302.544 596.506 -283.232 605.088 -268.929 622.254 c 0
 -254.623 640.135 -247.471 662.307 -247.471 690.2 c 0
 -247.471 728.824 -258.915 755.287 -281.088 768.876 c 1
 -273.219 773.883 -264.637 778.89 -254.623 783.182 c 0
 -245.324 787.474 -235.312 791.764 -225.3 795.341 c 0
-348.319 682.333 m 0
 -348.319 695.924 -346.173 708.081 -341.882 718.095 c 0
 -337.591 727.394 -331.153 732.4 -322.571 732.4 c 0
 -312.558 732.4 -305.405 727.394 -301.113 718.095 c 0
 -296.822 708.081 -294.677 695.924 -294.677 682.333 c 0
 -294.677 668.744 -296.822 658.016 -301.829 648.718 c 0
 -306.836 640.135 -313.272 635.844 -322.571 635.844 c 0
 -331.153 635.844 -337.591 640.135 -341.882 648.718 c 0
 -346.173 658.016 -348.319 668.744 -348.319 682.333 c 0
EndSplineSet
Fore
-4 811 m 0
 -28 804 -50 795 -69 785 c 1
 -58 777 -52 764 -52 745 c 0
 -52 733 -54 720 -59 705 c 0
 -73 649 -116 609 -166 609 c 0
 -210 609 -237 638 -237 677 c 0
 -237 686 -236 696 -233 706 c 0
 -214 776 -154 806 -54 844 c 0
 -40 848 0 861 4 877 c 0
 7 886 8 893 8 900 c 0
 8 903 8 905 7 908 c 1
 98 927 l 1
 97 918 95 911 95 907 c 2
 91 892 l 2
 81 857 56 835 -4 811 c 0
-122 749 m 0
 -145 749 -167 702 -167 672 c 0
 -167 657 -161 649 -149 649 c 0
 -124 649 -103 690 -103 724 c 0
 -103 739 -108 749 -122 749 c 0
EndSplineSet
EndChar
StartChar: uni0E48.low
Encoding: 139 63242 107
Width: 0
Flags: HW
AnchorPoint: "AboveBase" 60 593 mark 0
Back
-117.299 834.678 m 1
 -121.59 742.413 l 1
 -133.033 634.412 l 1
 -135.18 628.69 -139.471 622.969 -145.908 618.678 c 0
 -152.345 614.387 -158.066 612.241 -162.358 612.241 c 0
 -169.511 612.241 -175.947 614.387 -181.669 618.678 c 0
 -187.392 622.969 -190.968 628.69 -191.683 634.412 c 1
 -202.412 743.843 l 1
 -206.702 834.678 l 1
 -117.299 834.678 l 1
EndSplineSet
Fore
116 853 m 1
 86 759 l 1
 44 647 l 1
 35 636 18 625 7 625 c 0
 -7 625 -19 636 -16 647 c 1
 4 760 l 1
 25 853 l 1
 116 853 l 1
EndSplineSet
Substitution: 0 65534 'amn1' uni0E4D
Substitution: 0 65534 'amn0' uni0E4D
Substitution: 0 65534 'amni' uni0E4D
EndChar
